<?xml version="1.0" encoding="UTF-8"?>
<svg id="Vordergrund" xmlns="http://www.w3.org/2000/svg" version="1.1" viewBox="0 0 301 85">
    <!-- Generator: Adobe Illustrator 29.5.1, SVG Export Plug-In . SVG Version: 2.1.0 Build 141)  -->
    <defs>
        <style>
            .st0 {
            fill: #164194;
            }

            .st1 {
            fill: #e30613;
            }

            .st2 {
            fill: #646363;
            }
        </style>
    </defs>
    <g>
        <path class="st1"
              d="M51.1,18.3c0-1.9,1.2-3.2,3.2-3.2s3.2,1.3,3.2,3.2v22.6c0,1.9-1.2,3.2-3.2,3.2s-3.2-1.3-3.2-3.2v-22.6Z"/>
        <path class="st1"
              d="M62.8,18.8c0-2.6,1.3-3.7,4-3.7s2.5.5,3.2,1.7l11.2,18h0v-16.6c0-2.1,1.2-3.1,3.1-3.1s3.1,1,3.1,3.1v22c0,2.5-1.1,4-3.8,4s-2.7-.4-3.5-1.7l-11.1-17.5h0v16.1c0,2.1-1.2,3.1-3.1,3.1s-3.1-1-3.1-3.1v-22.2Z"/>
        <path class="st1"
              d="M97.6,20.9h-4.5c-1.8,0-3.3-.9-3.3-2.7s1.5-2.7,3.3-2.7h15.5c1.8,0,3.3.9,3.3,2.7s-1.5,2.7-3.3,2.7h-4.5v20c0,1.9-1.2,3.2-3.2,3.2s-3.2-1.3-3.2-3.2v-20Z"/>
        <path class="st1"
              d="M114.1,19.3c0-2.8,1.5-3.7,3.7-3.7h14c1.9,0,3.2.5,3.2,2.6s-1.4,2.6-3.2,2.6h-11.3v6.1h9.8c1.7,0,3,.5,3,2.5s-1.3,2.5-3,2.5h-9.8v6.8h11.7c1.9,0,3.2.5,3.2,2.6s-1.4,2.6-3.2,2.6h-14.3c-2.3,0-3.7-.9-3.7-3.7v-20.5Z"/>
        <path class="st1"
              d="M144.5,28h5.4c2.4,0,4.8-.6,4.8-3.8s-1.8-3.8-4.6-3.8h-5.6v7.5ZM138.1,19.3c0-2.8,1.5-3.7,3.7-3.7h9.6c7.6,0,9.6,4.2,9.6,7.8s-1.8,6-4.8,6.7h0c3.3.5,3.8,2.9,3.8,5.8s.9,4.4.9,5.8-1.5,2.5-3,2.5c-3.5,0-3.8-3.4-3.8-4.5,0-4.9-.9-6.9-4.4-6.9h-5.3v8.2c0,1.9-1.2,3.2-3.2,3.2s-3.2-1.3-3.2-3.2v-21.6Z"/>
        <path class="st0"
              d="M248.4,28h5.4c2.4,0,4.8-.6,4.8-3.8s-1.8-3.8-4.6-3.8h-5.6v7.5ZM242,19.3c0-2.8,1.5-3.7,3.7-3.7h9.6c7.6,0,9.6,4.2,9.6,7.8s-1.8,6-4.8,6.7h0c3.3.5,3.8,2.9,3.8,5.8s.9,4.4.9,5.8-1.5,2.5-3,2.5c-3.5,0-3.8-3.4-3.8-4.5,0-4.9-.9-6.9-4.4-6.9h-5.3v8.2c0,1.9-1.2,3.2-3.2,3.2s-3.2-1.3-3.2-3.2v-21.6Z"/>
        <path class="st0"
              d="M180,27.4c5.8,1.3,7.3,4.8,7.3,8.1,0,5.1-3.8,8.8-11.5,8.8s-11.7-4-11.7-7.1,1.1-2.6,2.7-2.6c3.5,0,2.6,5.1,9,5.1s5.1-1.8,5.1-3.7-.5-2.4-2.7-2.9l-7.2-1.8c-5.8-1.5-6.8-4.7-6.8-7.7,0-6.2,5.8-8.6,11.2-8.6s10.9,2.8,10.9,6.5-1.4,2.5-2.9,2.5c-3,0-2.4-4.2-8.4-4.2s-4.6,1.4-4.6,3.3,2.3,2.6,4.4,3l5.3,1.2Z"/>
        <path class="st0"
              d="M196.5,28.4h5c2.6,0,4.5-1.6,4.5-4s-2-4-5.1-4h-4.3v7.9ZM190.1,19.3c0-2.8,1.5-3.7,3.7-3.7h8.8c5.4,0,9.7,2.6,9.7,8.9s-3.5,8.9-9.7,8.9h-6.1v7.6c0,1.9-1.2,3.2-3.2,3.2s-3.2-1.3-3.2-3.2v-21.6Z"/>
        <path class="st0"
              d="M226.4,39.1c5.8,0,5.8-4.5,5.8-9.9s-.6-9.2-5.8-9.2-5.8,3.8-5.8,9.2-.2,9.9,5.8,9.9M226.4,14.9c9.2,0,12.2,6.1,12.2,14.3s-2.6,15-12.2,15-12.2-6.5-12.2-15,3-14.3,12.2-14.3"/>
        <path class="st0"
              d="M273.4,20.9h-4.5c-1.8,0-3.3-.9-3.3-2.7s1.5-2.7,3.3-2.7h15.5c1.8,0,3.3.9,3.3,2.7s-1.5,2.7-3.3,2.7h-4.5v20c0,1.9-1.2,3.2-3.2,3.2s-3.2-1.3-3.2-3.2v-20Z"/>
        <path class="st0"
              d="M291.5,18.1v-1h.8c.2,0,.3,0,.5,0,.2,0,.2.2.2.4s0,.3-.2.4c-.2.1-.3.2-.6.2h-.8ZM293.5,19.6l-.6-1.3c.4,0,.6-.4.6-.7s-.1-.5-.4-.6c-.2-.1-.5-.2-.7-.2h-1.2v2.8h.4v-1.2h.8l.6,1.2h.5Z"/>
        <path class="st0"
              d="M292.2,16.2c-1.1,0-2.1.9-2.1,2.1s.9,2.1,2.1,2.1,2.1-.9,2.1-2.1-.9-2.1-2.1-2.1M292.2,20.7c-1.4,0-2.5-1.1-2.5-2.5s1.1-2.5,2.5-2.5,2.5,1.1,2.5,2.5-1.1,2.5-2.5,2.5"/>
        <path class="st1" d="M11.2,21.5c0-3.5,2.8-6.3,6.3-6.3s6.3,2.8,6.3,6.3-2.8,6.3-6.3,6.3-6.3-2.8-6.3-6.3"/>
        <path class="st0"
              d="M17.5,43.8c-.9,0-1.6-.8-1.6-1.7v-10.3c0-.9.7-1.7,1.6-1.7,9.9,0,10.6-13.4,24.8-13.4s1.6.8,1.6,1.7v10.2c0,.9-.7,1.7-1.6,1.7-9.7,0-10.3,13.5-24.8,13.5"/>
    </g>
    <g>
        <path class="st2" d="M73.1,68.5v-18.5h12.2v3.2h-8.6v4.3h7.3v3.2h-7.3v4.5h8.6v3.2h-12.2Z"/>
        <path class="st2"
              d="M100.5,66.6c-1.4,1.5-3.1,2.1-5.2,2.1s-3.6-.7-5-2c-.8-.8-1.3-1.7-1.5-2.8s-.3-2.6-.3-4.6.1-3.6.3-4.6c.2-1.1.7-2,1.5-2.8,1.4-1.4,3-2,5-2,4.2,0,6.5,2.7,7,5.9h-3.6c-.4-1.8-1.5-2.7-3.3-2.7s-1.7.3-2.3,1c-.7.9-.9,1.5-.9,5.2s.2,4.4.9,5.2c.5.7,1.3,1,2.3,1s1.9-.3,2.6-1c.5-.6.8-1.5.8-2.5v-.7h-3.4v-3h7v2.7c0,2.7-.5,4.3-1.8,5.6Z"/>
        <path class="st2" d="M105.9,68.5v-18.5h3.6v15.3h8.4v3.2h-12Z"/>
        <path class="st2" d="M121.1,68.5v-18.5h3.6v18.5h-3.6Z"/>
        <path class="st2"
              d="M149.3,68.5l-4.4-16.1-4.4,16.1h-1.4l-4.6-18.5h1.5l3.9,16.1,4.3-16.1h1.5l4.3,16.1,3.9-16.1h1.5l-4.6,18.5h-1.4Z"/>
        <path class="st2" d="M158.5,50h1.6v1.6h-1.6v-1.6ZM158.7,56h1.3v12.5h-1.3v-12.5Z"/>
        <path class="st2"
              d="M173.6,60.8c0-2.4-1.2-3.7-3.5-3.7s-3.5,1.4-3.5,3.7v7.8h-1.3v-12.5h1.3v1.5c.9-1.1,2.2-1.6,3.7-1.6s2.5.4,3.3,1.2c.9.8,1.3,2,1.3,3.5v8h-1.3v-7.8Z"/>
        <path class="st2"
              d="M180.4,65.3v-8.3h-1.7v-1h1.7v-4h1.3v4h2.8v1h-2.8v8.3c0,1.3.6,2.1,1.9,2.1h.9v1.2h-1.1c-2,0-3-1.4-3-3.3Z"/>
        <path class="st2"
              d="M193.4,67.5c1.5,0,2.4-.4,3.5-1.5l1,.8c-1.3,1.3-2.4,1.9-4.5,1.9-3.5,0-5.3-2.2-5.3-6.4s1.9-6.4,5-6.4,5,2.3,5,6.1v.6h-8.7c0,3.2,1.4,4.9,4.1,4.9ZM196.3,59.1c-.5-1.3-1.8-2.1-3.2-2.1s-2.7.8-3.2,2.1c-.3.8-.4,1.1-.4,2.4h7.4c0-1.2-.1-1.6-.4-2.4Z"/>
        <path class="st2"
              d="M207.3,57c-2.2,0-3.4,1.8-3.4,3.8v7.7h-1.3v-12.5h1.3v1.7c.7-1.2,2.2-1.8,3.7-1.8s2.1.3,3,1.2l-1,1c-.8-.8-1.3-1-2.4-1Z"/>
        <path class="st2"
              d="M213.8,65.3v-8.3h-1.7v-1h1.7v-4h1.3v4h2.8v1h-2.8v8.3c0,1.3.6,2.1,1.9,2.1h.9v1.2h-1.1c-2,0-3-1.4-3-3.3Z"/>
        <path class="st2"
              d="M230.5,60.8c0-2.4-1.2-3.7-3.5-3.7s-3.5,1.4-3.5,3.7v7.8h-1.3v-18.5h1.3v7.5c.9-1.1,2.2-1.6,3.7-1.6,2.9,0,4.6,1.8,4.6,4.7v8h-1.3v-7.8Z"/>
        <path class="st2"
              d="M245.2,67.1c-.9,1.1-2.2,1.6-3.7,1.6s-2.5-.4-3.3-1.2c-.9-.8-1.3-2-1.3-3.5v-8h1.3v7.8c0,2.4,1.2,3.7,3.5,3.7s3.5-1.4,3.5-3.7v-7.8h1.3v12.5h-1.3v-1.5Z"/>
        <path class="st2"
              d="M256.5,57c-2.2,0-3.4,1.8-3.4,3.8v7.7h-1.3v-12.5h1.3v1.7c.7-1.2,2.2-1.8,3.7-1.8s2.1.3,3,1.2l-1,1c-.8-.8-1.3-1-2.4-1Z"/>
    </g>
</svg>
