<?xml version="1.0" encoding="utf-8"?>
<!-- Generator: Adobe Illustrator 28.3.0, SVG Export Plug-In . SVG Version: 6.00 Build 0)  -->
<svg version="1.1" id="Ebene_1" xmlns="http://www.w3.org/2000/svg" xmlns:xlink="http://www.w3.org/1999/xlink" x="0px" y="0px"
	 viewBox="0 0 189 40.5" style="enable-background:new 0 0 189 40.5;" xml:space="preserve">
<style type="text/css">
	.st0{fill:#737373;}
	.st1{fill:url(#SVGID_1_);}
</style>
<polygon class="st0" points="173.7,7.3 180.3,7.3 180.3,14 "/>
<polygon class="st0" points="183.5,21.7 180.2,25 180.2,31.4 186.7,24.9 "/>
<polygon class="st0" points="167.6,21.7 177,21.7 172.3,26.4 "/>
<polygon class="st0" points="170.4,4 164,4 173.8,13.9 177,10.7 "/>
<polygon class="st0" points="180.3,14 183.5,17.2 183.5,10.8 "/>
<g>
	<path d="M6.5,14.4H11c1.2,0,2.2,0.3,2.9,1c0.6,0.6,0.8,1.3,0.8,2.2v0c0,0.8-0.2,1.4-0.6,1.9c-0.4,0.5-0.9,0.9-1.5,1.1l2.4,3.5h-2.5
		l-2.1-3.1h0H8.7v3.1H6.5V14.4z M10.9,19.1c0.5,0,0.9-0.1,1.2-0.4c0.3-0.3,0.4-0.6,0.4-1v0c0-0.5-0.1-0.8-0.4-1
		c-0.3-0.2-0.7-0.3-1.2-0.3H8.7v2.8H10.9z"/>
	<path d="M22.1,24.4c-0.8,0-1.5-0.1-2.1-0.4c-0.6-0.3-1.2-0.6-1.6-1.1c-0.5-0.5-0.8-1-1.1-1.6c-0.3-0.6-0.4-1.3-0.4-2v0
		c0-0.7,0.1-1.4,0.4-2c0.3-0.6,0.6-1.1,1.1-1.6c0.5-0.5,1-0.8,1.7-1.1c0.6-0.3,1.3-0.4,2.1-0.4c0.8,0,1.5,0.1,2.1,0.4
		c0.6,0.3,1.2,0.6,1.6,1.1c0.5,0.5,0.8,1,1.1,1.6c0.3,0.6,0.4,1.3,0.4,2v0c0,0.7-0.1,1.4-0.4,2c-0.3,0.6-0.6,1.1-1.1,1.6
		c-0.5,0.5-1,0.8-1.7,1.1C23.6,24.2,22.9,24.4,22.1,24.4z M22.1,22.4c0.4,0,0.8-0.1,1.2-0.2c0.4-0.2,0.7-0.4,0.9-0.7
		c0.3-0.3,0.5-0.6,0.6-1c0.1-0.4,0.2-0.8,0.2-1.2v0c0-0.4-0.1-0.8-0.2-1.2c-0.1-0.4-0.3-0.7-0.6-1c-0.3-0.3-0.6-0.5-0.9-0.7
		c-0.4-0.2-0.8-0.2-1.2-0.2c-0.4,0-0.8,0.1-1.2,0.2c-0.4,0.2-0.7,0.4-0.9,0.7c-0.3,0.3-0.5,0.6-0.6,1c-0.1,0.4-0.2,0.8-0.2,1.2v0
		c0,0.4,0.1,0.8,0.2,1.2c0.1,0.4,0.4,0.7,0.6,1c0.3,0.3,0.6,0.5,0.9,0.7C21.3,22.3,21.7,22.4,22.1,22.4z"/>
	<path d="M29.9,14.4h2.2v3.9h4v-3.9h2.2v9.8h-2.2v-3.9h-4v3.9h-2.2V14.4z"/>
	<path d="M41.3,14.4h2l4.6,6v-6H50v9.8h-1.8L43.4,18v6.2h-2.1V14.4z"/>
	<path d="M53,14.4h7.4v1.9h-5.2v2h4.6v1.9h-4.6v2.1h5.3v1.9H53V14.4z"/>
	<path d="M63.1,14.4h4.5c1.2,0,2.2,0.3,2.9,1c0.6,0.6,0.8,1.3,0.8,2.2v0c0,0.8-0.2,1.4-0.6,1.9c-0.4,0.5-0.9,0.9-1.5,1.1l2.4,3.5
		h-2.5L67,21.1h0h-1.7v3.1h-2.2V14.4z M67.5,19.1c0.5,0,0.9-0.1,1.2-0.4c0.3-0.3,0.4-0.6,0.4-1v0c0-0.5-0.1-0.8-0.4-1
		c-0.3-0.2-0.7-0.3-1.2-0.3h-2.1v2.8H67.5z"/>
	<path d="M82.3,24.3c-0.7,0-1.5-0.1-2.2-0.4c-0.7-0.3-1.4-0.7-2-1.2l1.3-1.5c0.4,0.4,0.9,0.7,1.4,0.9c0.5,0.2,1,0.3,1.5,0.3
		c0.4,0,0.8-0.1,1-0.2c0.2-0.2,0.4-0.4,0.4-0.7v0c0-0.1,0-0.3-0.1-0.4c-0.1-0.1-0.1-0.2-0.3-0.3c-0.1-0.1-0.3-0.2-0.6-0.3
		c-0.3-0.1-0.6-0.2-1-0.3c-0.5-0.1-0.9-0.3-1.3-0.4c-0.4-0.1-0.7-0.3-1-0.6c-0.3-0.2-0.5-0.5-0.7-0.8c-0.2-0.3-0.2-0.7-0.2-1.2v0
		c0-0.4,0.1-0.9,0.2-1.2c0.2-0.4,0.4-0.7,0.7-0.9c0.3-0.3,0.7-0.5,1.1-0.6c0.4-0.1,0.9-0.2,1.4-0.2c0.7,0,1.4,0.1,2,0.3
		c0.6,0.2,1.2,0.5,1.7,0.9l-1.1,1.6c-0.4-0.3-0.9-0.5-1.3-0.7c-0.4-0.2-0.8-0.3-1.3-0.3c-0.4,0-0.7,0.1-0.9,0.2
		c-0.2,0.2-0.3,0.4-0.3,0.6v0c0,0.2,0,0.3,0.1,0.4c0.1,0.1,0.2,0.2,0.3,0.3c0.2,0.1,0.4,0.2,0.7,0.3c0.3,0.1,0.6,0.2,1,0.3
		c0.5,0.1,0.9,0.3,1.3,0.4c0.4,0.2,0.7,0.4,1,0.6c0.3,0.2,0.5,0.5,0.6,0.8c0.1,0.3,0.2,0.7,0.2,1.1v0c0,0.5-0.1,0.9-0.3,1.3
		c-0.2,0.4-0.4,0.7-0.7,1c-0.3,0.3-0.7,0.5-1.1,0.6C83.4,24.3,82.9,24.3,82.3,24.3z"/>
	<path d="M88.5,14.4h4c0.6,0,1.1,0.1,1.6,0.2c0.5,0.2,0.9,0.4,1.2,0.7c0.3,0.3,0.6,0.7,0.7,1.1c0.2,0.4,0.3,0.9,0.3,1.4v0
		c0,0.6-0.1,1.1-0.3,1.5c-0.2,0.4-0.5,0.8-0.8,1.1c-0.4,0.3-0.8,0.5-1.3,0.6c-0.5,0.1-1,0.2-1.5,0.2h-1.6v2.9h-2.2V14.4z M92.4,19.3
		c0.5,0,1-0.1,1.3-0.4c0.3-0.3,0.4-0.6,0.4-1.1v0c0-0.5-0.2-0.9-0.5-1.1c-0.3-0.3-0.7-0.4-1.3-0.4h-1.7v3H92.4z"/>
	<path d="M98.6,14.4h2.2v9.8h-2.2V14.4z"/>
	<path d="M104,14.4h2.2v7.9h4.9v1.9h-7V14.4z"/>
	<path d="M113.3,14.4h2.2v7.9h4.9v1.9h-7V14.4z"/>
	<path d="M122.7,14.4h7.4v1.9h-5.2v2h4.6v1.9h-4.6v2.1h5.3v1.9h-7.4V14.4z"/>
	<path d="M132.8,14.4h4.5c1.2,0,2.2,0.3,2.9,1c0.6,0.6,0.8,1.3,0.8,2.2v0c0,0.8-0.2,1.4-0.6,1.9c-0.4,0.5-0.9,0.9-1.5,1.1l2.4,3.5
		h-2.5l-2.1-3.1h0h-1.7v3.1h-2.2V14.4z M137.1,19.1c0.5,0,0.9-0.1,1.2-0.4c0.3-0.3,0.4-0.6,0.4-1v0c0-0.5-0.1-0.8-0.4-1
		c-0.3-0.2-0.7-0.3-1.2-0.3h-2.1v2.8H137.1z"/>
	<path class="st0" d="M6.6,28.7h2.2c0.5,0,0.9,0.1,1.4,0.2c0.4,0.2,0.8,0.4,1.1,0.7c0.3,0.3,0.5,0.6,0.7,1c0.2,0.4,0.2,0.8,0.2,1.2
		v0c0,0.4-0.1,0.9-0.2,1.2c-0.2,0.4-0.4,0.7-0.7,1c-0.3,0.3-0.7,0.5-1.1,0.7C9.7,34.9,9.3,35,8.8,35H6.6V28.7z M8.8,34.3
		c0.4,0,0.8-0.1,1.1-0.2c0.3-0.1,0.6-0.3,0.8-0.5c0.2-0.2,0.4-0.5,0.5-0.8c0.1-0.3,0.2-0.6,0.2-1v0c0-0.3-0.1-0.7-0.2-1
		c-0.1-0.3-0.3-0.6-0.5-0.8c-0.2-0.2-0.5-0.4-0.8-0.5c-0.3-0.1-0.7-0.2-1.1-0.2H7.3v5H8.8z"/>
	<path class="st0" d="M14,28.7h2.7c0.4,0,0.7,0.1,1,0.2c0.3,0.1,0.6,0.3,0.8,0.5c0.2,0.2,0.3,0.3,0.4,0.5c0.1,0.2,0.1,0.4,0.1,0.7v0
		c0,0.3,0,0.5-0.1,0.7c-0.1,0.2-0.2,0.4-0.4,0.5c-0.2,0.2-0.3,0.3-0.5,0.4c-0.2,0.1-0.4,0.2-0.7,0.2l1.9,2.6h-0.9l-1.8-2.4h0h-1.8
		V35H14V28.7z M16.6,31.9c0.2,0,0.5,0,0.6-0.1c0.2-0.1,0.4-0.1,0.5-0.3c0.1-0.1,0.3-0.2,0.3-0.4c0.1-0.2,0.1-0.3,0.1-0.5v0
		c0-0.4-0.1-0.7-0.4-0.9c-0.3-0.2-0.7-0.3-1.2-0.3h-2v2.6H16.6z"/>
	<path class="st0" d="M23.4,35.1c-0.4,0-0.7-0.1-1.1-0.2c-0.3-0.1-0.6-0.3-0.8-0.5c-0.2-0.2-0.4-0.5-0.5-0.9
		c-0.1-0.3-0.2-0.7-0.2-1.2v-3.7h0.7v3.6c0,0.7,0.2,1.2,0.5,1.6c0.3,0.4,0.8,0.6,1.4,0.6c0.6,0,1-0.2,1.4-0.5
		c0.3-0.3,0.5-0.9,0.5-1.6v-3.7H26v3.6c0,0.5-0.1,0.9-0.2,1.2c-0.1,0.3-0.3,0.6-0.5,0.9c-0.2,0.2-0.5,0.4-0.8,0.5
		C24.1,35,23.8,35.1,23.4,35.1z"/>
	<path class="st0" d="M30.9,35.1c-0.5,0-0.9-0.1-1.3-0.3c-0.4-0.2-0.7-0.4-1-0.7c-0.3-0.3-0.5-0.6-0.7-1c-0.2-0.4-0.2-0.8-0.2-1.3v0
		c0-0.4,0.1-0.9,0.2-1.3c0.2-0.4,0.4-0.7,0.7-1c0.3-0.3,0.6-0.5,1-0.7c0.4-0.2,0.8-0.3,1.3-0.3c0.3,0,0.5,0,0.8,0.1
		c0.2,0,0.4,0.1,0.6,0.2c0.2,0.1,0.4,0.2,0.5,0.3c0.2,0.1,0.3,0.3,0.5,0.4l-0.5,0.5c-0.3-0.3-0.6-0.5-0.9-0.6
		c-0.3-0.2-0.7-0.2-1.1-0.2c-0.3,0-0.7,0.1-1,0.2c-0.3,0.1-0.6,0.3-0.8,0.5c-0.2,0.2-0.4,0.5-0.5,0.8c-0.1,0.3-0.2,0.7-0.2,1v0
		c0,0.4,0.1,0.7,0.2,1c0.1,0.3,0.3,0.6,0.5,0.8c0.2,0.2,0.5,0.4,0.8,0.6c0.3,0.1,0.6,0.2,1,0.2c0.4,0,0.8-0.1,1.1-0.2
		c0.3-0.2,0.6-0.4,0.9-0.7l0.5,0.5c-0.2,0.2-0.3,0.3-0.5,0.5c-0.2,0.1-0.4,0.3-0.6,0.3c-0.2,0.1-0.4,0.2-0.7,0.2
		C31.5,35.1,31.2,35.1,30.9,35.1z"/>
	<path class="st0" d="M35,28.7h0.7v3.8l3.6-3.8h0.9l-2.7,2.8l2.8,3.5h-0.9l-2.4-3.1l-1.3,1.4V35H35V28.7z"/>
	<path class="st0" d="M41.9,28.7h4.6v0.6h-3.8v2.2H46v0.6h-3.4v2.2h3.9V35h-4.6V28.7z"/>
	<path class="st0" d="M48.3,28.7h0.7l4,5v-5h0.7V35H53L49,29.8V35h-0.7V28.7z"/>
	<path class="st0" d="M58.8,28.7h0.7l2.3,3.4l2.3-3.4h0.7V35h-0.7v-5.1l-2.3,3.4h0l-2.3-3.4V35h-0.7V28.7z"/>
	<path class="st0" d="M67,28.7h0.7V35H67V28.7z"/>
	<path class="st0" d="M71.6,29.3h-2.1v-0.7h4.9v0.7h-2.1V35h-0.7V29.3z"/>
	<path class="st0" d="M79.2,28.7h4.5v0.7h-3.8v2.3h3.4v0.6h-3.4V35h-0.7V28.7z"/>
	<path class="st0" d="M88.4,35.1c-0.5,0-0.9-0.1-1.3-0.3c-0.4-0.2-0.7-0.4-1-0.7c-0.3-0.3-0.5-0.6-0.7-1c-0.2-0.4-0.2-0.8-0.2-1.2v0
		c0-0.4,0.1-0.8,0.2-1.2c0.2-0.4,0.4-0.7,0.7-1c0.3-0.3,0.6-0.5,1-0.7c0.4-0.2,0.8-0.3,1.3-0.3c0.5,0,0.9,0.1,1.3,0.3
		c0.4,0.2,0.7,0.4,1,0.7c0.3,0.3,0.5,0.6,0.7,1c0.2,0.4,0.2,0.8,0.2,1.2c0,0,0,0,0,0c0,0.4-0.1,0.8-0.2,1.2c-0.2,0.4-0.4,0.7-0.7,1
		c-0.3,0.3-0.6,0.5-1,0.7C89.3,35,88.9,35.1,88.4,35.1z M88.4,34.4c0.4,0,0.7-0.1,1-0.2c0.3-0.1,0.6-0.3,0.8-0.6
		c0.2-0.2,0.4-0.5,0.5-0.8c0.1-0.3,0.2-0.6,0.2-1v0c0-0.4-0.1-0.7-0.2-1c-0.1-0.3-0.3-0.6-0.5-0.8c-0.2-0.2-0.5-0.4-0.8-0.6
		c-0.3-0.1-0.6-0.2-1-0.2c-0.4,0-0.7,0.1-1,0.2c-0.3,0.1-0.6,0.3-0.8,0.6c-0.2,0.2-0.4,0.5-0.5,0.8c-0.1,0.3-0.2,0.6-0.2,1v0
		c0,0.4,0.1,0.7,0.2,1c0.1,0.3,0.3,0.6,0.5,0.8c0.2,0.2,0.5,0.4,0.8,0.6C87.7,34.4,88,34.4,88.4,34.4z"/>
	<path class="st0" d="M93.5,28.7h2.7c0.4,0,0.7,0.1,1,0.2c0.3,0.1,0.6,0.3,0.8,0.5c0.2,0.2,0.3,0.3,0.4,0.5c0.1,0.2,0.1,0.4,0.1,0.7
		v0c0,0.3,0,0.5-0.1,0.7c-0.1,0.2-0.2,0.4-0.4,0.5c-0.2,0.2-0.3,0.3-0.5,0.4c-0.2,0.1-0.4,0.2-0.7,0.2l1.9,2.6h-0.9L96,32.5h0h-1.8
		V35h-0.7V28.7z M96.1,31.9c0.2,0,0.5,0,0.6-0.1c0.2-0.1,0.4-0.1,0.5-0.3c0.1-0.1,0.3-0.2,0.3-0.4c0.1-0.2,0.1-0.3,0.1-0.5v0
		c0-0.4-0.1-0.7-0.4-0.9c-0.3-0.2-0.7-0.3-1.2-0.3h-1.9v2.6H96.1z"/>
	<path class="st0" d="M100.3,28.7h0.7l2.3,3.4l2.3-3.4h0.7V35h-0.7v-5.1l-2.3,3.4h0l-2.3-3.4V35h-0.7V28.7z"/>
	<path class="st0" d="M110.8,28.6h0.7l2.9,6.3h-0.8l-0.7-1.7h-3.4l-0.7,1.7H108L110.8,28.6z M112.6,32.7l-1.4-3.2l-1.4,3.2H112.6z"
		/>
	<path class="st0" d="M117.7,29.3h-2.1v-0.7h4.9v0.7h-2.1V35h-0.7V29.3z"/>
</g>
<linearGradient id="SVGID_1_" gradientUnits="userSpaceOnUse" x1="163.9652" y1="13.8118" x2="177.0033" y2="13.8118">
	<stop  offset="0" style="stop-color:#00A5DB"/>
	<stop  offset="0.2109" style="stop-color:#009AD5"/>
	<stop  offset="0.6733" style="stop-color:#0088CB"/>
	<stop  offset="1" style="stop-color:#0081C7"/>
</linearGradient>
<polygon class="st1" points="170.5,10.5 164,17.1 177,17.1 "/>
</svg>
