<?xml version="1.0" encoding="UTF-8"?>
<svg id="Ebene_1" xmlns="http://www.w3.org/2000/svg" version="1.1" viewBox="0 0 163 49.5">
  <!-- Generator: Adobe Illustrator 29.7.1, SVG Export Plug-In . SVG Version: 2.1.1 Build 8)  -->
  <defs>
    <style>
      .st0 {
        fill: #4a555b;
      }

      .st1 {
        fill: #0093a5;
      }
    </style>
  </defs>
  <g>
    <path class="st0" d="M65.4,27.7h-.7l-.5-1.4h-2.5l-.5,1.4h-.6l2-5.3h.7l2,5.3ZM64,25.9l-1.1-2.8-1,2.8h2.1Z"/>
    <path class="st0" d="M70.1,27.3c-.5.3-1.1.5-1.9.5-1.4,0-2.3-1.1-2.3-2.8s1.2-2.7,2.3-2.7,1.4.4,1.6.6l-.3.5c-.2-.2-.7-.6-1.4-.6-1,0-1.7.9-1.7,2.2s.7,2.3,1.6,2.3,1.1-.2,1.3-.3v-1.6h-1.1v-.5h1.7v2.4Z"/>
    <path class="st0" d="M74.9,27.7h-3.3v-5.3h3.2v.5h-2.6v1.7h2.4v.5h-2.4v1.9h2.7v.5Z"/>
    <path class="st0" d="M80.3,27.7h-.9l-2.5-4.6v4.6h-.6v-5.3h.9l2.5,4.6v-4.6h.6v5.3Z"/>
    <path class="st0" d="M85.5,23h-1.7v4.7h-.6v-4.7h-1.7v-.5h4.1v.5Z"/>
    <path class="st0" d="M90.5,25.7c0,1.7-1.2,2.2-2,2.2s-2-.4-2-2.2v-3.2h.6v3.4c0,.7.4,1.5,1.4,1.5s1.4-.8,1.4-1.5v-3.4h.6v3.2Z"/>
    <path class="st0" d="M95.9,27.7h-.8l-1.1-1.6c-.3-.5-.6-.8-.9-.8h-.4v2.4h-.6v-5.3h1.9c.8,0,1.5.5,1.5,1.4s-.8,1.3-1.6,1.4c.2,0,.5.4.7.7l1.2,1.8ZM93.8,23h-1.1v1.8h.7c1.1,0,1.4-.3,1.4-.9s-.5-.9-1.1-.9Z"/>
    <path class="st0" d="M102.4,23h-2.5v1.8h2.4v.5h-2.4v2.4h-.6v-5.3h3.1v.5Z"/>
    <path class="st0" d="M107.6,25.7c0,1.7-1.2,2.2-2,2.2s-2-.4-2-2.2v-3.2h.6v3.4c0,.7.4,1.5,1.4,1.5s1.4-.8,1.4-1.5v-3.4h.6v3.2ZM104.8,21.8c-.2,0-.3-.2-.3-.4s.1-.4.3-.4.4.2.4.4-.2.4-.4.4ZM106.3,21.8c-.2,0-.4-.2-.4-.4s.2-.4.4-.4.4.2.4.4-.2.4-.4.4Z"/>
    <path class="st0" d="M113,27.7h-.8l-1.1-1.6c-.3-.5-.6-.8-.9-.8h-.4v2.4h-.6v-5.3h1.9c.8,0,1.5.5,1.5,1.4s-.8,1.3-1.6,1.4c.2,0,.5.4.7.7l1.2,1.8ZM110.9,23h-1.1v1.8h.7c1.1,0,1.4-.3,1.4-.9s-.5-.9-1.1-.9Z"/>
    <path class="st0" d="M116.9,27.7h-.6v-5.3h.6v2.4l2.2-2.4h.8l-2.3,2.4,2.6,2.8h-.8l-2.5-2.8v2.8Z"/>
    <path class="st0" d="M123.1,27.8c-1.6,0-2.1-1.4-2.1-2.8s1.1-2.7,2.1-2.7,2.1.7,2.1,2.7-.5,2.8-2.1,2.8ZM123.1,22.9c-1.2,0-1.5,1.2-1.5,2.2s.2,2.3,1.5,2.3,1.5-1.5,1.5-2.3-.2-2.2-1.5-2.2Z"/>
    <path class="st0" d="M130.6,27.7h-.9l-2.5-4.6v4.6h-.6v-5.3h.9l2.5,4.6v-4.6h.6v5.3Z"/>
    <path class="st0" d="M135.7,27.7h-3.8v-.5l3-4.3h-2.8v-.5h3.5v.5l-3,4.3h3v.5Z"/>
    <path class="st0" d="M140.4,27.7h-3.3v-5.3h3.2v.5h-2.6v1.7h2.4v.5h-2.4v1.9h2.7v.5Z"/>
    <path class="st0" d="M143.5,25.3h-1.1v2.4h-.6v-5.3h1.8c.8,0,1.6.4,1.6,1.4s-.8,1.4-1.6,1.4ZM143.4,23h-1v1.8h1.1c.6,0,1.1-.3,1.1-.9s-.5-.9-1.1-.9Z"/>
    <path class="st0" d="M149.8,23h-1.7v4.7h-.6v-4.7h-1.7v-.5h4.1v.5Z"/>
    <path class="st0" d="M151.1,27l-.7,1.7h-.5l.5-1.7h.8Z"/>
    <path class="st0" d="M64.8,32h-1.7v4.7h-.6v-4.7h-1.7v-.5h4.1v.5Z"/>
    <path class="st0" d="M69.2,36.7h-3.3v-5.3h3.2v.5h-2.6v1.7h2.4v.5h-2.4v1.9h2.7v.5Z"/>
    <path class="st0" d="M74.5,36.7h-.8l-1.6-2.4-1.6,2.4h-.7l1.9-2.7-1.8-2.5h.8l1.4,2.2,1.4-2.2h.7l-1.8,2.5,1.9,2.7Z"/>
    <path class="st0" d="M79.1,32h-1.7v4.7h-.6v-4.7h-1.7v-.5h4.1v.5Z"/>
    <path class="st0" d="M86.3,34.7c0,1.7-1.2,2.2-2,2.2s-2-.4-2-2.2v-3.2h.6v3.4c0,.7.4,1.5,1.4,1.5s1.4-.8,1.4-1.5v-3.4h.6v3.2Z"/>
    <path class="st0" d="M91.9,36.7h-.9l-2.5-4.6v4.6h-.6v-5.3h.9l2.5,4.6v-4.6h.6v5.3Z"/>
    <path class="st0" d="M95.1,36.7h-1.4v-5.3h1.4c1.7,0,2.5,1.1,2.5,2.6s-1,2.7-2.5,2.7ZM95.1,32h-.8v4.2h.8c1.3,0,1.9-.7,1.9-2.2s-.6-2.1-1.9-2.1Z"/>
    <path class="st0" d="M102.6,36.7h-1.4v-5.3h1.4c1.7,0,2.5,1.1,2.5,2.6s-1,2.7-2.5,2.7ZM102.6,32h-.8v4.2h.8c1.3,0,1.9-.7,1.9-2.2s-.6-2.1-1.9-2.1Z"/>
    <path class="st0" d="M109.9,36.7h-3.3v-5.3h3.2v.5h-2.6v1.7h2.4v.5h-2.4v1.9h2.7v.5Z"/>
    <path class="st0" d="M112.5,36.8c-.7,0-1.3-.2-1.7-.7l.3-.5c.2.3.6.6,1.4.6s1.1-.5,1.1-.9-.4-.7-.6-.8l-1.3-.6c-.5-.2-.8-.6-.8-1.2,0-.9.9-1.4,1.6-1.4s1.1.1,1.5.6l-.3.5c-.1-.2-.5-.5-1.2-.5s-1,.4-1,.9.4.7.7.8l1,.4c.3.1,1,.5,1,1.4s-.4,1.5-1.8,1.5Z"/>
    <path class="st0" d="M116.4,36.7h-.6v-5.3h.6v5.3Z"/>
    <path class="st0" d="M122,36.3c-.5.3-1.1.5-1.9.5-1.4,0-2.3-1.1-2.3-2.8s1.2-2.7,2.3-2.7,1.4.4,1.6.6l-.3.5c-.2-.2-.7-.6-1.4-.6-1,0-1.7.9-1.7,2.2s.7,2.3,1.6,2.3,1.1-.2,1.3-.3v-1.6h-1.1v-.5h1.7v2.4Z"/>
    <path class="st0" d="M127.5,36.7h-.9l-2.5-4.6v4.6h-.6v-5.3h.9l2.5,4.6v-4.6h.6v5.3Z"/>
  </g>
  <path class="st0" d="M21.7,11.2H6.3v2.7h6.1v15.4h3.4v-15.4h6.1v-2.7ZM43.3,11.2h-4.2l-4.7,12-4.9-12h-4.2l-1.1,18h3.3l.5-13.7,4.7,11.2h3l4.6-11.2.6,13.7h3.4l-1.1-18Z"/>
  <polygon class="st1" points="56.6 22.5 49.8 22.5 46.1 36.8 50.6 36.8 56.6 22.5"/>
</svg>