<?xml version="1.0" encoding="UTF-8"?>
<svg id="Ebene_1" xmlns="http://www.w3.org/2000/svg" version="1.1" viewBox="0 0 283.5 108.3">
    <!-- Generator: Adobe Illustrator 29.5.1, SVG Export Plug-In . SVG Version: 2.1.0 Build 141)  -->
    <defs>
        <style>
            .st0 {
            fill: #fff;
            }

            .st1 {
            fill: #e20e17;
            }

            .st2 {
            fill: #1e1e1c;
            }

            .st3 {
            fill: none;
            stroke: #010101;
            stroke-width: .5px;
            }
        </style>
    </defs>
    <path class="st2" d="M0,66.9H0v36.6S0,108.3,4.8,108.3h273.9s4.8,0,4.8-4.8v-36.6H0Z"/>
    <path class="st0"
          d="M260.1,83.1c1.7,0,2.4.6,2.4,1.6v1.3c0,1-.7,1.6-2.4,1.6h-2.3v-4.5h2.3ZM260.1,89.2h.3l2.1,4.6c.1.2.1.4.4.4h1.1c.3,0,.4-.1.3-.4l-2.2-4.8c1.6-.4,2.2-1.5,2.2-2.6v-1.9c0-1.5-1-2.8-4.2-2.8h-3.7c-.2,0-.3.1-.3.4v11.8c0,.3,0,.4.3.4h1.1c.3,0,.3-.1.3-.4v-4.6h2.3ZM252.9,94.1c.2,0,.3,0,.3-.3v-.8c0-.3-.1-.3-.3-.3h-5v-4.3h4.5c.3,0,.4-.1.4-.3v-.8c0-.3-.1-.3-.4-.3h-4.5v-3.7h4.8c.2,0,.4,0,.4-.3v-.8c0-.3-.1-.4-.4-.4h-6.3c-.2,0-.3.1-.3.4v11.8c0,.3,0,.4.3.4h6.5ZM236.2,82c0-.3,0-.4-.3-.4h-1.1c-.2,0-.3.1-.3.4v9.5c0,1.5,1,2.8,4.2,2.8s4.2-1.3,4.2-2.8v-9.5c0-.3,0-.4-.3-.4h-1.1c-.2,0-.3.1-.3.4v9.2c0,1-.8,1.6-2.4,1.6s-2.4-.6-2.4-1.6v-9.2ZM231.4,94.1c.2,0,.4,0,.4-.3v-.8c0-.3-.1-.3-.4-.3h-5v-4.3h4.5c.3,0,.4-.1.4-.3v-.8c0-.3-.1-.3-.4-.3h-4.5v-3.7h4.8c.2,0,.3,0,.3-.3v-.8c0-.3-.1-.4-.3-.4h-6.3c-.2,0-.3.1-.3.4v11.8c0,.3,0,.4.3.4h6.5ZM214.4,81.6c-.3,0-.4,0-.4.4v.8c0,.3,0,.3.4.3h2.9v10.6c0,.3,0,.4.3.4h1.1c.2,0,.3-.1.3-.4v-10.6h2.9c.2,0,.4,0,.4-.3v-.8c0-.3-.1-.4-.4-.4h-7.7ZM211.9,81.9c0-.2,0-.4-.3-.4h-1c-.2,0-.3.1-.3.4v8.7s-.3-.7-.6-1.2l-4.4-7.8c0,0-.1-.1-.3-.1h-1c-.2,0-.3.1-.3.4v11.8c0,.2,0,.3.3.3h1c.2,0,.3-.1.3-.3v-8.7c0,0,.3.6.7,1.3l4.3,7.6c0,.1.1.2.3.2h1c.3,0,.3-.1.3-.3v-11.8ZM200.4,94.1c.2,0,.3,0,.3-.3v-.8c0-.3-.1-.3-.3-.3h-5v-4.3h4.5c.3,0,.4-.1.4-.3v-.8c0-.3-.1-.3-.4-.3h-4.5v-3.7h4.8c.2,0,.4,0,.4-.3v-.8c0-.3-.1-.4-.4-.4h-6.3c-.2,0-.3.1-.3.4v11.8c0,.3,0,.4.3.4h6.5ZM186,83.1c1.7,0,2.4.4,2.4,1.5v.8c0,1-.7,1.6-2.3,1.6h-1.9v-3.9h1.8ZM186.5,88.4c1.7,0,2.4.6,2.4,1.5v1.1c0,1-.7,1.6-2.4,1.6h-2.3v-4.2h2.3ZM186.5,94.1c3.2,0,4.2-1.3,4.2-2.8v-1.6c0-1.1-.7-1.9-2.1-2.2,1.1-.4,1.5-1.2,1.5-2.1v-1.2c0-1.5-1-2.7-4.2-2.7h-3.3c-.2,0-.3.1-.3.4v11.8c0,.3,0,.4.3.4h3.8ZM177,89.5h-3.1l1.1-3.4c.2-.8.5-2.5.5-2.7,0,.2.3,2,.5,2.7l1,3.4ZM175,81.6c-.2,0-.4.1-.4.4l-3.6,11.8c0,.2,0,.3.3.3h1.1c.2,0,.3-.1.4-.3l.8-2.9h3.9l.9,2.9c0,.2.2.3.4.3h1.2c.3,0,.4-.1.3-.3l-3.6-11.8c0-.2-.2-.4-.4-.4h-1.1ZM160.6,83.1c1.7,0,2.4.6,2.4,1.6v1.3c0,1-.7,1.6-2.4,1.6h-2.3v-4.5h2.3ZM160.6,89.2h.3l2.1,4.6c.1.2.1.4.4.4h1.1c.3,0,.4-.1.3-.4l-2.2-4.8c1.6-.4,2.2-1.5,2.2-2.6v-1.9c0-1.5-1-2.8-4.2-2.8h-3.7c-.2,0-.3.1-.3.4v11.8c0,.3,0,.4.3.4h1.1c.3,0,.3-.1.3-.4v-4.6h2.3ZM150.8,78.4c0-.3,0-.4-.3-.4h-.6c-.2,0-.3.1-.3.4v1.8c0,.3,0,.3.3.3h.6c.2,0,.3,0,.3-.3v-1.8ZM148.6,78.4c0-.3,0-.4-.3-.4h-.6c-.2,0-.3.1-.3.4v1.8c0,.3,0,.3.3.3h.6c.3,0,.3,0,.3-.3v-1.8ZM146.6,82c0-.3,0-.4-.3-.4h-1.1c-.2,0-.3.1-.3.4v9.5c0,1.5,1,2.8,4.2,2.8s4.2-1.3,4.2-2.8v-9.5c0-.3,0-.4-.3-.4h-1.1c-.2,0-.3.1-.3.4v9.2c0,1-.8,1.6-2.4,1.6s-2.4-.6-2.4-1.6v-9.2ZM135.3,81.6c-.2,0-.3.1-.3.4v11.8c0,.3,0,.4.3.4h1.1c.3,0,.3-.1.3-.4v-5.3h5c.3,0,.4-.1.4-.4v-.8c0-.3,0-.4-.4-.4h-5v-3.7h5.3c.2,0,.4,0,.4-.3v-.8c0-.3-.1-.4-.4-.4h-6.8ZM123.7,87.9c-.2,0-.4,0-.4.3v.8c0,.3.1.3.4.3h2.2v1.8c0,1-.7,1.6-2.3,1.6s-2.3-.6-2.3-1.6v-6.6c0-1,.6-1.6,2.3-1.6s2.3.6,2.3,1.6v.5c0,.2,0,.4.4.4h1.1c.2,0,.3-.1.3-.4v-.8c0-1.5-.9-2.8-4.1-2.8s-4.1,1.3-4.1,2.8v7.2c0,1.5.9,2.8,4.1,2.8s4.1-1.3,4.1-2.8v-3.2c0-.2-.1-.3-.3-.3h-3.6ZM116.3,81.9c0-.2,0-.4-.3-.4h-1c-.2,0-.3.1-.3.4v8.7s-.3-.7-.6-1.2l-4.4-7.8c0,0-.1-.1-.3-.1h-1c-.2,0-.3.1-.3.4v11.8c0,.2,0,.3.3.3h1c.2,0,.3-.1.3-.3v-8.7c0,0,.3.6.7,1.3l4.3,7.6c0,.1.1.2.3.2h1c.3,0,.3-.1.3-.3v-11.8ZM98.1,82c0-.3,0-.4-.3-.4h-1.1c-.2,0-.3.1-.3.4v9.5c0,1.5,1,2.8,4.2,2.8s4.2-1.3,4.2-2.8v-9.5c0-.3,0-.4-.3-.4h-1.1c-.2,0-.3.1-.3.4v9.2c0,1-.8,1.6-2.4,1.6s-2.4-.6-2.4-1.6v-9.2ZM86.2,81.6c-.3,0-.4,0-.4.4v.8c0,.3,0,.3.4.3h2.9v10.6c0,.3,0,.4.3.4h1.1c.2,0,.3-.1.3-.4v-10.6h2.9c.2,0,.4,0,.4-.3v-.8c0-.3-.1-.4-.4-.4h-7.7ZM82.4,85.1c0,.2,0,.4.3.4h1.1c.2,0,.3-.1.3-.4v-.8c0-1.5-1-2.8-4-2.8s-4,1.3-4,2.8v1.1c0,1.1.8,2,1.6,2.3l3.1,1.2c.7.3,1.5.6,1.5,1.5v.9c0,1-.7,1.6-2.4,1.6s-2.4-.6-2.4-1.6v-.8c0-.3,0-.4-.3-.4h-1.1c-.2,0-.4.1-.4.4v1.1c0,1.5,1.1,2.8,4.1,2.8s4.1-1.3,4.1-2.8v-1.5c0-1.4-.9-2.1-2-2.5l-3.4-1.3c-.4-.1-.9-.4-.9-1.2v-.4c0-1,.6-1.6,2.2-1.6s2.2.6,2.2,1.6v.6ZM70.6,78.4c0-.3,0-.4-.3-.4h-.6c-.2,0-.3.1-.3.4v1.8c0,.3,0,.3.3.3h.6c.2,0,.3,0,.3-.3v-1.8ZM68.4,78.4c0-.3,0-.4-.3-.4h-.6c-.2,0-.3.1-.3.4v1.8c0,.3,0,.3.3.3h.6c.3,0,.3,0,.3-.3v-1.8ZM66.5,82c0-.3,0-.4-.3-.4h-1.1c-.2,0-.3.1-.3.4v9.5c0,1.5,1,2.8,4.2,2.8s4.2-1.3,4.2-2.8v-9.5c0-.3,0-.4-.3-.4h-1.1c-.2,0-.3.1-.3.4v9.2c0,1-.8,1.6-2.4,1.6s-2.4-.6-2.4-1.6v-9.2ZM57.5,83.1c1.7,0,2.4.6,2.4,1.6v1.3c0,1-.7,1.6-2.4,1.6h-2.3v-4.5h2.3ZM57.5,89.2h.3l2.1,4.6c.1.2.1.4.4.4h1.1c.3,0,.4-.1.3-.4l-2.2-4.8c1.6-.4,2.2-1.5,2.2-2.6v-1.9c0-1.5-1-2.8-4.2-2.8h-3.7c-.2,0-.3.1-.3.4v11.8c0,.3,0,.4.3.4h1.1c.3,0,.3-.1.3-.4v-4.6h2.3ZM48.7,85.1c0,.2,0,.4.3.4h1.1c.2,0,.3-.1.3-.4v-.8c0-1.5-1-2.8-4-2.8s-4,1.3-4,2.8v1.1c0,1.1.8,2,1.6,2.3l3.1,1.2c.7.3,1.5.6,1.5,1.5v.9c0,1-.7,1.6-2.4,1.6s-2.4-.6-2.4-1.6v-.8c0-.3,0-.4-.3-.4h-1.1c-.2,0-.4.1-.4.4v1.1c0,1.5,1.1,2.8,4.1,2.8s4.1-1.3,4.1-2.8v-1.5c0-1.4-.9-2.1-2-2.5l-3.4-1.3c-.4-.1-.9-.4-.9-1.2v-.4c0-1,.6-1.6,2.2-1.6s2.2.6,2.2,1.6v.6ZM32.8,82c0-.3,0-.4-.3-.4h-1.1c-.2,0-.4.1-.4.4v9.5c0,1.5,1,2.8,4.2,2.8s4.2-1.3,4.2-2.8v-9.5c0-.3,0-.4-.3-.4h-1.1c-.2,0-.3.1-.3.4v9.2c0,1-.8,1.6-2.4,1.6s-2.4-.6-2.4-1.6v-9.2ZM25.9,89.5h-3.1l1-3.4c.2-.8.5-2.5.5-2.7,0,.2.3,2,.5,2.7l1,3.4ZM23.8,81.6c-.2,0-.4.1-.4.4l-3.6,11.8c0,.2,0,.3.3.3h1.1c.2,0,.3-.1.4-.3l.8-2.9h3.9l.9,2.9c0,.2.2.3.4.3h1.2c.3,0,.4-.1.3-.3l-3.6-11.8c0-.2-.2-.4-.4-.4h-1.1Z"/>
    <path class="st0"
          d="M277.7,0H6.1C-.2,0,0,3.5,0,5.8v61.1h27.6l8.3,10.3,8.3-10.3h239.2V5.4C283.5,1.7,282.1,0,277.7,0Z"/>
    <path class="st1"
          d="M265.6,18.3c-2.8-1.8-7-2.9-10.5-2.9-7,0-12.9,4.7-14,11.8-1.1,6.8,2.4,8.3,7.9,9.9,1.9.6,5.3,1.4,4.9,4-.4,2.5-2.8,3.5-5,3.5-3.1,0-5.5-1.6-7.6-3.6l-5.1,7.4c3.2,2.5,7.3,4,11.8,4s7.4-1,10.5-3.3c3.2-2.4,4.6-6,5.1-9.5.9-5.7-2.5-8.2-7.1-9.6l-2.2-.7c-1.5-.5-3.8-1.3-3.5-3.4.3-2,2.7-2.9,4.4-2.9s4.2.9,5.7,2.3l4.8-7.1ZM228,16.4l-2.9,18.5c-.7,4.6-1.9,9.6-7.7,9.6s-5.4-5-4.7-9.6l2.9-18.5h-9.1l-3.1,19.8c-.7,4.5-1.2,9,1.7,12.4,2.5,2.9,6.9,3.9,11.1,3.9s8.9-1,12.3-3.9c4.1-3.4,4.9-7.9,5.6-12.4l3.1-19.8h-9.1ZM192.7,16.4h-9.1l-5.5,35.2h20.1l1.2-7.7h-11l4.3-27.4ZM160.7,23.7h1.5c3.5,0,6.6,0,5.9,4.5-.7,4.3-3.9,4.3-7.2,4.3h-1.5l1.4-8.8ZM147.2,51.5h9.1l1.9-11.7h5.2c8,0,13-3.6,14.3-11.9,1.3-8.1-3.4-11.6-11-11.6h-14l-5.5,35.2Z"/>
    <path class="st2"
          d="M123.5,24c5.5,0,9.9,4.4,9.9,9.3s-4.5,10.5-9.9,10.5-9.9-4.4-9.9-10.5,4.5-9.3,9.9-9.3M123.5,15.2c-10.1,0-19.4,7.5-19.4,18.1s8.2,19.4,19.4,19.4,19.4-8,19.4-19.4-9.3-18.1-19.4-18.1M91.9,16.4h-9.1v35.2h20.1v-7.7h-11v-27.4ZM77.1,24.1v-7.7h-20v35.2h20v-7.7h-10.9v-6.1h10.3v-7.7h-10.3v-5.9h10.9ZM27.9,16.4h-9.9l14.8,35.2h7.1l15-35.2h-9.9l-8.5,21.4-8.5-21.4Z"/>
    <path class="st3"
          d="M4.8.3C4.6.3.3.3.3,4.8v98.7c0,.2,0,4.5,4.5,4.5h273.9c.2,0,4.5,0,4.5-4.5V4.8c0-.2,0-4.5-4.5-4.5H4.8Z"/>
</svg>
