<?xml version="1.0" encoding="UTF-8"?><svg id="a" xmlns="http://www.w3.org/2000/svg" viewBox="0 0 117.33 25.51"><path d="M35.9,2.1C35.9,1,36.8,0,38,0s2.1,1,2.1,2.1-1,2.1-2.1,2.1c-1.2.1-2.1-.9-2.1-2.1ZM14.6,14.3c0,3.6-2.7,5.7-6.9,5.7H0V.5h7.3c4.1,0,6.6,1.8,6.6,5.2,0,1.8-1,3.2-2.7,4.1,2.2.8,3.4,2.3,3.4,4.5ZM3.8,8.3h3.2c2,0,3.1-.9,3.1-2.3s-1.1-2.3-3.1-2.3h-3.2s0,4.6,0,4.6ZM10.7,14.1c0-1.5-1.2-2.5-3.4-2.5h-3.5v5.2h3.6c2.1-.1,3.3-1,3.3-2.7ZM20.6,8.3v-2.8h-3.5v14.5h3.9v-7c0-3.2,2.1-4,5.4-3.7v-4c-2.5,0-4.7,1.1-5.8,3ZM37.5,13.9c0,1.9-1.3,3-2.7,3-1.5,0-2.5-.9-2.5-2.9V5.5h-3.8v9.2c0,3.8,2.1,5.6,5,5.6,1.8,0,3.5-.9,4.2-2.2v1.9h3.5V5.5h-3.8v8.4h.1ZM52.7,5.2c-1.9,0-3.2.9-4.1,2.2V1.2h-3.8v18.8h3.8v-7.9c0-2.3,1.3-3.5,2.8-3.5,1.7,0,2.6,1.2,2.6,3.4v8h3.7v-9.4c-.1-3.5-2.1-5.4-5-5.4ZM79.8,5.5h3.4v13.8c0,3.8-2.6,6.2-6.9,6.2-3.9,0-6.5-2.1-6.7-5.5h3.7c.2,1.7,1.2,2.5,3,2.5,2.1,0,3.2-1.1,3.2-3.2v-2.1c-.8,1.4-2.3,2.2-4,2.2-3.6,0-6.2-2.9-6.2-7.1s2.5-7.1,6.1-7.1c1.9,0,3.4.8,4.5,2.3v-2h-.1ZM79.4,12.3c0-2.4-1.3-3.9-3.3-3.9s-3.2,1.5-3.2,3.8,1.3,3.8,3.2,3.8c2.1.2,3.3-1.3,3.3-3.7ZM95.2,13.8c0,1.9-1.3,3-2.7,3-1.5.1-2.5-.8-2.5-2.9V5.5h-3.8v9.2c0,3.8,2.1,5.5,5,5.5,1.8,0,3.5-.9,4.2-2.2v2h3.5V5.5h-3.8v8.3h.1ZM106.1,1.2h-3.8v14.1c0,3.3,1.9,5,4.9,5,1.1,0,2-.2,2.9-.7v-3.3c-.5.3-1.2.5-1.9.5-1.3,0-2.1-.7-2.1-2.4v-5.7h4.1v-3.2h-4.1V1.2ZM66.2,16.9c-1.3,0-2.1-.7-2.1-2.4V1.2h-3.8v14.2c.5,3.3,2.4,5,5.4,5,.8,0,1.5-.1,2.1-.3l-.5-3.3c-.3,0-.7.1-1.1.1ZM115.2,15.9c-1.2,0-2.1,1-2.1,2.1,0,1.2,1,2.1,2.1,2.1,1.2,0,2.1-1,2.1-2.1s-1-2.1-2.1-2.1ZM32,4.3c1.2,0,2.1-1,2.1-2.1S33.2,0,32,0s-2.1,1-2.1,2.1.9,2.2,2.1,2.2Z" style="fill:#f8fafc; stroke-width:0px;"/></svg>