<?xml version="1.0" encoding="UTF-8"?>
<svg xmlns="http://www.w3.org/2000/svg" viewBox="0 0 107.84 50.73">
  <g style="isolation: isolate;">
    <g id="Ebene_1" data-name="Ebene 1">
      <g>
        <g>
          <path d="M57.92,23.73v-.99h.79v.99h-.79ZM57.92,29.31v-4.7h.79v4.7h-.79Z" style="fill: #f9fbfc; stroke-width: 0px;"/>
          <path d="M64.2,29.31h-.79v-2.63c0-.5-.08-.87-.23-1.1-.15-.23-.39-.34-.7-.34-.16,0-.32.03-.49.09-.16.06-.32.15-.46.26-.14.11-.27.24-.38.39-.11.15-.19.32-.24.5v2.83h-.79v-4.7h.72v1.01c.19-.33.46-.59.81-.79.35-.2.73-.3,1.15-.3.27,0,.5.05.67.15.18.1.32.24.43.41.11.18.18.39.23.63s.07.5.07.78v2.81Z" style="fill: #f9fbfc; stroke-width: 0px;"/>
          <path d="M67.22,29.4c-.38,0-.75-.06-1.12-.18-.37-.12-.68-.29-.95-.51l.34-.53c.28.21.55.37.83.47.28.1.57.16.87.16.34,0,.61-.07.81-.2s.3-.33.3-.57c0-.11-.03-.21-.08-.29-.05-.08-.13-.15-.24-.21-.11-.06-.25-.11-.41-.16-.17-.05-.36-.1-.59-.15-.28-.07-.52-.14-.73-.21s-.37-.14-.5-.23c-.13-.09-.23-.2-.29-.32s-.09-.28-.09-.47c0-.23.05-.44.14-.62.09-.18.22-.34.38-.46.16-.12.35-.22.57-.28.22-.06.46-.09.71-.09.35,0,.68.06.99.17.31.11.56.26.77.45l-.36.48c-.2-.17-.42-.3-.67-.39s-.5-.13-.76-.13c-.29,0-.53.06-.73.18s-.3.32-.3.59c0,.11.02.2.06.27s.1.13.19.19c.09.05.21.1.35.14.14.04.31.09.51.13.31.07.58.15.81.22.23.08.42.16.58.27.15.1.27.22.34.36.07.14.11.31.11.5,0,.44-.17.79-.5,1.04s-.79.39-1.36.39Z" style="fill: #f9fbfc; stroke-width: 0px;"/>
          <path d="M72.58,29.08s-.11.05-.19.09-.17.07-.27.1c-.1.03-.21.06-.32.08-.12.02-.24.03-.36.03-.29,0-.54-.08-.75-.24-.21-.16-.31-.41-.31-.74v-3.16h-.64v-.62h.64v-1.57h.79v1.57h1.05v.62h-1.05v2.92c.01.17.07.3.17.38s.22.12.36.12c.16,0,.3-.03.43-.08s.22-.09.27-.12l.19.63Z" style="fill: #f9fbfc; stroke-width: 0px;"/>
          <path d="M73.45,23.73v-.99h.79v.99h-.79ZM73.45,29.31v-4.7h.79v4.7h-.79Z" style="fill: #f9fbfc; stroke-width: 0px;"/>
          <path d="M78.09,29.08s-.11.05-.19.09-.17.07-.27.1c-.1.03-.21.06-.32.08-.12.02-.24.03-.36.03-.29,0-.54-.08-.75-.24-.21-.16-.31-.41-.31-.74v-3.16h-.64v-.62h.64v-1.57h.79v1.57h1.05v.62h-1.05v2.92c.01.17.07.3.17.38s.22.12.36.12c.16,0,.3-.03.43-.08s.22-.09.27-.12l.19.63Z" style="fill: #f9fbfc; stroke-width: 0px;"/>
          <path d="M80.41,29.4c-.49,0-.86-.17-1.12-.5s-.38-.82-.38-1.48v-2.82h.79v2.66c0,.96.33,1.44,1,1.44.32,0,.63-.1.91-.31.29-.21.5-.49.63-.85v-2.94h.79v3.73c0,.19.08.28.25.29v.68c-.09.01-.16.02-.21.02-.05,0-.1,0-.15,0-.16,0-.29-.05-.39-.14s-.16-.21-.17-.35l-.02-.55c-.21.35-.49.62-.83.81-.34.19-.72.28-1.12.28Z" style="fill: #f9fbfc; stroke-width: 0px;"/>
          <path d="M86.93,29.08s-.11.05-.19.09-.17.07-.27.1c-.1.03-.21.06-.32.08-.12.02-.24.03-.37.03-.29,0-.54-.08-.75-.24-.21-.16-.32-.41-.32-.74v-3.16h-.64v-.62h.64v-1.57h.79v1.57h1.05v.62h-1.05v2.92c.01.17.07.3.17.38.1.08.22.12.36.12.16,0,.3-.03.43-.08.13-.05.22-.09.27-.12l.19.63Z" style="fill: #f9fbfc; stroke-width: 0px;"/>
          <path d="M61.23,40.11l-1.62-2.3-.9.85v1.45h-.79v-6.57h.79v4.32l2.41-2.44h.87l-1.87,1.94,1.96,2.75h-.86Z" style="fill: #f9fbfc; stroke-width: 0px;"/>
          <path d="M62.91,34.53v-.99h.79v.99h-.79ZM62.91,40.11v-4.7h.79v4.7h-.79Z" style="fill: #f9fbfc; stroke-width: 0px;"/>
          <path d="M69.19,40.11h-.79v-2.63c0-.5-.08-.87-.23-1.1-.15-.23-.39-.34-.7-.34-.16,0-.32.03-.49.09-.16.06-.32.15-.46.26-.14.11-.27.24-.38.39-.11.15-.19.32-.24.5v2.84h-.79v-4.7h.72v1.01c.19-.33.45-.59.8-.79.35-.2.73-.3,1.15-.3.27,0,.49.05.67.15.18.1.32.24.43.41.11.18.18.39.23.63s.07.5.07.78v2.81Z" style="fill: #f9fbfc; stroke-width: 0px;"/>
          <path d="M72.49,40.2c-.32,0-.62-.07-.9-.2-.28-.13-.51-.31-.71-.53-.2-.22-.35-.48-.46-.77-.11-.29-.17-.6-.17-.93s.05-.64.16-.94c.1-.3.25-.56.44-.78.19-.22.41-.4.67-.53.26-.13.55-.19.86-.19.38,0,.72.1,1.01.3.3.2.53.44.71.72v-2.81h.79v5.6c0,.19.08.28.25.29v.68c-.08.01-.15.02-.2.03-.05,0-.1,0-.15,0-.16,0-.29-.05-.41-.16-.12-.11-.17-.23-.17-.37v-.4c-.19.31-.43.54-.74.72-.31.17-.63.26-.98.26ZM72.68,39.52c.14,0,.29-.03.45-.08s.3-.13.43-.23c.13-.1.25-.21.35-.34s.16-.27.19-.41v-1.35c-.05-.15-.14-.29-.24-.43-.11-.13-.23-.25-.36-.35-.14-.1-.28-.18-.43-.23-.15-.06-.3-.08-.45-.08-.23,0-.45.05-.63.15-.19.1-.35.23-.49.4s-.24.35-.31.57-.11.43-.11.65c0,.23.04.46.13.67s.2.4.34.55c.14.16.31.28.51.37s.41.14.63.14Z" style="fill: #f9fbfc; stroke-width: 0px;"/>
          <path d="M78.43,40.2c-.35,0-.68-.06-.97-.19-.29-.13-.54-.31-.76-.53-.21-.22-.37-.48-.49-.78s-.18-.61-.18-.94.06-.64.18-.94.28-.55.5-.77c.21-.22.47-.4.76-.53.29-.13.62-.19.97-.19s.68.07.97.2.54.31.74.53c.2.22.36.47.47.77s.17.59.17.9c0,.07,0,.13,0,.18,0,.05,0,.1-.01.13h-3.9c.02.23.07.45.16.64.09.19.21.36.35.5.14.14.31.25.49.32s.38.12.58.12c.14,0,.28-.02.42-.06.14-.04.27-.09.39-.16.12-.07.23-.15.32-.24.09-.1.16-.2.21-.32l.68.19c-.08.17-.18.33-.32.48-.13.14-.29.27-.47.37-.18.1-.37.19-.59.25s-.44.09-.67.09ZM80.04,37.45c-.02-.22-.07-.43-.17-.62-.09-.19-.21-.35-.35-.48-.14-.13-.3-.24-.49-.31s-.38-.11-.59-.11-.41.04-.59.11c-.19.08-.35.18-.49.31-.14.14-.25.3-.34.48-.09.19-.14.39-.16.61h3.19Z" style="fill: #f9fbfc; stroke-width: 0px;"/>
          <path d="M84.29,36.1c-.4.01-.75.11-1.05.31-.3.19-.52.46-.64.8v2.9h-.79v-4.7h.74v1.09c.16-.32.38-.59.64-.79s.55-.31.85-.34h.15s.08,0,.11,0v.72Z" style="fill: #f9fbfc; stroke-width: 0px;"/>
          <path d="M86.85,40.2c-.38,0-.75-.06-1.12-.18-.37-.12-.68-.29-.94-.51l.34-.53c.28.21.55.37.83.47.28.1.57.16.87.16.34,0,.61-.07.81-.2s.3-.33.3-.57c0-.11-.03-.21-.08-.29-.05-.08-.14-.15-.24-.21-.11-.06-.25-.11-.41-.16-.17-.05-.36-.1-.58-.15-.28-.07-.53-.14-.73-.21s-.37-.14-.5-.23-.23-.2-.29-.32-.09-.28-.09-.47c0-.23.05-.44.14-.62.09-.18.22-.34.38-.46s.35-.22.57-.28c.22-.06.45-.09.71-.09.35,0,.68.06.99.17.31.11.56.26.77.45l-.36.48c-.2-.17-.42-.3-.67-.39s-.5-.13-.76-.13c-.29,0-.53.06-.73.18-.2.12-.3.32-.3.59,0,.11.02.2.06.27s.1.13.19.19c.09.05.21.1.35.14.14.04.31.09.51.13.31.07.58.15.81.22.23.08.42.16.58.27.15.1.27.22.34.36.08.14.11.31.11.5,0,.44-.17.79-.5,1.04-.34.26-.79.39-1.36.39Z" style="fill: #f9fbfc; stroke-width: 0px;"/>
          <path d="M91.87,40.2c-.35,0-.68-.06-.97-.19s-.55-.31-.76-.53c-.21-.22-.37-.48-.49-.78s-.18-.61-.18-.94.06-.64.18-.94.28-.55.49-.77c.21-.22.47-.4.76-.53.29-.13.62-.19.97-.19s.68.07.97.2.54.31.74.53c.2.22.36.47.47.77.11.29.17.59.17.9,0,.07,0,.13,0,.18s0,.1-.01.13h-3.9c.02.23.07.45.16.64.09.19.21.36.35.5.14.14.31.25.49.32.18.08.38.12.58.12.14,0,.28-.02.42-.06s.27-.09.39-.16c.12-.07.23-.15.32-.24.09-.1.16-.2.21-.32l.68.19c-.08.17-.18.33-.32.48-.14.14-.29.27-.47.37-.18.1-.37.19-.59.25-.22.06-.44.09-.67.09ZM93.48,37.45c-.02-.22-.07-.43-.17-.62-.09-.19-.21-.35-.35-.48s-.3-.24-.49-.31c-.19-.08-.38-.11-.59-.11s-.41.04-.59.11-.35.18-.49.31c-.14.14-.26.3-.34.48-.09.19-.14.39-.16.61h3.19Z" style="fill: #f9fbfc; stroke-width: 0px;"/>
          <path d="M97.32,40.2c-.35,0-.68-.06-.97-.19-.29-.13-.54-.31-.76-.53-.21-.22-.37-.48-.49-.78s-.18-.61-.18-.94.06-.64.18-.94.28-.55.5-.77c.21-.22.47-.4.76-.53.29-.13.62-.19.97-.19s.68.07.97.2.54.31.74.53c.2.22.36.47.47.77s.17.59.17.9c0,.07,0,.13,0,.18,0,.05,0,.1-.01.13h-3.9c.02.23.07.45.16.64.09.19.21.36.35.5.14.14.31.25.49.32s.38.12.58.12c.14,0,.28-.02.42-.06.14-.04.27-.09.39-.16.12-.07.23-.15.32-.24.09-.1.16-.2.21-.32l.68.19c-.08.17-.18.33-.32.48-.13.14-.29.27-.47.37-.18.1-.37.19-.59.25s-.44.09-.67.09ZM98.93,37.45c-.02-.22-.07-.43-.17-.62-.09-.19-.21-.35-.35-.48-.14-.13-.3-.24-.49-.31s-.38-.11-.59-.11-.41.04-.59.11c-.19.08-.35.18-.49.31-.14.14-.25.3-.34.48-.09.19-.14.39-.16.61h3.19Z" style="fill: #f9fbfc; stroke-width: 0px;"/>
          <path d="M100.71,33.54h.79v5.36c0,.17.05.31.14.41.09.1.22.15.39.15.07,0,.14,0,.23-.03.09-.02.17-.05.25-.08l.13.64c-.13.05-.29.1-.47.13-.18.04-.34.05-.48.05-.31,0-.55-.09-.72-.26-.18-.17-.27-.42-.27-.73v-5.64Z" style="fill: #f9fbfc; stroke-width: 0px;"/>
          <path d="M105.48,40.2c-.35,0-.68-.06-.97-.19-.29-.13-.55-.31-.76-.53-.21-.22-.37-.48-.49-.78s-.17-.61-.17-.94.06-.64.17-.94.28-.55.5-.77c.21-.22.47-.4.76-.53.29-.13.62-.19.97-.19s.68.07.97.2.54.31.74.53c.2.22.36.47.47.77.11.29.17.59.17.9,0,.07,0,.13,0,.18,0,.05,0,.1-.01.13h-3.9c.02.23.07.45.16.64.09.19.21.36.35.5.14.14.31.25.49.32s.38.12.58.12c.14,0,.29-.02.42-.06.14-.04.27-.09.39-.16.12-.07.23-.15.32-.24s.16-.2.21-.32l.68.19c-.08.17-.18.33-.32.48-.14.14-.29.27-.47.37-.18.1-.37.19-.59.25-.22.06-.44.09-.68.09ZM107.09,37.45c-.02-.22-.07-.43-.17-.62-.09-.19-.21-.35-.35-.48-.14-.13-.3-.24-.49-.31s-.38-.11-.59-.11-.41.04-.59.11c-.19.08-.35.18-.49.31-.14.14-.26.3-.34.48-.09.19-.14.39-.16.61h3.19Z" style="fill: #f9fbfc; stroke-width: 0px;"/>
          <path d="M59.57,50.6c-.38,0-.75-.06-1.12-.18-.37-.12-.68-.29-.94-.51l.34-.53c.28.21.55.37.83.47.28.1.57.16.87.16.34,0,.61-.07.81-.2s.3-.33.3-.57c0-.11-.03-.21-.08-.29s-.14-.15-.24-.21c-.11-.06-.25-.11-.41-.16-.17-.05-.36-.1-.58-.15-.28-.07-.52-.14-.73-.21-.2-.07-.37-.14-.5-.23-.13-.09-.23-.2-.29-.32-.06-.13-.09-.28-.09-.47,0-.23.05-.44.14-.62.09-.18.22-.34.38-.46s.35-.22.57-.28c.22-.06.45-.09.71-.09.35,0,.68.06.99.17.31.11.56.26.77.45l-.36.48c-.2-.17-.42-.3-.67-.39s-.5-.13-.76-.13c-.29,0-.53.06-.73.18-.2.12-.3.32-.3.59,0,.11.02.2.06.27s.1.13.19.19c.09.05.21.1.35.14s.31.09.51.13c.31.07.58.15.81.22s.42.16.58.27c.15.1.27.22.34.36.07.14.11.31.11.5,0,.44-.17.79-.5,1.04s-.79.39-1.36.39Z" style="fill: #f9fbfc; stroke-width: 0px;"/>
          <path d="M62.19,48.15c0-.33.06-.64.17-.94.11-.29.28-.55.49-.77s.46-.39.75-.52c.29-.13.62-.19.98-.19.47,0,.87.1,1.21.31s.6.48.77.83l-.77.24c-.12-.22-.29-.39-.5-.52-.22-.12-.46-.18-.72-.18-.22,0-.42.04-.61.13-.19.09-.36.21-.49.37-.14.16-.25.34-.33.55s-.12.44-.12.69.04.48.13.69.2.4.34.56c.14.16.3.28.49.37.19.09.39.13.61.13.14,0,.28-.02.41-.06s.26-.09.37-.16c.11-.07.21-.14.29-.23s.14-.18.18-.28l.77.23c-.07.17-.17.33-.3.48-.13.14-.28.27-.45.37-.17.1-.37.18-.58.24-.21.06-.44.09-.67.09-.35,0-.68-.07-.97-.2-.29-.13-.55-.31-.76-.53-.21-.22-.37-.48-.49-.78-.12-.3-.17-.61-.17-.94Z" style="fill: #f9fbfc; stroke-width: 0px;"/>
          <path d="M71.7,50.51h-.79v-2.63c0-.49-.08-.85-.25-1.08-.17-.24-.41-.36-.74-.36-.16,0-.31.03-.47.09-.16.06-.3.15-.44.26-.13.11-.25.24-.36.39-.1.15-.18.32-.24.5v2.83h-.79v-6.57h.79v2.88c.19-.34.44-.61.76-.8.32-.19.67-.29,1.04-.29.28,0,.51.05.7.15.19.1.35.24.46.41.11.17.2.38.25.62.05.24.08.5.08.78v2.81Z" style="fill: #f9fbfc; stroke-width: 0px;"/>
          <path d="M78.95,45.81h.77l-2,4.7h-.66l-.94-2.29-.94,2.29h-.66l-2-4.7h.76l1.62,3.92.79-1.95-.81-1.95h.66l.58,1.5.58-1.5h.66l-.8,1.95.79,1.95,1.61-3.92Z" style="fill: #f9fbfc; stroke-width: 0px;"/>
          <path d="M82.67,50.6c-.35,0-.68-.06-.97-.19-.29-.13-.55-.3-.76-.53-.21-.22-.37-.48-.49-.78s-.17-.61-.17-.94.06-.64.17-.94.28-.55.5-.77c.21-.22.47-.4.76-.53.29-.13.62-.19.97-.19s.68.07.97.2.54.31.74.53c.2.22.36.47.47.77.11.29.17.59.17.9,0,.07,0,.13,0,.18,0,.05,0,.1-.01.13h-3.9c.02.23.07.45.16.64.09.19.21.36.35.5.14.14.31.25.49.32s.38.12.58.12c.14,0,.29-.02.42-.06.14-.04.27-.09.39-.16.12-.07.23-.15.32-.24s.16-.2.21-.32l.68.19c-.08.17-.18.33-.32.48-.14.14-.29.27-.47.37-.18.1-.37.19-.59.25-.22.06-.44.09-.68.09ZM84.28,47.85c-.02-.22-.07-.43-.17-.62-.09-.19-.21-.35-.35-.48-.14-.13-.3-.24-.49-.31s-.38-.11-.59-.11-.41.04-.59.11c-.19.08-.35.18-.49.31-.14.14-.26.3-.34.48-.09.19-.14.39-.16.61h3.19Z" style="fill: #f9fbfc; stroke-width: 0px;"/>
          <path d="M86.04,44.93v-.99h.79v.99h-.79ZM86.04,50.51v-4.7h.79v4.7h-.79Z" style="fill: #f9fbfc; stroke-width: 0px;"/>
          <path d="M87.88,50l3.01-3.61h-2.92v-.58h3.77v.51l-2.99,3.61h3v.58h-3.86v-.51Z" style="fill: #f9fbfc; stroke-width: 0px;"/>
        </g>
        <path d="M49.19,39.21c0-5.2-3.22-8.35-10.33-10.13l-1.92-.48c-2.4-.62-3.22-1.23-3.22-2.67,0-1.64,1.71-2.67,4.45-2.67,2.53,0,3.22.14,7.73,1.44l2.19-7.25c-4.17-1.51-8.08-2.19-12.32-2.19-8.21,0-13.62,4.38-13.62,11.16,0,3.49,1.37,6.36,3.9,8,1.64,1.1,3.22,1.64,6.98,2.81l1.51.48c1.99.61,2.88,1.44,2.88,2.6,0,1.57-1.64,2.6-4.24,2.6-2.4,0-4.65-.48-8.97-1.92l-2.39,7.8c4.45,1.44,8.48,2.12,12.32,2.12,9.24,0,15.06-4.52,15.06-11.7" style="fill: #f9fbfc; stroke-width: 0px;"/>
        <path d="M.01,15.82l-.08,34.91h11.95V15.82H.01ZM.01,9.92h11.86V.01H.01v9.91Z" style="fill: #f9fbfc; stroke-width: 0px;"/>
        <path d="M21.82,48.79l1.75-5.7-1.75,5.7c3.15,1.02,6.09,1.66,8.9,1.94h0c-2.81-.29-5.76-.93-8.91-1.95Z" style="fill: #f9fbfc; stroke-width: 0px;"/>
        <path d="M21.82,48.79l1.75-5.7-1.75,5.7c3.15,1.02,6.09,1.66,8.9,1.94h0c-2.81-.29-5.76-.93-8.91-1.95Z" style="fill: #f9fbfc; stroke-width: 0px;"/>
        <path d="M25.91,41.54s0,0,0,0c0,0,0,0,0,0l-6.07-9.16,2.54-3.65c-.03-.14-.04-.29-.06-.43.02.14.03.29.06.43l8.98-12.9h-.36s0,0,0,0h-12.89l-6.13,9.82h0s-4.02,6.45-4.02,6.45l-.26.43.26.5,3.96,7.06h0s5.97,10.65,5.97,10.65h12.83s0,0,0,0c0,0,0,0,0,0h0s0,0,0,0h1.28l-6.09-9.2ZM22.17,26.23c0,.06,0,.12,0,.19,0,.19.02.36.02.55,0-.18-.03-.36-.03-.55,0-.06,0-.12,0-.19Z" style="fill: #f9fbfc; mix-blend-mode: screen; opacity: .85; stroke-width: 0px;"/>
      </g>
    </g>
  </g>
</svg>