<?xml version="1.0" encoding="UTF-8"?>
<svg id="Ebene_1" data-name="Ebene 1" xmlns="http://www.w3.org/2000/svg" version="1.1" xmlns:xlink="http://www.w3.org/1999/xlink" viewBox="0 0 103.4 88.9">
  <defs>
    <style>
      .cls-1 {
        fill: #f9fbfc;
      }

      .cls-1, .cls-2, .cls-3, .cls-4, .cls-5 {
        stroke-width: 0px;
      }

      .cls-2 {
        fill: #e41818;
      }

      .cls-3 {
        fill: none;
      }

      .cls-6 {
        clip-path: url(#clippath-1);
      }

      .cls-4 {
        fill: #1a2d46;
      }

      .cls-5 {
        fill: #1b2e47;
      }

      .cls-7 {
        clip-path: url(#clippath);
      }
    </style>
    <clipPath id="clippath">
      <rect class="cls-3" x="1.7" y="1.5" width="100" height="42.3"/>
    </clipPath>
    <clipPath id="clippath-1">
      <rect class="cls-3" x="1.7" y="1.5" width="100" height="42.3"/>
    </clipPath>
  </defs>
  <g class="cls-7">
    <g class="cls-6">
      <path class="cls-5" d="M101.7,1.6s-4.9,0-11.3,0c-6.4,0-11.3,5.7-11.3,5.7C73.8,0,63,1.7,56.8,1.6v42.2s11.7,0,11.7,0V8.6s4.7-.4,4.7,10.1v25.1h12s0-14.7,0-25.1,4.7-10.1,4.7-10.1v35.2h11.7V1.6Z"/>
      <path class="cls-5" d="M18.3,37.8s0,0,0,0c.3,0,.5,0,.8,0,.4,0,.6-.1.8-.4.8-1,1.5-2.1,1.9-3.4,0-.3.2-.5.2-.8.3-1.3,1.2-2.2,2.4-2.7.4-.2.8-.4,1.1-.6.6-.4,1.1-1,1.3-1.7.5-1.7,1.1-3.5,1.8-5.1.2-.5.3-1,.2-1.5-.3-1.6.2-2.9,1.3-4.1.3-.4.6-.7,1-1,.6-.4.8-1,1-1.7.1-.7,0-1.5,0-2.2,0-.2,0-.2-.2-.1-.9.5-1.8.9-2.8,1.3-.1,0-.2.1-.3.2-.8,1.2-1.7,2.2-2.7,3.2-.7.8-1.4,1.5-1.6,2.6-.2.5-.5.9-1.1,1,0,0-.2.1-.3,0,0-.1,0-.2,0-.3,0,0,.1-.1.2-.2-.3,0-.5.2-.7.3,0,0-.2.1-.2,0,0-.3-.3-.3-.4-.5-.1-.2-.1-.5,0-.7.3-.5.6-1,1.2-1.2.3,0,.5-.4.6-.6.7-1.1,1.5-2.3,2.2-3.4.4-.6.7-1.1,1.1-1.7,0,0,0,0,.1-.1,1.3-.9,2.6-1.9,3.9-2.7.3-.2.7-.5,1-.7.7-.6,1.6-1,2.5-1.3.4-.1,1.2-1,1.2-1.4,0,0,0-.1-.1-.2-.3-.2-.6-.5-.8-.8-.9,1.8-2.2,2.6-3.6,2,.6-.1,1.2-.2,1.6-.7-.7.2-1.4.5-2.1.4,0,0-.2,0-.2-.1.8-.2,1.4-.8,1.8-1.6.2-.3.3-.6.5-.8.4-.5.9-.7,1.5-.6.2,0,.3,0,.3-.2.1-.9.8-1.7,1.6-2.1h-18.2v16.9h-4.7V1.5H1.7v42.4s11.8,0,11.8,0v-16.9h4.8v10.8Z"/>
      <path class="cls-5" d="M18.7,42.3c0-.5-.2-1-.4-1.5v3h1.4c-.6-.3-.9-.8-1-1.5"/>
      <path class="cls-5" d="M43.9,18.3v-3.7c-.2.3-.4.5-.6.8-.2.2-.3,0-.5,0-1.4-.7-2.6-1.4-3.7-2.5-.3.4-.6.8-1,1,0,0-.2.2-.2.3-.7,1.2-1.6,2.4-2.4,3.6-.4.6-.4.6.3.8,2.2.6,4.3,1.7,6.1,3,.4.3.7.5,1,.9.6.8.2,1.9-.7,2.2-.3,0-.5.2-.7.4-1.7,1.5-3.4,3-5.1,4.6-.2.2-.4.4-.6.7-.1.1-.1.2,0,.3.4.2.4.3.1.5-.5.5-.9,1.1-1.1,1.8-.2.6-.3,1.2,0,1.8.1.2,0,.4,0,.6-.2.2-.3.3-.6.2-.8-.3-1.4-.7-1.5-1.7-.2-1-.3-2-.8-2.9,0-.1,0-.3-.1-.5-.2-.9.5-1.6,1.5-1.6,0,0,0,0,0,0,.9.4,1.4-.4,1.9-1,.7-.9,1.2-1.9,1.7-2.9.3-.7.7-1.1,1.5-1.4-.5,0-1,0-1.4,0-1.1,0-2.2-.2-3.4-.4-.2,0-.3,0-.4.2-.9,2.1-1.9,4-3.1,5.9-.5.8-1.1,1.6-2,2-.9.4-1.5,1.3-2.2,2-1.5,1.6-2.9,3.2-4.2,4.9,0,.1-.2.2-.3.4.7.2.7.3.3.8-.5.6-.7,1.3-.9,2.1,0,.5,0,.9.4,1.2,0,0,.1.2.2.2.2.2.3.5.2.8h22.5v-16.9h9.5l-4.8-8.6h-4.7Z"/>
      <path class="cls-5" d="M39.2,1.4c.5.2,1,.7,1.3,1.3.2.4.1.8,0,1.1-.2.4,0,.8,0,1.1.3.5.3.5-.3.8,0,0-.1,0-.1.1,0,.5-.3.8-.4,1.2,0,.3-.4.2-.7.2,0,0,0,0-.1,0-.2,0-.5-.2-.7-.1-.1,0-.6.7-.7,1,.1,0,.2,0,.3,0,.7.1,1.2.5,1.6,1,.7.9,1.4,1.8,2.2,2.5.2.2.5.6.7.6.2,0,.5-.4.7-.6.3-.3.5-.5.7-.8v-1.3h.6s0,0,0,0c-.2-.4-.3-.9-.2-1.4,0-.2.1-.4.4-.5,0,0,.1,0,.2-.2,0-.1.1-.3.2-.4.4-.8.3-.7,1.1-.4.2.1.4.3.6.4.2,0,.3.3.1.5-.3.4-.4.9-.5,1.3,0,.2,0,.4-.1.5h8.3V1.4h-15.4Z"/>
      <path class="cls-2" d="M94.8,43.8h-55.7s15.8-7.2,32.3-14.5c.2,0,.4,0,.5.2l6,8.5c.3.5,1,.7,1.5.4l8.1-3.9s0,0,0,0l7.1,9.3Z"/>
      <path class="cls-1" d="M51.5,40.4c.9-.4,1.7-.7,2.5-1,4.2-1.8,8.2-3.9,12-6.2l-15.6,7.6,1-.4Z"/>
      <path class="cls-1" d="M55.9,41.9c.7-.4,1.3-.6,1.8-1,3-1.7,5.9-3.7,8.6-5.9l-11.3,7.2.8-.3Z"/>
      <path class="cls-1" d="M80.1,40.3c.4-.2.7-.3,1-.5,1.6-.8,3.1-1.8,4.6-2.8l-6,3.5.4-.2Z"/>
      <path class="cls-1" d="M78.7,42.5c.5-.2.9-.4,1.4-.7,2.2-1.1,4.4-2.3,6.4-3.6l-8.4,4.5.6-.2Z"/>
    </g>
  </g>
  <g>
    <path class="cls-4" d="M1.7,56.9h2.1v4.6h4.7v-4.6h2.1v11.6h-2.1v-5.3H3.9v5.3H1.7v-11.6Z"/>
    <path class="cls-4" d="M13.2,66.6c-.3-.7-.4-1.5-.4-2.4s.2-1.6.5-2.2.8-1.1,1.4-1.5c.6-.4,1.4-.5,2.2-.5s1.6.2,2.2.5c.6.4,1.1.9,1.4,1.5.3.6.5,1.4.5,2.2s-.1,1.7-.4,2.4c-.3.7-.7,1.2-1.3,1.6-.6.4-1.4.6-2.3.6s-1.7-.2-2.3-.6-1-.9-1.3-1.6ZM14.4,58.5c-.2-.2-.3-.5-.3-.8s.1-.6.3-.8c.2-.2.5-.3.8-.3s.6.1.8.3c.2.2.3.5.3.8s-.1.6-.3.8c-.2.2-.5.3-.8.3s-.6-.1-.8-.3ZM18.8,64.2c0-.8-.2-1.5-.5-2-.3-.5-.8-.7-1.4-.7s-1.1.2-1.4.7c-.3.5-.5,1.1-.5,2s.2,1.6.5,2.2.8.8,1.4.8,1.1-.3,1.4-.8.5-1.2.5-2.2ZM17.7,58.5c-.2-.2-.3-.5-.3-.8s.1-.6.3-.8.5-.3.8-.3.6.1.8.3c.2.2.3.5.3.8s-.1.6-.3.8c-.2.2-.5.3-.8.3s-.6-.1-.8-.3Z"/>
    <path class="cls-4" d="M22.7,56.6h2.1v4.6c.3-.4.6-.7,1-1,.4-.2.9-.3,1.4-.3.8,0,1.5.3,2,.8.5.5.8,1.3.8,2.3v5.5h-2.1v-5.3c0-.5-.1-.9-.4-1.2-.2-.3-.6-.4-1-.4s-.7.1-1.1.3c-.3.2-.5.5-.7.8v5.8h-2.1v-11.9Z"/>
    <path class="cls-4" d="M38.8,66.5l.2,1.7c-.3.2-.7.3-1.2.4-.5.1-1,.2-1.6.2-.9,0-1.7-.2-2.4-.5s-1.2-.9-1.5-1.6c-.4-.7-.5-1.5-.5-2.4s.2-1.6.5-2.2c.3-.6.8-1.1,1.3-1.5.6-.4,1.3-.5,2.1-.5s1.9.3,2.5,1c.6.6.9,1.6.9,2.8s0,.3,0,.5c0,.2,0,.4,0,.5h-5.2c0,.8.4,1.5.8,1.9.5.4,1.1.6,1.8.6s.8,0,1.3-.2c.4-.1.8-.3,1-.5ZM35.7,61.4c-.5,0-.9.2-1.2.5-.3.4-.5.9-.6,1.5h3.4c0-.7-.1-1.2-.4-1.5s-.7-.5-1.2-.5Z"/>
    <path class="cls-4" d="M40.9,60.2h2v1.1c.3-.4.6-.8,1-1,.4-.2.9-.4,1.5-.4.8,0,1.5.3,2,.8.5.5.8,1.3.8,2.3v5.5h-2.1v-5.3c0-.5-.1-.9-.4-1.2-.2-.3-.6-.4-1-.4s-.7.1-1.1.3c-.3.2-.5.5-.7.8v5.8h-2.1v-8.4Z"/>
    <path class="cls-4" d="M50.2,60.2h2v1.1c.5-.9,1.3-1.3,2.4-1.3s1,.1,1.4.4c.4.3.7.7.9,1.2.3-.5.6-.9,1.1-1.1.5-.3,1-.4,1.6-.4s1.4.3,1.9.8c.5.5.7,1.3.7,2.2v5.5h-2.1v-5.4c0-.5-.1-.9-.3-1.2-.2-.3-.5-.4-.9-.4s-.7.1-1,.3c-.3.2-.5.5-.7.8v5.8h-2.1v-5.4c0-.5-.1-.9-.3-1.2-.2-.3-.5-.4-1-.4s-.7.1-1,.3c-.3.2-.5.5-.6.8v5.8h-2.1v-8.4Z"/>
    <path class="cls-4" d="M71.1,66.5l.2,1.7c-.3.2-.7.3-1.2.4-.5.1-1,.2-1.6.2-.9,0-1.7-.2-2.4-.5s-1.2-.9-1.5-1.6c-.4-.7-.5-1.5-.5-2.4s.2-1.6.5-2.2c.3-.6.8-1.1,1.3-1.5.6-.4,1.3-.5,2.1-.5s1.9.3,2.5,1c.6.6.9,1.6.9,2.8s0,.3,0,.5,0,.4,0,.5h-5.2c0,.8.4,1.5.8,1.9.5.4,1.1.6,1.8.6s.8,0,1.3-.2c.4-.1.8-.3,1-.5ZM67.9,61.4c-.5,0-.9.2-1.2.5-.3.4-.5.9-.6,1.5h3.4c0-.7-.1-1.2-.4-1.5-.3-.4-.7-.5-1.2-.5Z"/>
    <path class="cls-4" d="M73.9,61.6h-1.4v-1.5h1.4v-1.6l2.1-.9v2.6h2.2v1.5h-2.2v4c0,.5,0,.9.3,1.1.2.2.5.4.9.4s.4,0,.6-.1.4-.2.6-.3v1.7c-.4.1-.6.2-.9.2s-.6,0-.8,0c-.9,0-1.6-.2-2-.7-.4-.5-.7-1.1-.7-2.1v-4.3Z"/>
    <path class="cls-4" d="M86.6,66.5l.2,1.7c-.3.2-.7.3-1.2.4-.5.1-1,.2-1.6.2-.9,0-1.7-.2-2.4-.5-.7-.4-1.2-.9-1.5-1.6-.4-.7-.5-1.5-.5-2.4s.2-1.6.5-2.2c.3-.6.8-1.1,1.3-1.5.6-.4,1.3-.5,2.1-.5s1.9.3,2.5,1c.6.6.9,1.6.9,2.8s0,.3,0,.5,0,.4,0,.5h-5.2c0,.8.4,1.5.8,1.9.5.4,1.1.6,1.8.6s.8,0,1.3-.2c.4-.1.8-.3,1-.5ZM83.5,61.4c-.5,0-.9.2-1.2.5-.3.4-.5.9-.6,1.5h3.4c0-.7-.1-1.2-.4-1.5-.3-.4-.7-.5-1.2-.5Z"/>
    <path class="cls-4" d="M88.7,60.2h2v1.5c.3-.6.6-1,1.1-1.3.4-.3.9-.4,1.4-.4s.4,0,.6,0l-.2,2.1c-.2,0-.4-.1-.7-.1-.5,0-.9.1-1.3.4-.4.3-.6.7-.8,1.1v5.1h-2.1v-8.4Z"/>
    <path class="cls-4" d="M2.4,80.4H1v-1.5h1.4c0-1.3.3-2.2.9-2.8.6-.6,1.5-.9,2.5-.9s.5,0,.7,0,.5,0,.7.2l-.2,1.6c-.2-.2-.5-.3-.9-.3s-.9.2-1.2.5c-.3.3-.4.8-.4,1.4v.3h2.2v1.5h-2.2v6.9h-2.1v-6.9Z"/>
    <path class="cls-4" d="M13.3,79h2.1v8.4h-2v-1.2c-.3.4-.6.8-1,1-.4.2-.9.4-1.5.4-.8,0-1.5-.3-2-.8-.5-.5-.8-1.3-.8-2.3v-5.5h2.1v5.3c0,.5.1.9.4,1.2s.6.4,1,.4.7-.1,1-.3c.3-.2.5-.5.7-.8v-5.8ZM9.3,77.3c-.2-.2-.3-.5-.3-.8s.1-.6.3-.8.5-.3.8-.3.6.1.8.3c.2.2.3.5.3.8s-.1.6-.3.8c-.2.2-.5.3-.8.3s-.6-.1-.8-.3ZM12.6,77.3c-.2-.2-.3-.5-.3-.8s.1-.6.3-.8c.2-.2.5-.3.8-.3s.6.1.8.3c.2.2.3.5.3.8s-.1.6-.3.8c-.2.2-.5.3-.8.3s-.6-.1-.8-.3Z"/>
    <path class="cls-4" d="M17.5,79h2v1.5c.3-.6.6-1,1.1-1.3.4-.3.9-.4,1.4-.4s.4,0,.6,0l-.2,2.1c-.2,0-.4-.1-.7-.1-.5,0-.9.1-1.3.4-.4.3-.6.7-.8,1.1v5.1h-2.1v-8.4Z"/>
    <path class="cls-4" d="M28.2,75.7h2l3.9,7.9,3.9-7.9h2l.3,11.6h-2l-.2-8-3.4,6.9h-1.3l-3.4-6.8-.2,8h-1.9l.3-11.6Z"/>
    <path class="cls-4" d="M49.3,85.3l.2,1.7c-.3.2-.7.3-1.2.4-.5.1-1,.2-1.6.2-.9,0-1.7-.2-2.4-.5s-1.2-.9-1.5-1.6c-.4-.7-.5-1.5-.5-2.4s.2-1.6.5-2.2c.3-.6.8-1.1,1.3-1.5.6-.4,1.3-.5,2.1-.5s1.9.3,2.5,1c.6.6.9,1.6.9,2.8s0,.3,0,.5c0,.2,0,.4,0,.5h-5.2c0,.8.4,1.5.8,1.9.5.4,1.1.6,1.8.6s.8,0,1.3-.2c.4-.1.8-.3,1-.5ZM46.1,80.2c-.5,0-.9.2-1.2.5-.3.4-.5.9-.6,1.5h3.4c0-.7-.1-1.2-.4-1.5s-.7-.5-1.2-.5Z"/>
    <path class="cls-4" d="M51.4,79h2v1.1c.3-.4.6-.8,1-1,.4-.2.9-.4,1.5-.4.8,0,1.5.3,2,.8.5.5.8,1.3.8,2.3v5.5h-2.1v-5.3c0-.5-.1-.9-.4-1.2-.2-.3-.6-.4-1-.4s-.7.1-1.1.3c-.3.2-.5.5-.7.8v5.8h-2.1v-8.4Z"/>
    <path class="cls-4" d="M60.5,85.3c.3.3.7.5,1.2.6s.9.2,1.3.2.9,0,1.2-.3c.3-.2.4-.5.4-.8s-.1-.5-.4-.6c-.2-.2-.7-.4-1.4-.6-.9-.3-1.5-.7-1.9-1.1-.4-.4-.5-.9-.5-1.4,0-.8.3-1.4.9-1.9.6-.4,1.4-.7,2.3-.7s.9,0,1.4.2c.4.1.8.3,1.1.4l-.5,1.5c-.6-.4-1.2-.7-1.9-.7s-.8,0-1,.2c-.3.2-.4.4-.4.7s.1.5.4.6c.3.2.7.4,1.4.6.6.2,1.1.5,1.5.7s.6.5.7.8c.1.3.2.6.2,1,0,.8-.3,1.5-1,2-.6.5-1.5.7-2.6.7s-1,0-1.5-.2-.9-.3-1.2-.5l.2-1.7Z"/>
    <path class="cls-4" d="M69,86.4c-.7-.8-1.1-1.9-1.1-3.2s.2-1.7.5-2.3c.3-.7.8-1.2,1.4-1.5.6-.4,1.4-.5,2.2-.5s.9,0,1.3.2c.4.1.8.3,1.1.4l-.5,1.6c-.5-.4-1-.6-1.7-.6s-1.3.2-1.7.7c-.4.5-.6,1.2-.6,2s.2,1.6.6,2.1c.4.5,1,.7,1.7.7s.7,0,1-.2c.3-.1.6-.3.8-.5l.2,1.8c-.3.1-.6.3-1,.3-.4,0-.8.1-1.3.1-1.3,0-2.4-.4-3.1-1.2Z"/>
    <path class="cls-4" d="M76.1,75.4h2.1v4.6c.3-.4.6-.7,1-1,.4-.2.9-.3,1.4-.3.8,0,1.5.3,2,.8.5.5.8,1.3.8,2.3v5.5h-2.1v-5.3c0-.5-.1-.9-.4-1.2-.2-.3-.6-.4-1-.4s-.8.1-1.1.3c-.3.2-.5.5-.7.8v5.8h-2.1v-11.9Z"/>
    <path class="cls-4" d="M92.2,85.3l.2,1.7c-.3.2-.7.3-1.2.4-.5.1-1,.2-1.6.2-.9,0-1.7-.2-2.4-.5-.7-.4-1.2-.9-1.5-1.6-.4-.7-.5-1.5-.5-2.4s.2-1.6.5-2.2c.3-.6.8-1.1,1.3-1.5.6-.4,1.3-.5,2.1-.5s1.9.3,2.5,1c.6.6.9,1.6.9,2.8s0,.3,0,.5,0,.4,0,.5h-5.2c0,.8.4,1.5.8,1.9.5.4,1.1.6,1.8.6s.8,0,1.3-.2c.4-.1.8-.3,1-.5ZM89,80.2c-.5,0-.9.2-1.2.5-.3.4-.5.9-.6,1.5h3.4c0-.7-.1-1.2-.4-1.5-.3-.4-.7-.5-1.2-.5Z"/>
    <path class="cls-4" d="M94.3,79h2v1.1c.3-.4.6-.8,1-1,.4-.2.9-.4,1.5-.4.8,0,1.5.3,2,.8.5.5.8,1.3.8,2.3v5.5h-2.1v-5.3c0-.5-.1-.9-.4-1.2-.2-.3-.6-.4-1-.4s-.8.1-1.1.3c-.3.2-.5.5-.7.8v5.8h-2.1v-8.4Z"/>
  </g>
</svg>