<?xml version="1.0" encoding="UTF-8"?>
<svg id="Ebene_1" data-name="Ebene 1" xmlns="http://www.w3.org/2000/svg"
     version="1.1" viewBox="0 0 166 88">
    <defs>
        <style>
            .cls-1 {
            mask: url(#mask);
            }

            .cls-2 {
            fill: #fff;
            }

            .cls-2, .cls-3 {
            stroke-width: 0px;
            }

            .cls-3 {
            fill: #1b2e47;
            }
        </style>
        <mask id="mask" x="0" y="1" width="165.7" height="86.4" maskUnits="userSpaceOnUse">
            <g id="mask0_1408_3030">
                <path class="cls-2" d="M165.7,1H0v86.4h165.7V1Z"/>
            </g>
        </mask>
    </defs>
    <g class="cls-1">
        <g>
            <path class="cls-3"
                  d="M25.3,41.7c0-.5-.2-.9-.5-1.2-.7-.7-1.8-.7-2.5,0L3.5,59.2c-.7.7-.7,1.8,0,2.5.3.3.8.5,1.2.5s.9-.2,1.2-.5l18.8-18.8c.3-.3.5-.8.5-1.2Z"/>
            <path class="cls-3"
                  d="M29.9,47.6c-.3-.3-.8-.5-1.2-.5s-.9.2-1.2.5l-15.2,15.2c-.3.3-.5.8-.5,1.2s.2.9.5,1.2c.3.3.8.5,1.2.5s.9-.2,1.2-.5l15.2-15.2c.7-.7.7-1.8,0-2.5Z"/>
            <path class="cls-3"
                  d="M48.9,40.4c-.7-.7-1.8-.7-2.5,0l-20.8,20.6c-.3.3-.5.8-.5,1.2s.2.9.5,1.2c.3.3.8.5,1.2.5s.9-.2,1.2-.5l20.8-20.6c.3-.3.5-.8.5-1.2s-.2-.9-.5-1.2h0Z"/>
            <path class="cls-3"
                  d="M66.7,79.7c-.8-.6-1.8-.9-3.1-.9h-1.8v8.4h2c1.1,0,2-.3,2.8-1,.8-.6,1.2-1.7,1.2-3.3s-.4-2.7-1.2-3.3h0ZM65.9,85.6c-.5.5-1.1.7-1.9.7h-.9v-6.6h.9c.5,0,1,0,1.4.2.4.2.7.5,1,1,.3.5.4,1.2.4,2,0,1.3-.2,2.1-.7,2.6h0Z"/>
            <path class="cls-3"
                  d="M73.8,85.7v-2.9c0-.7-.2-1.2-.6-1.6-.4-.4-.9-.6-1.7-.6s-1.4.1-2.2.4l.3.8c.7-.2,1.3-.3,1.7-.3s.8,0,1,.3c.2.2.3.5.3,1v.5h-1c-.9,0-1.6.2-2.1.5-.5.4-.7.9-.7,1.6s.2,1,.5,1.4c.4.4.9.5,1.5.5s1.5-.3,1.9-1c0,.3.2.5.5.7.2.1.5.2.8.3l.3-.8c-.2,0-.3-.2-.4-.3,0-.1-.1-.3-.1-.6h0ZM72.7,85.5c-.4.7-.9,1-1.5,1s-.6,0-.8-.3c-.2-.2-.3-.5-.3-.9,0-.9.6-1.3,1.8-1.3h.8v1.5h0Z"/>
            <path class="cls-3"
                  d="M77.9,81c-.3.2-.5.6-.7,1.1v-1.3h-1.1v6.4h1.1v-3.7c.1-.6.3-1.1.6-1.4.2-.3.6-.4,1-.4s.4,0,.6,0l.2-1.1c-.2,0-.4,0-.6,0-.4,0-.7.1-1,.4h0Z"/>
            <path class="cls-3"
                  d="M84.4,79.2c.2,0,.4,0,.5-.2.1-.1.2-.3.2-.5s0-.4-.2-.5c-.1-.1-.3-.2-.5-.2s-.4,0-.5.2-.2.3-.2.5,0,.4.2.5.3.2.5.2Z"/>
            <path class="cls-3"
                  d="M81.8,79.2c.2,0,.4,0,.5-.2s.2-.3.2-.5,0-.4-.2-.5-.3-.2-.5-.2-.4,0-.5.2c-.1.1-.2.3-.2.5s0,.4.2.5c.1.1.3.2.5.2Z"/>
            <path class="cls-3"
                  d="M84.4,85.4c-.5.7-1,1.1-1.6,1.1s-.6,0-.8-.3c-.2-.2-.2-.5-.2-.9v-4.5h-1.1v4.6c0,.6.2,1.1.5,1.5.3.3.8.5,1.3.5s.8,0,1.2-.3c.3-.2.6-.5.8-.9v1h1.1v-6.4h-1.1v4.6h0Z"/>
            <path class="cls-3"
                  d="M90.7,80.6c-.8,0-1.4.3-1.8,1v-3.5h-1.1v9.2h1v-.7c.6.6,1.1.9,1.8.9s1-.1,1.3-.4c.4-.3.7-.7.9-1.2.2-.5.3-1.1.3-1.8,0-1.1-.2-1.9-.6-2.5-.4-.6-1-.9-1.7-.9h0ZM91.5,85.9c-.3.4-.7.6-1.2.6s-.5,0-.8-.2c-.2-.2-.5-.4-.6-.6v-3.1c.4-.7.9-1,1.5-1s.8.2,1.1.6c.3.4.4,1,.4,1.9s-.1,1.5-.4,1.9h0Z"/>
            <path class="cls-3"
                  d="M97.2,80.6c-.5,0-1,.1-1.4.4s-.7.7-.9,1.2c-.2.5-.3,1.1-.3,1.8,0,1,.2,1.8.8,2.4.5.6,1.2.9,2.1.9s1.6-.3,2.2-.8l-.5-.7c-.3.2-.6.3-.8.4-.3,0-.5.1-.9.1-.5,0-.9-.2-1.2-.5-.3-.3-.5-.9-.5-1.6h4.1c0-.2,0-.4,0-.6,0-1-.2-1.8-.7-2.3-.5-.6-1.1-.8-2-.8ZM98.7,83.5h-3c0-1.4.6-2,1.5-2s.9.2,1.1.5c.3.3.4.8.4,1.5h0Z"/>
            <path class="cls-3"
                  d="M103.3,81c-.3.2-.5.6-.7,1.1v-1.3h-1.1v6.4h1.1v-3.7c.1-.6.3-1.1.6-1.4.2-.3.6-.4,1-.4s.4,0,.6,0l.2-1.1c-.2,0-.4,0-.6,0-.4,0-.7.1-1,.4h0Z"/>
            <path class="cls-3"
                  d="M111.2,81c-.3.2-.5.6-.7,1.1v-1.3h-1.1v6.4h1.1v-3.7c.1-.6.3-1.1.6-1.4.2-.3.6-.4,1-.4s.4,0,.6,0l.2-1.1c-.2,0-.4,0-.6,0-.4,0-.7.1-1,.4h0Z"/>
            <path class="cls-3"
                  d="M115.9,80.6c-.5,0-1,.1-1.4.4-.4.3-.7.7-.9,1.2-.2.5-.3,1.1-.3,1.8,0,1,.2,1.8.8,2.4.5.6,1.2.9,2.1.9s1.6-.3,2.2-.8l-.5-.7c-.3.2-.6.3-.8.4-.3,0-.5.1-.9.1-.5,0-.9-.2-1.2-.5-.3-.3-.5-.9-.5-1.6h4.1c0-.2,0-.4,0-.6,0-1-.2-1.8-.7-2.3-.5-.6-1.1-.8-2-.8ZM117.4,83.5h-3c0-1.4.6-2,1.5-2s.9.2,1.1.5c.3.3.4.8.4,1.5h0Z"/>
            <path class="cls-3"
                  d="M124.2,81.4c-.5-.5-1.1-.8-1.7-.8s-1,.1-1.3.4c-.4.3-.7.7-.9,1.2-.2.5-.3,1.1-.3,1.8,0,1,.2,1.8.6,2.4.4.6,1,.9,1.8.9s.7,0,1.1-.3.6-.4.8-.8v.9h1.1v-9h-1.1c0-.1,0,3.2,0,3.2h0ZM124.2,85.5c-.2.3-.5.6-.7.7-.2.2-.5.2-.9.2s-.8-.2-1.1-.6c-.3-.4-.4-1-.4-1.9s.1-1.4.4-1.9c.3-.4.7-.6,1.2-.6s.6,0,.8.2c.2.1.5.4.7.6v3.1h0Z"/>
            <path class="cls-3"
                  d="M129.7,80.6c-.5,0-1,.1-1.4.4s-.7.7-.9,1.2c-.2.5-.3,1.1-.3,1.8,0,1,.2,1.8.8,2.4.5.6,1.2.9,2.1.9s1.6-.3,2.2-.8l-.5-.7c-.3.2-.6.3-.8.4-.3,0-.5.1-.9.1-.5,0-.9-.2-1.2-.5-.3-.3-.5-.9-.5-1.6h4.1c0-.2,0-.4,0-.6,0-1-.2-1.8-.7-2.3-.5-.6-1.1-.8-2-.8ZM131.3,83.5h-3c0-1.4.6-2,1.5-2s.9.2,1.1.5c.3.3.4.8.4,1.5h0Z"/>
            <path class="cls-3"
                  d="M137.2,80.6c-.4,0-.8,0-1.1.3s-.6.5-.8.8v-1h-1.1v6.4h1.1v-4.6c.2-.4.5-.6.7-.8.3-.2.6-.3.9-.3s.6,0,.8.3c.2.2.3.5.3,1v4.5h1.1v-4.6c0-.6-.2-1.1-.5-1.4-.3-.4-.8-.5-1.4-.5h0Z"/>
            <path class="cls-3"
                  d="M147.4,80.6c-.8,0-1.4.3-1.9,1v-3.6h-1.1v9.1h1.1v-4.6c.2-.4.5-.6.7-.8.3-.2.6-.3.9-.3s.6,0,.8.3c.2.2.3.5.3,1v4.5h1.1v-4.6c0-.6-.2-1.1-.5-1.4-.3-.4-.8-.5-1.4-.5h0Z"/>
            <path class="cls-3"
                  d="M152.1,77.7c-.2,0-.4,0-.6.2-.1.1-.2.3-.2.5s0,.4.2.5c.1.1.3.2.6.2s.4,0,.6-.2c.1-.1.2-.3.2-.5s0-.4-.2-.5c-.1-.1-.3-.2-.6-.2Z"/>
            <path class="cls-3" d="M152.6,80.8h-1.1v6.4h1.1v-6.4Z"/>
            <path class="cls-3"
                  d="M156.4,86.4c-.1,0-.2,0-.3-.1,0,0,0-.2,0-.4v-7.9h-1.1v7.9c0,.5.1.8.4,1,.2.2.6.4,1,.4s.6,0,.9-.2l-.3-.8c-.1,0-.3,0-.4,0Z"/>
            <path class="cls-3"
                  d="M159.6,79.9c0-.3,0-.5.2-.7s.4-.2.7-.2.8,0,1.1.2l.4-.8c-.3-.1-.5-.2-.8-.2-.2,0-.5,0-.8,0-.6,0-1.1.2-1.5.5-.4.3-.5.8-.5,1.3v.9h-1.2v.9h1.2v5.6h1.1v-5.6h1.4v-.9c.1,0-1.4,0-1.4,0v-.9h0Z"/>
            <path class="cls-3"
                  d="M165.3,86.2c-.3.2-.6.3-.9.3s-.5,0-.6-.2c-.1-.2-.2-.4-.2-.7v-3.8h1.4v-.9c.1,0-1.4,0-1.4,0v-1.6h-1.1v1.6h-1.1v.9h1.1v3.9c0,.6.2,1.1.5,1.4.3.3.7.5,1.3.5s1-.1,1.4-.4l-.4-.7h0Z"/>
            <path class="cls-3"
                  d="M56.6,35.5l13.6-13.6c2.3-2.2,3.6-4.6,4.3-7,1.8-6.9-2.4-13.6-10.2-13.6-.1,0-.3,0-.4,0-2.6,0-6.2,1.7-8.6,4.4-2.4-2.7-5.8-4.4-8.5-4.4s-.3,0-.4,0c-10.5,0-14.2,13-6.1,20.8l12.6,12.5.9.9c.4.4.9.6,1.4.6s1-.2,1.4-.6Z"/>
            <path class="cls-3" d="M88.7,55h-11.6l10.2-23h-4.7l-11.9,26.4v.3h18v7h4.2v-19.4h-4.2v8.6Z"/>
            <path class="cls-3"
                  d="M113,45.5c-1.4-.7-2.9-1.1-4.6-1.2l9.5-11.8v-.3h-19.9v3.9h12.5l-8.7,10.9v.4c.4,0,.9-.1,1.3-.2.5,0,1.1,0,1.7,0,1.8,0,3.4.3,4.7.9,1.3.6,2.4,1.4,3.1,2.4.7,1,1.1,2.3,1.1,3.7s-.4,3.2-1.3,4.4c-.9,1.2-2.1,2.2-3.7,2.8-1.6.7-3.6,1-5.8,1s-1.7,0-2.4,0c-.7,0-1.3-.1-1.8-.2v3.8c.6,0,1.2.2,2,.2.8,0,1.6,0,2.3,0,3.1,0,5.8-.5,8-1.5,2.2-1,4-2.4,5.2-4.2,1.2-1.8,1.8-4,1.8-6.4s-.4-3.6-1.3-5c-.9-1.5-2.1-2.6-3.7-3.5h0Z"/>
            <path class="cls-3"
                  d="M122.6,61.1c-.8,0-1.4.2-1.9.8-.5.5-.7,1.1-.7,1.8s.2,1.3.7,1.8c.5.5,1.1.8,1.9.8s1.3-.2,1.8-.8c.5-.5.7-1.1.7-1.8s-.2-1.3-.7-1.8c-.5-.5-1.1-.8-1.8-.8Z"/>
            <path class="cls-3"
                  d="M140.6,62.2c-2.6,0-4.7-.7-6.3-2.1-1.6-1.4-2.4-3.3-2.4-5.7s.4-2.8,1.1-3.9c.7-1.1,1.8-2,3.1-2.6,1.3-.6,2.8-.9,4.5-.9s.9,0,1.4,0c.5,0,.9.1,1.3.2v-3.9c-.4,0-.8-.2-1.3-.2-.5,0-1.1,0-1.6,0-2.5,0-4.8.5-6.6,1.4-1.9.9-3.3,2.3-4.4,4-1.1,1.7-1.6,3.7-1.6,6s.5,4.4,1.5,6.2c1,1.7,2.5,3.1,4.4,4.1,1.9,1,4.1,1.5,6.6,1.5s1.1,0,1.7,0c.6,0,1.1-.2,1.5-.2v-3.9c-.5.1-.9.2-1.4.2-.5,0-.9,0-1.4,0h0Z"/>
            <path class="cls-3"
                  d="M163.6,44.6c-1.3-1.4-3-2.1-5.3-2.1s-2.9.4-4.2,1.2c-.8.5-1.4,1.1-1.9,1.7v-14.8h-4.1v35.2h4.1v-16.7c.5-.8,1.1-1.5,2-2,.9-.5,1.8-.7,2.9-.7s2.4.4,3.2,1.2c.8.8,1.1,2,1.1,3.5v14.7h4.1v-15.6c0-2.4-.6-4.3-1.9-5.7h0Z"/>
            <path class="cls-3" d="M61.9,36.4v29.5h4.3v-33.7l-4.3,4.3Z"/>
            <path class="cls-3"
                  d="M29.3,22.3c-.2-.2-.4-.2-.7-.2l-13.5,3c-1.3.3-2.3.4-3.3.4-2,0-3.4-.6-4.4-1.7h0s24-11.4,24-11.4c0-1.4,0-2.7.4-4.1L3.5,21.7c-.3.1-.5.4-.6.7-.1.3,0,.7,0,1,2,3.7,5.2,5.7,9.1,5.7s2.6-.2,4-.6l7.9-2.1L.5,49.9c-.7.7-.7,1.8,0,2.5.3.3.8.5,1.2.5s.9-.2,1.2-.5l27.6-27.6c.2-.2.2-.4.2-.6s0-.4-.2-.6l-1.3-1.2h0Z"/>
        </g>
    </g>
</svg>
