<?xml version="1.0" encoding="UTF-8"?>
<svg id="Ebene_1" data-name="Ebene 1" xmlns="http://www.w3.org/2000/svg" version="1.1" viewBox="0 0 398.3 248.4">
  <defs>
    <style>
      .cls-1 {
        fill: #1b2e47;
        stroke-width: 0px;
      }
    </style>
  </defs>
  <g>
    <rect class="cls-1" width="47.9" height="40.9"/>
    <path class="cls-1" d="M159.2,115.1c-20.4-7.4-31.1-4-31.1-16.4s26.1-9,26.1-9c0,0,6.7,0,19.4,5.3l9-27.4s-20.1-8.4-45.8-8.4-12.3.7-18,2.2l.3-.5h-50.1l-21.1,33.4v-33.4H0v133h47.9v-35.8l2.7,4.6h0s18.3,31.1,18.3,31.1h53.5l-.5-.7c6.1.6,12.2,1,17.5.7,22.1-1,47.8-17.7,47.5-39.4-.3-21.7-7.4-32.1-27.7-39.4ZM142.2,155.5c-2.3,10.4-17.4,8.7-25.7,8-5-.4-12.5-2.6-17.7-4.3l-23.4-34.3,10.5-15.3c2.8,18.7,14.3,24.5,26.3,28.8,14,5,32.4,6.7,30.1,17Z"/>
  </g>
  <g>
    <path class="cls-1" d="M1.4,227.4c-.3-.3-.4-.7-.4-1.1s.1-.8.4-1.1c.3-.3.6-.4,1-.4s.7.1,1,.4c.3.3.4.6.4,1.1s-.1.8-.4,1.1-.6.4-1,.4-.7-.1-1-.4ZM1.5,231.6h1.8v16.4h-1.8v-16.4Z"/>
    <path class="cls-1" d="M9.1,231.6h1.8v2.9c.6-1,1.3-1.8,2.3-2.4,1-.6,2.1-.9,3.3-.9s3,.5,4,1.6c1,1.1,1.5,2.6,1.5,4.5v10.7h-1.8v-10.6c0-1.4-.4-2.5-1.1-3.3-.7-.8-1.7-1.2-3-1.2s-2.3.4-3.2,1.1c-.9.7-1.6,1.6-1.9,2.6v11.6h-1.9v-16.4Z"/>
    <path class="cls-1" d="M36,247.2c-1.1.8-2.6,1.3-4.5,1.3s-1.8-.1-2.7-.3c-.9-.2-1.6-.5-2.2-.9l.2-1.9c.7.5,1.4.9,2.2,1.2.8.3,1.6.4,2.4.4,1.4,0,2.5-.3,3.2-.9.8-.6,1.1-1.4,1.1-2.3s-.1-1-.3-1.3c-.2-.4-.6-.7-1.2-1.1-.6-.3-1.4-.7-2.5-1.1-1.8-.6-3.1-1.3-3.8-2-.7-.7-1.1-1.6-1.1-2.6s.2-1.7.7-2.4,1.2-1.2,2-1.5c.8-.4,1.8-.5,2.8-.5s1.6.1,2.4.3c.8.2,1.4.5,2,.9l-.6,1.6c-1.1-.8-2.4-1.3-3.8-1.3s-2,.2-2.7.7c-.7.5-1.1,1.2-1.1,2.1s.3,1.3.9,1.8c.6.5,1.7,1,3.2,1.5,1.3.5,2.2.9,2.9,1.4.7.5,1.2,1,1.4,1.6s.4,1.2.4,1.9c0,1.5-.6,2.7-1.7,3.5Z"/>
    <path class="cls-1" d="M44,233.1h-2.9v-1.5h2.9v-3.7l1.8-.9v4.6h5.1v1.5h-5.1v10.1c0,1.3.2,2.2.7,2.8s1.3.9,2.4.9.8,0,1.2-.2c.5-.1.8-.3,1.1-.5l-.2,1.8c-.4.1-.8.3-1.3.3-.5,0-.9.1-1.3.1-1.5,0-2.6-.4-3.4-1.2-.7-.8-1.1-2-1.1-3.7v-10.4Z"/>
    <path class="cls-1" d="M55.6,227.4c-.3-.3-.4-.7-.4-1.1s.1-.8.4-1.1c.3-.3.6-.4,1-.4s.7.1,1,.4c.3.3.4.6.4,1.1s-.1.8-.4,1.1-.6.4-1,.4-.7-.1-1-.4ZM55.7,231.6h1.8v16.4h-1.8v-16.4Z"/>
    <path class="cls-1" d="M64.7,233.1h-2.9v-1.5h2.9v-3.7l1.8-.9v4.6h5.1v1.5h-5.1v10.1c0,1.3.2,2.2.7,2.8s1.3.9,2.4.9.8,0,1.2-.2c.5-.1.8-.3,1.1-.5l-.2,1.8c-.4.1-.8.3-1.3.3-.5,0-.9.1-1.3.1-1.5,0-2.6-.4-3.4-1.2-.7-.8-1.1-2-1.1-3.7v-10.4Z"/>
    <path class="cls-1" d="M86.9,231.6h1.8v16.4h-1.8v-2.9c-.6,1-1.3,1.8-2.3,2.4s-2.1.9-3.3.9-3-.5-4-1.6c-1-1.1-1.5-2.6-1.5-4.5v-10.7h1.9v10.6c0,1.4.4,2.5,1.1,3.4s1.7,1.2,2.9,1.2,2.3-.4,3.2-1.1c.9-.7,1.6-1.6,2-2.6v-11.6Z"/>
    <path class="cls-1" d="M95.9,233.1h-2.9v-1.5h2.9v-3.7l1.8-.9v4.6h5.1v1.5h-5.1v10.1c0,1.3.2,2.2.7,2.8s1.3.9,2.4.9.8,0,1.2-.2c.5-.1.8-.3,1.1-.5l-.2,1.8c-.4.1-.8.3-1.3.3-.5,0-.9.1-1.3.1-1.5,0-2.6-.4-3.4-1.2-.7-.8-1.1-2-1.1-3.7v-10.4Z"/>
    <path class="cls-1" d="M114.6,224.5h1.9v14.5c.8-.7,1.7-1.5,2.7-2.4,1-.9,1.9-1.7,2.8-2.6.9-.9,1.8-1.7,2.5-2.4h2.2c-.8.8-1.6,1.6-2.6,2.5-1,.9-2,1.8-3,2.7s-1.9,1.7-2.8,2.4c1,.9,2.1,1.9,3.2,2.9s2.2,2.1,3.3,3.1c1.1,1,2,1.9,2.7,2.7h-2.4c-.7-.7-1.5-1.6-2.5-2.5s-2-1.9-3.1-3c-1.1-1-2.1-1.9-3-2.8v8.3h-1.9v-23.6Z"/>
    <path class="cls-1" d="M131.1,227.4c-.3-.3-.4-.7-.4-1.1s.1-.8.4-1.1c.3-.3.6-.4,1-.4s.7.1,1,.4c.3.3.4.6.4,1.1s-.1.8-.4,1.1-.6.4-1,.4-.7-.1-1-.4ZM131.2,231.6h1.8v16.4h-1.8v-16.4Z"/>
    <path class="cls-1" d="M138.8,231.6h1.8v2.9c.6-1,1.3-1.8,2.3-2.4,1-.6,2.1-.9,3.3-.9s3,.5,4,1.6c1,1.1,1.5,2.6,1.5,4.5v10.7h-1.8v-10.6c0-1.4-.4-2.5-1.1-3.3-.7-.8-1.7-1.2-3-1.2s-2.3.4-3.2,1.1c-.9.7-1.6,1.6-1.9,2.6v11.6h-1.9v-16.4Z"/>
    <path class="cls-1" d="M170.5,248h-1.8v-2.9c-.5,1-1.3,1.8-2.2,2.4-1,.6-2.1.9-3.3.9s-2.5-.4-3.5-1.1c-1-.7-1.8-1.7-2.3-3s-.8-2.8-.8-4.6.3-3.3.8-4.6c.6-1.3,1.3-2.3,2.4-3,1-.7,2.2-1.1,3.6-1.1s2.2.3,3.2.9c.9.6,1.7,1.3,2.2,2.3v-9.9h1.8v23.6ZM168.7,243.2v-6.7c-.4-1.1-1-1.9-2-2.6-.9-.7-2-1.1-3.2-1.1s-2.8.6-3.8,1.9c-.9,1.3-1.4,3-1.4,5.2s.5,3.9,1.4,5.1c.9,1.3,2.2,1.9,3.8,1.9s2.2-.4,3.1-1.1c.9-.7,1.5-1.6,1.9-2.7Z"/>
    <path class="cls-1" d="M188.4,245.4l.2,1.8c-.6.4-1.4.6-2.2.8-.9.2-1.8.3-2.7.3-1.6,0-3-.4-4.2-1.1-1.2-.7-2.1-1.7-2.8-3-.7-1.3-1-2.9-1-4.7s.3-3.1.8-4.4,1.4-2.2,2.4-2.9c1-.7,2.3-1.1,3.8-1.1s3.4.6,4.4,1.9c1.1,1.3,1.6,3.1,1.6,5.6v.5c0,.2,0,.4,0,.6h-11.2c0,2.3.7,4,1.8,5.2,1.2,1.2,2.7,1.8,4.5,1.8s1.6-.1,2.4-.3c.8-.2,1.5-.6,2.1-1.1ZM186.9,238.4h0c0-1.9-.4-3.3-1.1-4.3-.7-1-1.8-1.4-3.2-1.4s-2.6.5-3.5,1.5-1.4,2.4-1.6,4.2h9.4Z"/>
    <path class="cls-1" d="M193.7,231.6h1.8v3.6c.5-1.2,1.3-2.2,2.2-2.9,1-.7,2.1-1.1,3.3-1.1s.4,0,.6,0c.2,0,.4,0,.5,0l-.2,2c-.4-.2-.8-.2-1.3-.2-.8,0-1.6.2-2.3.6-.7.4-1.3.9-1.8,1.6-.5.7-.9,1.4-1.1,2.2v10.6h-1.9v-16.4Z"/>
    <path class="cls-1" d="M214.4,247.2c-1.1.8-2.6,1.3-4.5,1.3s-1.8-.1-2.7-.3c-.9-.2-1.6-.5-2.2-.9l.2-1.9c.7.5,1.4.9,2.2,1.2.8.3,1.6.4,2.4.4,1.4,0,2.5-.3,3.2-.9.8-.6,1.1-1.4,1.1-2.3s-.1-1-.3-1.3-.6-.7-1.2-1.1c-.6-.3-1.4-.7-2.5-1.1-1.8-.6-3.1-1.3-3.8-2-.7-.7-1.1-1.6-1.1-2.6s.2-1.7.7-2.4c.5-.7,1.2-1.2,2-1.5.8-.4,1.8-.5,2.8-.5s1.6.1,2.4.3,1.4.5,2,.9l-.6,1.6c-1.1-.8-2.4-1.3-3.8-1.3s-2,.2-2.7.7c-.7.5-1.1,1.2-1.1,2.1s.3,1.3.9,1.8c.6.5,1.7,1,3.2,1.5,1.3.5,2.2.9,2.9,1.4.7.5,1.2,1,1.4,1.6.3.6.4,1.2.4,1.9,0,1.5-.6,2.7-1.7,3.5Z"/>
    <path class="cls-1" d="M232.9,245.4l.2,1.8c-.6.4-1.4.6-2.2.8-.9.2-1.8.3-2.7.3-1.6,0-3-.4-4.2-1.1-1.2-.7-2.1-1.7-2.8-3-.7-1.3-1-2.9-1-4.7s.3-3.1.8-4.4,1.4-2.2,2.4-2.9c1-.7,2.3-1.1,3.8-1.1s3.4.6,4.4,1.9c1.1,1.3,1.6,3.1,1.6,5.6v.5c0,.2,0,.4,0,.6h-11.2c0,2.3.7,4,1.8,5.2,1.2,1.2,2.7,1.8,4.5,1.8s1.6-.1,2.4-.3,1.5-.6,2.1-1.1ZM231.4,238.4h0c0-1.9-.4-3.3-1.1-4.3-.7-1-1.8-1.4-3.2-1.4s-2.6.5-3.5,1.5c-.9,1-1.4,2.4-1.6,4.2h9.4Z"/>
    <path class="cls-1" d="M250.3,245.4l.2,1.8c-.6.4-1.4.6-2.2.8-.9.2-1.8.3-2.7.3-1.6,0-3-.4-4.2-1.1-1.2-.7-2.1-1.7-2.8-3-.7-1.3-1-2.9-1-4.7s.3-3.1.8-4.4,1.4-2.2,2.4-2.9c1-.7,2.3-1.1,3.8-1.1s3.4.6,4.4,1.9c1.1,1.3,1.6,3.1,1.6,5.6v.5c0,.2,0,.4,0,.6h-11.2c0,2.3.7,4,1.8,5.2,1.2,1.2,2.7,1.8,4.5,1.8s1.6-.1,2.4-.3,1.5-.6,2.1-1.1ZM248.8,238.4h0c0-1.9-.4-3.3-1.1-4.3-.7-1-1.8-1.4-3.2-1.4s-2.6.5-3.5,1.5c-.9,1-1.4,2.4-1.6,4.2h9.4Z"/>
    <path class="cls-1" d="M255.6,224.5h1.9v19.3c0,1.1.2,1.8.6,2.3s1,.7,1.9.7,1.5-.2,2.1-.7l-.2,1.8c-.3.1-.6.2-1,.3-.4,0-.9.1-1.3.1-1.3,0-2.3-.4-3-1.1-.6-.7-1-1.8-1-3.3v-19.5Z"/>
    <path class="cls-1" d="M277.7,245.4l.2,1.8c-.6.4-1.4.6-2.2.8-.9.2-1.8.3-2.7.3-1.6,0-3-.4-4.2-1.1-1.2-.7-2.1-1.7-2.8-3-.7-1.3-1-2.9-1-4.7s.3-3.1.8-4.4,1.4-2.2,2.4-2.9c1-.7,2.3-1.1,3.8-1.1s3.4.6,4.4,1.9c1.1,1.3,1.6,3.1,1.6,5.6v.5c0,.2,0,.4,0,.6h-11.2c0,2.3.7,4,1.8,5.2,1.2,1.2,2.7,1.8,4.5,1.8s1.6-.1,2.4-.3,1.5-.6,2.1-1.1ZM276.2,238.4h0c0-1.9-.4-3.3-1.1-4.3-.7-1-1.8-1.4-3.2-1.4s-2.6.5-3.5,1.5c-.9,1-1.4,2.4-1.6,4.2h9.4Z"/>
    <path class="cls-1" d="M298.6,247.2c-1.1.8-2.6,1.3-4.5,1.3s-1.8-.1-2.7-.3c-.9-.2-1.6-.5-2.2-.9l.2-1.9c.7.5,1.4.9,2.2,1.2.8.3,1.6.4,2.4.4,1.4,0,2.5-.3,3.2-.9.8-.6,1.1-1.4,1.1-2.3s-.1-1-.3-1.3-.6-.7-1.2-1.1c-.6-.3-1.4-.7-2.5-1.1-1.8-.6-3.1-1.3-3.8-2-.7-.7-1.1-1.6-1.1-2.6s.2-1.7.7-2.4c.5-.7,1.2-1.2,2-1.5.8-.4,1.8-.5,2.8-.5s1.6.1,2.4.3,1.4.5,2,.9l-.6,1.6c-1.1-.8-2.4-1.3-3.8-1.3s-2,.2-2.7.7c-.7.5-1.1,1.2-1.1,2.1s.3,1.3.9,1.8c.6.5,1.7,1,3.2,1.5,1.3.5,2.2.9,2.9,1.4.7.5,1.2,1,1.4,1.6.3.6.4,1.2.4,1.9,0,1.5-.6,2.7-1.7,3.5Z"/>
    <path class="cls-1" d="M306.3,246.1c-1.3-1.5-2-3.7-2-6.4s.3-3.2.9-4.5c.6-1.3,1.5-2.3,2.6-3,1.1-.7,2.4-1.1,3.9-1.1s1.6.1,2.4.3c.8.2,1.4.5,2,.9l-.5,1.7c-.6-.4-1.2-.8-1.8-1-.7-.2-1.3-.3-2-.3-1.7,0-3.1.6-4.1,1.9-1,1.2-1.5,2.9-1.5,5.1s.5,4,1.5,5.3c1,1.3,2.5,1.9,4.3,1.9s1.5-.1,2.2-.3c.7-.2,1.3-.5,1.8-.9l.2,1.9c-.5.3-1.2.5-1.9.7-.8.2-1.6.3-2.4.3-2.4,0-4.2-.8-5.5-2.3Z"/>
    <path class="cls-1" d="M320.8,224.5h1.9v9.9c.6-1,1.3-1.7,2.3-2.3,1-.6,2-.9,3.3-.9s3,.5,4,1.6,1.5,2.6,1.5,4.5v10.7h-1.8v-10.6c0-1.4-.4-2.5-1.1-3.3-.7-.8-1.7-1.2-3-1.2s-2.3.4-3.2,1.1-1.5,1.6-1.9,2.6v11.6h-1.9v-23.6Z"/>
    <path class="cls-1" d="M348.3,234.5l-4.1,13.5h-1.5c-1.8-5.5-3.5-11-5.2-16.5h2c.6,2.3,1.3,4.5,2,6.8.7,2.2,1.4,4.5,2,6.7l4-13.2h1.6l4,13.4c.7-2.3,1.4-4.6,2.1-6.9.7-2.3,1.4-4.5,2-6.8h1.8c-1.7,5.5-3.4,11-5.2,16.5h-1.4l-4.1-13.5Z"/>
    <path class="cls-1" d="M374.8,245.4l.2,1.8c-.6.4-1.4.6-2.2.8-.9.2-1.8.3-2.7.3-1.6,0-3-.4-4.2-1.1-1.2-.7-2.1-1.7-2.8-3-.7-1.3-1-2.9-1-4.7s.3-3.1.8-4.4,1.4-2.2,2.4-2.9c1-.7,2.3-1.1,3.8-1.1s3.4.6,4.4,1.9c1.1,1.3,1.6,3.1,1.6,5.6v.5c0,.2,0,.4,0,.6h-11.2c0,2.3.7,4,1.8,5.2,1.2,1.2,2.7,1.8,4.5,1.8s1.6-.1,2.4-.3,1.5-.6,2.1-1.1ZM373.4,238.4h0c0-1.9-.4-3.3-1.1-4.3-.7-1-1.8-1.4-3.2-1.4s-2.6.5-3.5,1.5c-.9,1-1.4,2.4-1.6,4.2h9.4Z"/>
    <path class="cls-1" d="M380.1,227.4c-.3-.3-.4-.7-.4-1.1s.1-.8.4-1.1c.3-.3.6-.4,1-.4s.7.1,1,.4c.3.3.4.6.4,1.1s-.1.8-.4,1.1-.6.4-1,.4-.7-.1-1-.4ZM380.2,231.6h1.8v16.4h-1.8v-16.4Z"/>
    <path class="cls-1" d="M388.8,246.6h9.5v1.5h-11.7v-1.3l9.3-13.6h-9.1v-1.5h11.2v1.3l-9.3,13.6Z"/>
  </g>
</svg>