<?xml version="1.0" encoding="UTF-8"?>
<svg id="Ebene_1" data-name="Ebene 1" xmlns="http://www.w3.org/2000/svg" version="1.1" viewBox="0 0 196.5 200.3">
  <defs>
    <style>
      .cls-1 {
        fill: #f8fafc;
        stroke-width: 0px;
      }
    </style>
  </defs>
  <path class="cls-1" d="M5.4,178.3c.3-2.3.8-4.6.8-6.9.1-33.5.2-67,.2-100.4,0-1.8.2-3.6.3-6h45.1v33.9c.4,0,.8.2,1.2.2,4.9-7.8,9.7-15.8,14.7-23.5,8.9-13.7,3.6-10.8,20.2-11.3,16.8-.5,33.5-1.4,50.3-1.8,15.9-.4,31.5,2,46.6,7.2.9.3,1.7,1,2.9,1.7-2.7,8.8-5.3,17.5-8.1,26.6-3.4-.9-6.2-1.8-9.1-2.3-7.4-1-14.8-1.8-22.2-2.7-.8,0-1.7,0-2.5.1-6.8.8-11.8,4.5-12.2,9.2-.4,4.7,3.1,7.9,10.6,10.1,8.9,2.7,18.1,4.7,26.5,8.6,21.4,10,27.9,34.4,15,54.3-8.5,13.1-21.5,18.5-36.1,20.6-6.4.9-12.9,1-19.4,1.1-16.6.1-33.3-.1-49.9,0-4.5,0-7.3-1.1-9.5-5.4-5.7-10.9-12-21.5-19.1-32.1v36.5c-2,.4-3.3.9-4.5.9-12.5,0-25,0-37.4,0-1.5,0-2.9-.6-4.4-.9,0-6,0-12,0-18ZM90.8,114.2c-2.5,3.5-3.9,5.9-5.8,8-3.1,3.5-2.7,6.4,0,10.2,5.9,8.4,11.4,17.2,17.1,25.8,1,1.5,2.2,3.4,3.7,3.9,10.7,3.7,21.6,6.8,33.1,4,4.2-1,7.9-3.1,8.4-8,.5-5.3-3.1-7.8-7.4-9.3-5.6-2-11.3-4-17-5.7-14.8-4.4-27.5-11.1-32-28.8Z"/>
  <path class="cls-1" d="M51.4,3.3c.3,2.3,1,4.5,1,6.8.1,10.4,0,20.9,0,31.9H7.4c-.3-1.1-.8-2.2-.8-3.3,0-10.5,0-21,0-31.5,0-1.3.5-2.6.8-3.9,14.7,0,29.3,0,44,0Z"/>
</svg>