<svg xmlns="http://www.w3.org/2000/svg" data-name="Ebene 1" viewBox="0 0 165.94 86.89"><path d="M25.28 40.67c0-.47-.18-.91-.52-1.24-.67-.67-1.82-.67-2.48 0L3.47 58.25c-.69.69-.69 1.8 0 2.48.33.33.77.52 1.24.52s.91-.18 1.24-.52l18.82-18.82c.33-.33.52-.78.52-1.24Zm4.62 5.95c-.32-.32-.77-.5-1.24-.5s-.92.18-1.24.5L12.21 61.84c-.33.33-.52.77-.52 1.24s.18.91.52 1.24c.33.33.77.52 1.24.52s.91-.18 1.24-.52L29.9 49.1c.69-.69.69-1.8 0-2.48m18.95-7.23c-.66-.66-1.82-.66-2.48 0L25.56 59.98c-.33.33-.52.77-.52 1.24s.18.91.52 1.24a1.75 1.75 0 0 0 2.48.01l20.81-20.59c.33-.33.52-.77.52-1.24s-.18-.91-.52-1.24Zm17.84 39.3c-.77-.59-1.79-.89-3.06-.89h-1.76v8.41h2.01c1.1 0 2.03-.32 2.8-.96s1.16-1.74 1.16-3.29-.39-2.69-1.16-3.28Zm-.81 5.89c-.49.48-1.12.72-1.91.72h-.94v-6.57h.86q.795 0 1.38.24c.39.16.71.48.97.95.25.48.38 1.16.38 2.04 0 1.26-.24 2.14-.73 2.61Zm7.95.14v-2.95c0-.69-.19-1.21-.56-1.58s-.94-.56-1.7-.56c-.69 0-1.42.14-2.22.44l.28.82c.69-.23 1.26-.34 1.74-.34s.8.1 1.01.29c.22.2.33.52.33.98v.48h-.99c-.9 0-1.6.18-2.1.55-.49.37-.74.9-.74 1.57 0 .58.18 1.05.55 1.4q.555.54 1.5.54c.85 0 1.48-.32 1.92-.97q.15.465.45.69c.2.14.47.24.8.28l.25-.78a.9.9 0 0 1-.41-.29c-.09-.12-.14-.32-.14-.58Zm-1.12-.2c-.37.67-.87 1-1.52 1-.37 0-.65-.1-.83-.29-.19-.2-.28-.48-.28-.87 0-.88.59-1.32 1.78-1.32h.84v1.48ZM77.85 80c-.29.24-.52.61-.7 1.09l-.11-1.31h-.97v6.43h1.12v-3.68c.14-.62.33-1.08.57-1.37s.57-.44.97-.44c.18 0 .37.03.56.07l.21-1.1c-.2-.05-.41-.07-.63-.07-.39 0-.73.12-1.03.37Zm6.52-1.77c.2 0 .37-.07.51-.2.14-.14.2-.3.2-.5s-.07-.36-.2-.5c-.14-.14-.3-.2-.51-.2s-.36.07-.5.2-.2.3-.2.5.07.36.2.5.3.2.5.2m-2.55 0c.2 0 .36-.07.5-.2s.2-.3.2-.5-.07-.36-.2-.5-.3-.2-.5-.2-.37.07-.51.2c-.14.14-.2.3-.2.5s.07.36.2.5c.14.14.3.2.51.2m2.58 6.14c-.45.74-.99 1.11-1.61 1.11-.35 0-.6-.09-.76-.27s-.24-.5-.24-.93v-4.49h-1.12v4.62c0 .63.16 1.11.48 1.46.32.34.76.52 1.32.52.46 0 .84-.09 1.16-.27s.6-.48.84-.88l.08 1h.97v-6.43H84.4v4.59Zm6.33-4.73c-.75 0-1.36.32-1.82.95v-3.53l-1.12.14v9.03h.99l.11-.71c.46.57 1.03.86 1.71.86.52 0 .96-.14 1.35-.42s.67-.67.88-1.18.31-1.1.31-1.76c0-1.06-.22-1.88-.65-2.48-.43-.59-1.01-.89-1.74-.89Zm.76 5.23c-.28.41-.67.61-1.17.61-.27 0-.54-.08-.79-.24q-.375-.24-.63-.63v-3.08c.43-.67.93-1 1.5-1 .48 0 .85.2 1.11.58q.39.585.39 1.89c0 1.305-.14 1.47-.42 1.87Zm5.7-5.23c-.54 0-1.02.14-1.42.44s-.71.7-.93 1.22-.33 1.11-.33 1.78c0 1.03.25 1.83.75 2.42s1.2.88 2.1.88c.82 0 1.56-.27 2.25-.8l-.49-.67c-.29.2-.56.34-.82.42-.26.09-.55.14-.86.14-.49 0-.89-.17-1.2-.5s-.49-.86-.54-1.56h4.1c.01-.2.03-.39.03-.57 0-.99-.23-1.77-.69-2.33s-1.11-.84-1.97-.84Zm1.54 2.92h-3.02c.08-1.35.58-2.03 1.5-2.03.5 0 .88.16 1.14.5.25.33.38.82.38 1.45v.07Zm4.62-2.56c-.29.24-.52.61-.7 1.09l-.11-1.31h-.97v6.43h1.12v-3.68c.14-.62.33-1.08.57-1.37s.57-.44.97-.44c.18 0 .37.03.56.07l.21-1.1c-.2-.05-.4-.07-.63-.07-.39 0-.73.12-1.03.37Zm7.83 0c-.29.24-.52.61-.7 1.09l-.11-1.31h-.97v6.43h1.12v-3.68c.14-.62.33-1.08.57-1.37s.57-.44.97-.44c.18 0 .37.03.56.07l.21-1.1c-.2-.05-.4-.07-.63-.07-.39 0-.73.12-1.03.37Zm4.72-.36c-.54 0-1.02.14-1.43.44-.4.29-.71.7-.93 1.22s-.33 1.11-.33 1.78c0 1.03.25 1.83.75 2.42s1.2.88 2.1.88c.82 0 1.56-.27 2.25-.8l-.49-.67c-.29.2-.56.34-.82.42-.26.09-.55.14-.86.14-.49 0-.89-.17-1.19-.5-.31-.33-.49-.86-.54-1.56h4.1c.01-.2.03-.39.03-.57 0-.99-.23-1.77-.69-2.33s-1.11-.84-1.97-.84Zm1.54 2.92h-3.02c.08-1.35.58-2.03 1.5-2.03.5 0 .88.16 1.14.5.25.33.38.82.38 1.45v.07Zm6.71-2.13c-.5-.53-1.08-.79-1.74-.79-.52 0-.96.14-1.35.43s-.68.69-.88 1.2c-.2.52-.31 1.1-.31 1.76 0 1.02.22 1.83.64 2.43.43.6 1.03.9 1.79.9.39 0 .75-.09 1.07-.27s.58-.44.79-.76l.11.89h.99v-9.03l-1.12-.14v3.37h.01Zm0 4.09c-.23.32-.46.56-.71.71-.24.16-.54.24-.88.24-.47 0-.84-.2-1.08-.61-.26-.41-.38-1.03-.38-1.86s.14-1.44.41-1.86c.28-.42.66-.62 1.16-.62.3 0 .58.07.81.22.24.14.46.35.68.63v3.15Zm5.6-4.88c-.54 0-1.02.14-1.42.44s-.71.7-.93 1.22-.33 1.11-.33 1.78c0 1.03.25 1.83.75 2.42s1.2.88 2.1.88c.82 0 1.56-.27 2.25-.8l-.49-.67c-.29.2-.55.34-.82.42-.26.09-.55.14-.86.14-.49 0-.89-.17-1.2-.5s-.49-.86-.54-1.56h4.1c.01-.2.03-.39.03-.57 0-.99-.23-1.77-.69-2.33s-1.11-.84-1.97-.84Zm1.54 2.92h-3.02c.08-1.35.58-2.03 1.5-2.03.5 0 .88.16 1.14.5.25.33.38.82.38 1.45v.07Zm5.87-2.92c-.4 0-.78.1-1.12.29s-.62.46-.85.8l-.1-.95h-.97v6.43h1.12v-4.57c.23-.37.47-.65.73-.84.26-.2.56-.29.9-.29s.59.09.76.28.25.51.25.97v4.46H139V81.6c0-.61-.16-1.09-.5-1.44-.33-.35-.79-.52-1.37-.52Zm10.28 0c-.76 0-1.4.35-1.91 1.04v-3.59l-1.12.12v9.02h1.12v-4.58c.23-.36.47-.63.73-.83s.56-.29.9-.29.59.09.76.28c.18.19.26.51.26.97v4.46h1.12v-4.62c0-.61-.16-1.09-.5-1.44-.33-.35-.79-.52-1.37-.52Zm4.62-2.95c-.23 0-.42.07-.56.22-.14.14-.22.33-.22.55s.07.4.22.54c.14.14.33.22.56.22s.43-.07.58-.22c.14-.14.22-.33.22-.54s-.07-.4-.22-.55a.8.8 0 0 0-.58-.22m.56 3.09h-1.12v6.43h1.12zm3.73 5.66c-.14 0-.25-.04-.31-.12q-.09-.12-.09-.39v-7.87l-1.12.14v7.76q0 .675.36 1.05c.24.25.57.37.99.37.33 0 .62-.07.89-.22l-.29-.78c-.12.05-.26.07-.42.07Zm3.29-6.55c0-.32.07-.55.22-.71s.39-.23.73-.23c.39 0 .76.08 1.12.24l.35-.82a4.7 4.7 0 0 0-.75-.25c-.24-.05-.5-.08-.79-.08-.63 0-1.13.17-1.48.51s-.53.78-.53 1.34v.88h-1.15v.87h1.15v5.57h1.12v-5.57h1.44l.12-.87h-1.56v-.9Z" style="fill:#1b2e47;stroke-width:0"/><path d="M165.26 85.18c-.32.17-.6.25-.86.25-.27 0-.48-.07-.59-.23-.12-.15-.18-.39-.18-.73v-3.83h1.4l.12-.87h-1.53v-1.59l-1.12.14v1.46h-1.12v.87h1.12v3.89c0 .59.15 1.05.46 1.37.31.31.73.47 1.27.47s1.02-.14 1.44-.44l-.43-.74Z" style="fill:#1b2e47;stroke-width:0"/><path d="m56.56 34.49 13.58-13.58c2.25-2.16 3.63-4.61 4.27-7.04C76.21 7 72.01.22 64.24.22c-.13 0-.27-.01-.41-.01-2.62 0-6.15 1.72-8.55 4.4-2.4-2.69-5.82-4.4-8.44-4.4-.14 0-.27 0-.41.01-10.51 0-14.19 13.03-6.08 20.85l12.58 12.52.91.9c.38.37.87.56 1.36.56s.99-.19 1.37-.57Z" style="fill:#e81010;stroke-width:0"/><path d="M88.74 54.04H77.1l10.22-22.96h-4.65l-11.9 26.43v.35h17.97v7h4.21V45.48h-4.21zm24.28-9.55c-1.36-.74-2.89-1.13-4.57-1.23l9.47-11.84v-.34H97.99v3.87h12.48l-8.66 10.87v.39c.42-.07.88-.11 1.35-.15.47-.03 1.05-.05 1.74-.05 1.83 0 3.4.29 4.72.86s2.35 1.38 3.08 2.42c.73 1.05 1.1 2.29 1.1 3.72q0 2.55-1.32 4.38c-.88 1.22-2.13 2.17-3.74 2.84s-3.57 1.01-5.85 1.01c-.88 0-1.67-.03-2.35-.07-.69-.05-1.29-.12-1.81-.22v3.82c.56.1 1.23.18 2.03.24.8.07 1.55.1 2.27.1 3.1 0 5.77-.49 8-1.47s3.97-2.37 5.19-4.19c1.22-1.81 1.83-3.96 1.83-6.44q0-2.835-1.35-5.04c-.9-1.47-2.13-2.63-3.7-3.48Zm9.57 15.64q-1.125 0-1.86.75c-.49.5-.73 1.1-.73 1.8s.24 1.34.73 1.84q.735.75 1.86.75c1.125 0 1.33-.25 1.82-.75s.73-1.12.73-1.84-.24-1.3-.73-1.8-1.1-.75-1.82-.75m17.99 1.06c-2.65 0-4.75-.69-6.32-2.08-1.57-1.38-2.35-3.29-2.35-5.7 0-1.5.37-2.82 1.1-3.94s1.76-2 3.08-2.62q1.98-.93 4.53-.93c.46 0 .92.03 1.37.1.46.07.88.13 1.27.2v-3.87q-.54-.15-1.35-.24c-.54-.07-1.08-.1-1.64-.1-2.55 0-4.76.48-6.63 1.42-1.88.95-3.35 2.27-4.41 3.99q-1.59 2.565-1.59 6c0 3.435.52 4.45 1.54 6.19 1.03 1.74 2.49 3.11 4.38 4.09s4.1 1.47 6.61 1.47c.56 0 1.12-.03 1.71-.1q.885-.105 1.47-.24v-3.91c-.46.13-.92.21-1.4.24s-.94.05-1.4.05Zm23.01-17.55c-1.27-1.39-3.04-2.08-5.28-2.08-1.54 0-2.94.39-4.21 1.18-.78.48-1.41 1.06-1.91 1.72V29.62h-4.11v35.25h4.11V48.18c.46-.85 1.14-1.52 2.03-2.01.9-.49 1.85-.73 2.86-.73 1.37 0 2.43.42 3.18 1.25s1.12 2 1.12 3.5v14.69h4.11V49.31c0-2.38-.63-4.27-1.91-5.65ZM61.91 35.4v29.46h4.26V31.14zM29.29 21.32c-.16-.16-.37-.22-.67-.23l-13.54 3.02c-1.25.27-2.33.4-3.29.4-1.95 0-3.43-.56-4.38-1.65l-.04-.05 24.01-11.34c-.05-1.36.07-2.71.35-4.05L3.52 20.73c-.3.14-.52.39-.63.71-.1.33-.07.67.08.97 2.03 3.73 5.17 5.7 9.11 5.7 1.29 0 2.65-.22 4.04-.64l7.9-2.15L.51 48.86c-.69.69-.69 1.8 0 2.48.33.33.77.52 1.24.52s.91-.18 1.24-.52l27.56-27.57c.16-.16.24-.37.24-.6s-.09-.44-.25-.59l-1.26-1.25Z" style="fill:#1b2e47;stroke-width:0"/></svg>