<svg xmlns="http://www.w3.org/2000/svg" viewBox="0 0 107.84 50.73"><g style="isolation:isolate"><path d="M57.92 23.73v-.99h.79v.99zm0 5.58v-4.7h.79v4.7zm6.28 0h-.79v-2.63c0-.5-.08-.87-.23-1.1s-.39-.34-.7-.34c-.16 0-.32.03-.49.09-.16.06-.32.15-.46.26s-.27.24-.38.39-.19.32-.24.5v2.83h-.79v-4.7h.72v1.01c.19-.33.46-.59.81-.79s.73-.3 1.15-.3c.27 0 .5.05.67.15.18.1.32.24.43.41.11.18.18.39.23.63s.07.5.07.78zm3.02.09c-.38 0-.75-.06-1.12-.18a2.7 2.7 0 0 1-.94-.51l.34-.53c.28.21.55.37.83.47s.57.16.87.16c.34 0 .61-.07.81-.2s.3-.33.3-.57c0-.11-.03-.21-.08-.29a.7.7 0 0 0-.24-.21c-.11-.06-.25-.11-.41-.16-.17-.05-.36-.1-.58-.15-.28-.07-.53-.14-.73-.21s-.37-.14-.5-.23-.23-.2-.29-.32c-.06-.13-.09-.28-.09-.47 0-.23.05-.44.14-.62s.22-.34.38-.46.35-.22.57-.28.45-.09.71-.09c.35 0 .68.06.99.17s.56.26.77.45l-.36.48c-.2-.17-.42-.3-.67-.39s-.5-.13-.76-.13c-.29 0-.53.06-.73.18s-.3.32-.3.59q0 .165.06.27c.06.105.1.13.19.19.09.05.21.1.35.14s.31.09.51.13c.31.07.58.15.81.22.23.08.42.16.58.27.15.1.27.22.34.36s.11.31.11.5c0 .44-.17.79-.5 1.04s-.79.39-1.36.39Zm5.36-.32s-.11.05-.19.09-.17.07-.27.1-.21.06-.32.08c-.12.02-.24.03-.37.03q-.435 0-.75-.24c-.21-.16-.32-.41-.32-.74v-3.16h-.64v-.62h.64v-1.57h.79v1.57h1.05v.62h-1.05v2.92c.01.17.07.3.17.38s.22.12.36.12c.16 0 .3-.03.43-.08q.195-.075.27-.12l.19.63Zm.87-5.35v-.99h.79v.99zm0 5.58v-4.7h.79v4.7zm4.64-.23s-.11.05-.19.09-.17.07-.27.1-.21.06-.32.08c-.12.02-.24.03-.37.03q-.435 0-.75-.24c-.21-.16-.32-.41-.32-.74v-3.16h-.64v-.62h.64v-1.57h.79v1.57h1.05v.62h-1.05v2.92c.01.17.07.3.17.38s.22.12.36.12c.16 0 .3-.03.43-.08q.195-.075.27-.12l.19.63Zm2.32.32c-.49 0-.86-.17-1.12-.5s-.38-.82-.38-1.48V24.6h.79v2.66c0 .96.33 1.44 1 1.44.32 0 .63-.1.91-.31s.5-.49.63-.85V24.6h.79v3.73c0 .19.08.28.25.29v.68c-.09.01-.16.02-.21.02h-.15c-.16 0-.29-.05-.39-.14a.5.5 0 0 1-.17-.35l-.02-.55c-.21.35-.49.62-.83.81s-.72.28-1.12.28Zm6.53-.32s-.11.05-.19.09-.17.07-.27.1-.21.06-.32.08c-.12.02-.24.03-.37.03q-.435 0-.75-.24c-.21-.16-.32-.41-.32-.74v-3.16h-.64v-.62h.64v-1.57h.79v1.57h1.05v.62h-1.05v2.92c.01.17.07.3.17.38s.22.12.36.12c.16 0 .3-.03.43-.08q.195-.075.27-.12l.19.63ZM61.23 40.11l-1.62-2.3-.9.85v1.45h-.79v-6.57h.79v4.32l2.41-2.44h.87l-1.87 1.94 1.96 2.75zm1.68-5.58v-.99h.79v.99zm0 5.58v-4.7h.79v4.7zm6.28 0h-.79v-2.63c0-.5-.08-.87-.23-1.1s-.38-.34-.7-.34c-.16 0-.32.03-.49.09-.16.06-.32.15-.46.26s-.27.24-.38.39-.19.32-.24.5v2.84h-.79v-4.7h.72v1.01c.19-.33.45-.59.81-.79.35-.2.73-.3 1.15-.3.27 0 .5.05.67.15.18.1.32.24.43.41.11.18.18.39.23.63s.07.5.07.78v2.81Zm3.3.09c-.32 0-.62-.07-.9-.2s-.51-.31-.71-.53-.35-.48-.46-.77-.17-.6-.17-.93.05-.64.16-.94c.1-.3.25-.56.44-.78s.41-.4.67-.53.55-.19.86-.19c.38 0 .72.1 1.01.3.3.2.53.44.71.72v-2.81h.79v5.6c0 .19.08.28.25.29v.68c-.08.01-.15.02-.2.03h-.15c-.16 0-.29-.05-.41-.16a.48.48 0 0 1-.17-.37v-.4c-.19.31-.43.54-.74.72-.31.17-.63.26-.98.26Zm.19-.68a1.53 1.53 0 0 0 .88-.31c.13-.1.25-.21.35-.34s.16-.27.19-.41v-1.35a1.4 1.4 0 0 0-.24-.43c-.11-.13-.23-.25-.36-.35s-.28-.18-.43-.23c-.15-.06-.3-.08-.46-.08-.23 0-.45.05-.63.15a1.66 1.66 0 0 0-.8.97c-.07.22-.11.43-.11.65 0 .23.04.46.13.67s.2.4.34.55c.14.16.31.28.51.37s.41.14.63.14m5.75.68c-.35 0-.68-.06-.97-.19s-.55-.31-.76-.53-.37-.48-.49-.78-.17-.61-.17-.94.06-.64.17-.94.28-.55.5-.77c.21-.22.47-.4.76-.53s.62-.19.97-.19.68.07.97.2.54.31.74.53.36.47.47.77.17.59.17.9v.18c0 .05 0 .1-.01.13h-3.9c.02.23.07.45.16.64s.21.36.35.5.31.25.49.32c.18.08.38.12.58.12q.21 0 .42-.06c.14-.04.27-.09.39-.16s.23-.15.32-.24.16-.2.21-.32l.68.19c-.08.17-.18.33-.32.48-.13.14-.29.27-.47.37s-.37.19-.59.25-.44.09-.67.09Zm1.61-2.75c-.02-.22-.07-.43-.17-.62a1.57 1.57 0 0 0-1.43-.9c-.21 0-.41.04-.59.11-.19.08-.35.18-.49.31-.14.14-.26.3-.34.48-.09.19-.14.39-.16.61h3.19Zm4.25-1.35c-.4.01-.75.11-1.05.31-.3.19-.52.46-.64.8v2.9h-.79v-4.7h.74v1.09c.16-.32.38-.59.64-.79s.55-.31.85-.34h.26v.72Zm2.56 4.1c-.38 0-.75-.06-1.12-.18a2.7 2.7 0 0 1-.94-.51l.34-.53c.28.21.55.37.83.47s.57.16.87.16c.34 0 .61-.07.81-.2s.3-.33.3-.57c0-.11-.03-.21-.08-.29a.7.7 0 0 0-.24-.21c-.11-.06-.25-.11-.41-.16-.17-.05-.36-.1-.58-.15-.28-.07-.53-.14-.73-.21s-.37-.14-.5-.23-.23-.2-.29-.32c-.06-.13-.09-.28-.09-.47 0-.23.05-.44.14-.62s.22-.34.38-.46.35-.22.57-.28.45-.09.71-.09c.35 0 .68.06.99.17s.56.26.77.45l-.36.48c-.2-.17-.42-.3-.67-.39s-.5-.13-.76-.13c-.29 0-.53.06-.73.18s-.3.32-.3.59q0 .165.06.27c.06.105.1.13.19.19.09.05.21.1.35.14s.31.09.51.13c.31.07.58.15.81.22.23.08.42.16.58.27.15.1.27.22.34.36s.11.31.11.5c0 .44-.17.79-.5 1.04-.34.26-.79.39-1.36.39Zm5.02 0c-.35 0-.68-.06-.97-.19s-.55-.31-.76-.53-.37-.48-.49-.78-.18-.61-.18-.94.06-.64.18-.94.28-.55.5-.77c.21-.22.47-.4.76-.53s.62-.19.97-.19.68.07.97.2.54.31.74.53.36.47.47.77c.11.29.17.59.17.9v.18c0 .05 0 .1-.01.13h-3.9c.02.23.07.45.16.64s.21.36.35.5.31.25.49.32a1.47 1.47 0 0 0 1 .06c.14-.04.27-.09.39-.16s.23-.15.32-.24c.09-.1.16-.2.21-.32l.68.19c-.08.17-.18.33-.32.48-.14.14-.29.27-.47.37s-.37.19-.59.25-.44.09-.68.09Zm1.61-2.75c-.02-.22-.07-.43-.17-.62a1.57 1.57 0 0 0-1.43-.9c-.21 0-.41.04-.59.11-.19.08-.35.18-.49.31-.14.14-.25.3-.34.48-.09.19-.14.39-.16.61h3.19Zm3.84 2.75c-.35 0-.68-.06-.97-.19s-.55-.31-.76-.53-.37-.48-.49-.78-.17-.61-.17-.94.06-.64.17-.94.28-.55.5-.77c.21-.22.47-.4.76-.53s.62-.19.97-.19.68.07.97.2.54.31.74.53.36.47.47.77.17.59.17.9v.18c0 .05 0 .1-.01.13h-3.9c.02.23.07.45.16.64s.21.36.35.5.31.25.49.32c.18.08.38.12.58.12q.21 0 .42-.06c.14-.04.27-.09.39-.16s.23-.15.32-.24.16-.2.21-.32l.68.19c-.08.17-.18.33-.32.48-.13.14-.29.27-.47.37s-.37.19-.59.25-.44.09-.67.09Zm1.61-2.75c-.02-.22-.07-.43-.17-.62a1.57 1.57 0 0 0-1.43-.9c-.21 0-.41.04-.59.11-.19.08-.35.18-.49.31-.14.14-.26.3-.34.48-.09.19-.14.39-.16.61h3.19Zm1.78-3.91h.79v5.36c0 .17.05.31.14.41q.135.15.39.15c.07 0 .14 0 .23-.03.09-.02.17-.05.25-.08l.13.64c-.13.05-.29.1-.47.13-.18.04-.34.05-.48.05-.31 0-.55-.09-.72-.26-.18-.17-.26-.42-.26-.73zm4.77 6.66c-.35 0-.68-.06-.97-.19s-.55-.31-.76-.53-.37-.48-.49-.78-.17-.61-.17-.94.06-.64.17-.94.28-.55.5-.77c.21-.22.47-.4.76-.53s.62-.19.97-.19.68.07.97.2.54.31.74.53.36.47.47.77.17.59.17.9v.18c0 .05 0 .1-.01.13h-3.9c.02.23.07.45.16.64s.21.36.35.5.31.25.49.32c.18.08.38.12.58.12q.21 0 .42-.06c.14-.04.27-.09.39-.16s.23-.15.32-.24.16-.2.21-.32l.68.19c-.08.17-.18.33-.32.48-.13.14-.29.27-.47.37s-.37.19-.59.25-.44.09-.67.09Zm1.62-2.75c-.02-.22-.07-.43-.17-.62a1.57 1.57 0 0 0-1.43-.9c-.21 0-.41.04-.59.11-.19.08-.35.18-.49.31-.14.14-.26.3-.34.48-.09.19-.14.39-.16.61h3.19ZM59.57 50.6c-.38 0-.75-.06-1.12-.18s-.68-.29-.95-.51l.34-.53c.28.21.55.37.83.47s.57.16.87.16c.34 0 .61-.07.81-.2s.3-.33.3-.57c0-.11-.03-.21-.08-.29s-.13-.15-.24-.21-.25-.11-.41-.16c-.17-.05-.36-.1-.58-.15-.28-.07-.52-.14-.73-.21s-.37-.14-.5-.23a.9.9 0 0 1-.29-.32c-.06-.13-.09-.28-.09-.47 0-.23.05-.44.14-.62s.22-.34.38-.46.35-.22.57-.28.46-.09.71-.09c.35 0 .68.06.99.17s.56.26.77.45l-.36.48c-.2-.17-.42-.3-.67-.39s-.5-.13-.76-.13c-.29 0-.53.06-.73.18s-.3.32-.3.59q0 .165.06.27c.06.105.1.13.19.19.09.05.21.1.35.14s.31.09.51.13c.31.07.58.15.81.22.23.08.42.16.58.27.15.1.27.22.34.36.08.14.11.31.11.5 0 .44-.17.79-.5 1.04s-.79.39-1.36.39Zm2.62-2.45c0-.33.06-.64.17-.94a2.3 2.3 0 0 1 1.24-1.29c.29-.13.62-.19.98-.19.47 0 .87.1 1.21.31s.6.48.77.83l-.77.24c-.12-.22-.29-.39-.5-.52a1.5 1.5 0 0 0-.72-.18c-.22 0-.42.04-.61.13s-.36.21-.5.37-.25.34-.33.55-.12.44-.12.69.04.48.13.69.2.4.34.56.31.28.49.37c.19.09.39.13.61.13.14 0 .27-.02.41-.06s.26-.09.37-.16.21-.14.29-.23.14-.18.18-.28l.77.23q-.105.255-.3.48c-.13.14-.28.27-.45.37a2.5 2.5 0 0 1-1.25.33 2.37 2.37 0 0 1-1.73-.73 2.5 2.5 0 0 1-.66-1.72Zm9.51 2.36h-.79v-2.63c0-.49-.08-.85-.25-1.08-.17-.24-.41-.36-.74-.36-.16 0-.31.03-.47.09s-.3.15-.44.26q-.195.165-.36.39c-.11.15-.18.32-.24.5v2.83h-.79v-6.57h.79v2.88c.19-.34.44-.61.76-.8s.67-.29 1.04-.29c.28 0 .51.05.7.15s.34.24.46.41c.11.17.2.38.25.62s.08.5.08.78v2.81Zm7.25-4.7h.76l-2 4.7h-.66l-.94-2.29-.94 2.29h-.66l-2-4.7h.76l1.62 3.92.79-1.95-.81-1.95h.66l.58 1.5.58-1.5h.66l-.8 1.95.79 1.95zm3.72 4.79c-.35 0-.68-.06-.97-.19s-.55-.3-.76-.53a2.5 2.5 0 0 1-.66-1.72c0-.33.06-.64.17-.94s.28-.55.5-.77c.21-.22.47-.4.76-.53s.62-.19.97-.19.68.07.97.2.54.31.74.53.36.47.47.77.17.59.17.9v.18c0 .05 0 .1-.01.13h-3.9c.02.23.07.45.16.64s.21.36.35.5.31.25.49.32c.18.08.38.12.58.12q.21 0 .42-.06c.14-.04.27-.09.39-.16s.23-.15.32-.24.16-.2.21-.32l.68.19c-.08.17-.18.33-.32.48-.13.14-.29.27-.47.37s-.37.19-.59.25-.44.09-.67.09Zm1.61-2.75c-.02-.22-.07-.43-.17-.62a1.57 1.57 0 0 0-1.43-.9c-.21 0-.41.04-.59.11-.19.08-.35.18-.49.31-.14.14-.26.3-.34.48-.09.19-.14.39-.16.61h3.19Zm1.76-2.92v-.99h.79v.99zm0 5.58v-4.7h.79v4.7zm1.84-.51 3.01-3.61h-2.92v-.58h3.77v.51l-2.99 3.61h3v.58h-3.86V50ZM49.19 39.21c0-5.2-3.22-8.35-10.33-10.13l-1.92-.48c-2.4-.62-3.22-1.23-3.22-2.67 0-1.64 1.71-2.67 4.45-2.67 2.53 0 3.22.14 7.73 1.44l2.19-7.25c-4.17-1.51-8.08-2.19-12.32-2.19-8.21 0-13.62 4.38-13.62 11.16 0 3.49 1.37 6.36 3.9 8 1.64 1.1 3.22 1.64 6.98 2.81l1.51.48c1.99.61 2.88 1.44 2.88 2.6 0 1.57-1.64 2.6-4.24 2.6-2.4 0-4.65-.48-8.97-1.92l-2.39 7.8c4.45 1.44 8.48 2.12 12.32 2.12 9.24 0 15.06-4.52 15.06-11.7M.01 15.82l-.08 34.91h11.95V15.82zm0-5.9h11.86V.01H.01z" style="fill:#1b2e47;stroke-width:0"/><path d="m21.82 48.79 1.75-5.7zc3.15 1.02 6.09 1.66 8.9 1.94-2.81-.29-5.76-.93-8.91-1.95Z" style="fill:#1b2e47;stroke-width:0"/><path d="m21.82 48.79 1.75-5.7zc3.15 1.02 6.09 1.66 8.9 1.94-2.81-.29-5.76-.93-8.91-1.95Z" style="fill:#1b2e47;stroke-width:0"/><path d="m25.91 41.54-6.07-9.16 2.54-3.65c-.03-.14-.04-.29-.06-.43.02.14.03.29.06.43l8.98-12.9H18.11l-6.13 9.82-4.02 6.45-.26.43.26.5 3.96 7.06 5.97 10.65H32zm-3.74-15.31v.19c0 .19.02.36.02.55 0-.18-.03-.36-.03-.55v-.19Z" style="fill:#1b2e47;mix-blend-mode:overlay;opacity:.85;stroke-width:0"/></g></svg>