<svg xmlns="http://www.w3.org/2000/svg" id="Ebene_1" data-name="Ebene 1" version="1.1" viewBox="0 0 103.4 88.9"><defs><clipPath id="clippath"><path d="M1.7 1.5h100v42.3H1.7z" class="cls-3"/></clipPath><clipPath id="clippath-1"><path d="M1.7 1.5h100v42.3H1.7z" class="cls-3"/></clipPath><style>.cls-3{stroke-width:0;fill:none}</style></defs><g style="clip-path:url(#clippath)"><g style="clip-path:url(#clippath-1)"><path d="M101.7 1.6H90.4c-6.4 0-11.3 5.7-11.3 5.7C73.8 0 63 1.7 56.8 1.6v42.2h11.7V8.6s4.7-.4 4.7 10.1v25.1h12V18.7c0-10.4 4.7-10.1 4.7-10.1v35.2h11.7V1.6ZM18.3 37.8h.8c.4 0 .6-.1.8-.4.8-1 1.5-2.1 1.9-3.4 0-.3.2-.5.2-.8.3-1.3 1.2-2.2 2.4-2.7.4-.2.8-.4 1.1-.6.6-.4 1.1-1 1.3-1.7.5-1.7 1.1-3.5 1.8-5.1.2-.5.3-1 .2-1.5-.3-1.6.2-2.9 1.3-4.1.3-.4.6-.7 1-1 .6-.4.8-1 1-1.7.1-.7 0-1.5 0-2.2 0-.2 0-.2-.2-.1-.9.5-1.8.9-2.8 1.3-.1 0-.2.1-.3.2-.8 1.2-1.7 2.2-2.7 3.2-.7.8-1.4 1.5-1.6 2.6-.2.5-.5.9-1.1 1 0 0-.2.1-.3 0v-.3l.2-.2c-.3 0-.5.2-.7.3 0 0-.2.1-.2 0 0-.3-.3-.3-.4-.5s-.1-.5 0-.7c.3-.5.6-1 1.2-1.2.3 0 .5-.4.6-.6.7-1.1 1.5-2.3 2.2-3.4.4-.6.7-1.1 1.1-1.7l.1-.1c1.3-.9 2.6-1.9 3.9-2.7.3-.2.7-.5 1-.7.7-.6 1.6-1 2.5-1.3.4-.1 1.2-1 1.2-1.4 0 0 0-.1-.1-.2-.3-.2-.6-.5-.8-.8-.9 1.8-2.2 2.6-3.6 2 .6-.1 1.2-.2 1.6-.7-.7.2-1.4.5-2.1.4 0 0-.2 0-.2-.1.8-.2 1.4-.8 1.8-1.6.2-.3.3-.6.5-.8q.6-.75 1.5-.6c.2 0 .3 0 .3-.2.1-.9.8-1.7 1.6-2.1H18.1v16.9h-4.7v-17H1.7v42.4h11.8V27h4.8zm.4 4.5c0-.5-.2-1-.4-1.5v3h1.4c-.6-.3-.9-.8-1-1.5m25.2-24v-3.7c-.2.3-.4.5-.6.8-.2.2-.3 0-.5 0-1.4-.7-2.6-1.4-3.7-2.5-.3.4-.6.8-1 1 0 0-.2.2-.2.3-.7 1.2-1.6 2.4-2.4 3.6-.4.6-.4.6.3.8 2.2.6 4.3 1.7 6.1 3 .4.3.7.5 1 .9.6.8.2 1.9-.7 2.2-.3 0-.5.2-.7.4-1.7 1.5-3.4 3-5.1 4.6-.2.2-.4.4-.6.7q-.15.15 0 .3c.4.2.4.3.1.5-.5.5-.9 1.1-1.1 1.8-.2.6-.3 1.2 0 1.8.1.2 0 .4 0 .6-.2.2-.3.3-.6.2-.8-.3-1.4-.7-1.5-1.7-.2-1-.3-2-.8-2.9 0-.1 0-.3-.1-.5-.2-.9.5-1.6 1.5-1.6.9.4 1.4-.4 1.9-1 .7-.9 1.2-1.9 1.7-2.9.3-.7.7-1.1 1.5-1.4H37c-1.1 0-2.2-.2-3.4-.4-.2 0-.3 0-.4.2-.9 2.1-1.9 4-3.1 5.9-.5.8-1.1 1.6-2 2s-1.5 1.3-2.2 2c-1.5 1.6-2.9 3.2-4.2 4.9 0 .1-.2.2-.3.4.7.2.7.3.3.8-.5.6-.7 1.3-.9 2.1 0 .5 0 .9.4 1.2 0 0 .1.2.2.2.2.2.3.5.2.8h22.5V26.8h9.5l-4.8-8.6h-4.7ZM39.2 1.4c.5.2 1 .7 1.3 1.3.2.4.1.8 0 1.1-.2.4 0 .8 0 1.1.3.5.3.5-.3.8 0 0-.1 0-.1.1 0 .5-.3.8-.4 1.2 0 .3-.4.2-.7.2h-.1c-.2 0-.5-.2-.7-.1-.1 0-.6.7-.7 1h.3c.7.1 1.2.5 1.6 1 .7.9 1.4 1.8 2.2 2.5.2.2.5.6.7.6s.5-.4.7-.6c.3-.3.5-.5.7-.8V9.5h.6c-.2-.4-.3-.9-.2-1.4 0-.2.1-.4.4-.5 0 0 .1 0 .2-.2 0-.1.1-.3.2-.4.4-.8.3-.7 1.1-.4.2.1.4.3.6.4.2 0 .3.3.1.5-.3.4-.4.9-.5 1.3 0 .2 0 .4-.1.5h8.3V1.4H39Z" style="stroke-width:0;fill:#1b2e47"/><path d="M94.8 43.8H39.1s15.8-7.2 32.3-14.5c.2 0 .4 0 .5.2l6 8.5c.3.5 1 .7 1.5.4l8.1-3.9 7.1 9.3Z" style="stroke-width:0;fill:#e41818"/><path d="M51.5 40.4c.9-.4 1.7-.7 2.5-1 4.2-1.8 8.2-3.9 12-6.2l-15.6 7.6 1-.4Zm4.4 1.5c.7-.4 1.3-.6 1.8-1 3-1.7 5.9-3.7 8.6-5.9L55 42.2l.8-.3Zm24.2-1.6c.4-.2.7-.3 1-.5 1.6-.8 3.1-1.8 4.6-2.8l-6 3.5zm-1.4 2.2c.5-.2.9-.4 1.4-.7 2.2-1.1 4.4-2.3 6.4-3.6l-8.4 4.5z" style="fill:#f9fbfc;stroke-width:0"/></g></g><path d="M1.7 56.9h2.1v4.6h4.7v-4.6h2.1v11.6H8.5v-5.3H3.9v5.3H1.7zm11.5 9.7c-.3-.7-.4-1.5-.4-2.4s.2-1.6.5-2.2.8-1.1 1.4-1.5 1.4-.5 2.2-.5 1.6.2 2.2.5c.6.4 1.1.9 1.4 1.5s.5 1.4.5 2.2-.1 1.7-.4 2.4-.7 1.2-1.3 1.6-1.4.6-2.3.6-1.7-.2-2.3-.6-1-.9-1.3-1.6Zm1.2-8.1c-.2-.2-.3-.5-.3-.8s.1-.6.3-.8.5-.3.8-.3.6.1.8.3.3.5.3.8-.1.6-.3.8-.5.3-.8.3-.6-.1-.8-.3m4.4 5.7c0-.8-.2-1.5-.5-2s-.8-.7-1.4-.7-1.1.2-1.4.7-.5 1.1-.5 2 .2 1.6.5 2.2.8.8 1.4.8 1.1-.3 1.4-.8.5-1.2.5-2.2m-1.1-5.7c-.2-.2-.3-.5-.3-.8s.1-.6.3-.8.5-.3.8-.3.6.1.8.3.3.5.3.8-.1.6-.3.8-.5.3-.8.3-.6-.1-.8-.3m5-1.9h2.1v4.6c.3-.4.6-.7 1-1 .4-.2.9-.3 1.4-.3.8 0 1.5.3 2 .8S30 62 30 63v5.5h-2.1v-5.3c0-.5-.1-.9-.4-1.2-.2-.3-.6-.4-1-.4s-.7.1-1.1.3c-.3.2-.5.5-.7.8v5.8h-2.1V56.6Zm16.1 9.9.2 1.7c-.3.2-.7.3-1.2.4s-1 .2-1.6.2c-.9 0-1.7-.2-2.4-.5s-1.2-.9-1.5-1.6c-.4-.7-.5-1.5-.5-2.4s.2-1.6.5-2.2.8-1.1 1.3-1.5c.6-.4 1.3-.5 2.1-.5s1.9.3 2.5 1c.6.6.9 1.6.9 2.8v1h-5.2c0 .8.4 1.5.8 1.9q.75.6 1.8.6c1.05 0 .8 0 1.3-.2.4-.1.8-.3 1-.5Zm-3.1-5.1c-.5 0-.9.2-1.2.5q-.45.6-.6 1.5h3.4c0-.7-.1-1.2-.4-1.5s-.7-.5-1.2-.5m5.2-1.2h2v1.1c.3-.4.6-.8 1-1s.9-.4 1.5-.4c.8 0 1.5.3 2 .8s.8 1.3.8 2.3v5.5h-2.1v-5.3c0-.5-.1-.9-.4-1.2-.2-.3-.6-.4-1-.4s-.7.1-1.1.3c-.3.2-.5.5-.7.8v5.8h-2.1v-8.4Zm9.3 0h2v1.1c.5-.9 1.3-1.3 2.4-1.3s1 .1 1.4.4q.6.45.9 1.2c.3-.5.6-.9 1.1-1.1.5-.3 1-.4 1.6-.4s1.4.3 1.9.8.7 1.3.7 2.2v5.5h-2.1v-5.4q0-.75-.3-1.2c-.2-.3-.5-.4-.9-.4s-.7.1-1 .3-.5.5-.7.8v5.8h-2.1v-5.4q0-.75-.3-1.2c-.2-.3-.5-.4-1-.4s-.7.1-1 .3-.5.5-.6.8v5.8h-2.1V60Zm20.9 6.3.2 1.7c-.3.2-.7.3-1.2.4s-1 .2-1.6.2c-.9 0-1.7-.2-2.4-.5s-1.2-.9-1.5-1.6c-.4-.7-.5-1.5-.5-2.4s.2-1.6.5-2.2.8-1.1 1.3-1.5c.6-.4 1.3-.5 2.1-.5s1.9.3 2.5 1c.6.6.9 1.6.9 2.8v1h-5.2c0 .8.4 1.5.8 1.9q.75.6 1.8.6c1.05 0 .8 0 1.3-.2.4-.1.8-.3 1-.5Zm-3.2-5.1c-.5 0-.9.2-1.2.5q-.45.6-.6 1.5h3.4c0-.7-.1-1.2-.4-1.5-.3-.4-.7-.5-1.2-.5m6 .2h-1.4v-1.5h1.4v-1.6l2.1-.9v2.6h2.2v1.5H76v4c0 .5 0 .9.3 1.1.2.2.5.4.9.4s.4 0 .6-.1l.6-.3v1.7c-.4.1-.6.2-.9.2h-.8c-.9 0-1.6-.2-2-.7s-.7-1.1-.7-2.1v-4.3Zm12.7 4.9.2 1.7c-.3.2-.7.3-1.2.4s-1 .2-1.6.2c-.9 0-1.7-.2-2.4-.5-.7-.4-1.2-.9-1.5-1.6-.4-.7-.5-1.5-.5-2.4s.2-1.6.5-2.2.8-1.1 1.3-1.5c.6-.4 1.3-.5 2.1-.5s1.9.3 2.5 1c.6.6.9 1.6.9 2.8v1h-5.2c0 .8.4 1.5.8 1.9q.75.6 1.8.6c1.05 0 .8 0 1.3-.2.4-.1.8-.3 1-.5Zm-3.1-5.1c-.5 0-.9.2-1.2.5q-.45.6-.6 1.5h3.4c0-.7-.1-1.2-.4-1.5-.3-.4-.7-.5-1.2-.5m5.2-1.2h2v1.5c.3-.6.6-1 1.1-1.3.4-.3.9-.4 1.4-.4h.6l-.2 2.1c-.2 0-.4-.1-.7-.1-.5 0-.9.1-1.3.4s-.6.7-.8 1.1v5.1h-2.1zM2.4 80.4H1v-1.5h1.4c0-1.3.3-2.2.9-2.8s1.5-.9 2.5-.9h.7c.2 0 .5 0 .7.2L7 77q-.3-.3-.9-.3c-.6 0-.9.2-1.2.5s-.4.8-.4 1.4v.3h2.2v1.5H4.5v6.9H2.4zM13.3 79h2.1v8.4h-2v-1.2c-.3.4-.6.8-1 1s-.9.4-1.5.4c-.8 0-1.5-.3-2-.8s-.8-1.3-.8-2.3V79h2.1v5.3c0 .5.1.9.4 1.2s.6.4 1 .4.7-.1 1-.3.5-.5.7-.8zm-4-1.7c-.2-.2-.3-.5-.3-.8s.1-.6.3-.8.5-.3.8-.3.6.1.8.3.3.5.3.8-.1.6-.3.8-.5.3-.8.3-.6-.1-.8-.3m3.3 0c-.2-.2-.3-.5-.3-.8s.1-.6.3-.8.5-.3.8-.3.6.1.8.3.3.5.3.8-.1.6-.3.8-.5.3-.8.3-.6-.1-.8-.3m4.9 1.7h2v1.5c.3-.6.6-1 1.1-1.3.4-.3.9-.4 1.4-.4h.6l-.2 2.1c-.2 0-.4-.1-.7-.1-.5 0-.9.1-1.3.4s-.6.7-.8 1.1v5.1h-2.1zm10.7-3.3h2l3.9 7.9 3.9-7.9h2l.3 11.6h-2l-.2-8-3.4 6.9h-1.3L30 79.4l-.2 8h-1.9l.3-11.6Zm21.1 9.6.2 1.7c-.3.2-.7.3-1.2.4s-1 .2-1.6.2c-.9 0-1.7-.2-2.4-.5s-1.2-.9-1.5-1.6c-.4-.7-.5-1.5-.5-2.4s.2-1.6.5-2.2.8-1.1 1.3-1.5c.6-.4 1.3-.5 2.1-.5s1.9.3 2.5 1c.6.6.9 1.6.9 2.8v1h-5.2c0 .8.4 1.5.8 1.9q.75.6 1.8.6c1.05 0 .8 0 1.3-.2.4-.1.8-.3 1-.5Zm-3.2-5.1c-.5 0-.9.2-1.2.5q-.45.6-.6 1.5h3.4c0-.7-.1-1.2-.4-1.5s-.7-.5-1.2-.5m5.3-1.2h2v1.1c.3-.4.6-.8 1-1s.9-.4 1.5-.4c.8 0 1.5.3 2 .8s.8 1.3.8 2.3v5.5h-2.1V82c0-.5-.1-.9-.4-1.2-.2-.3-.6-.4-1-.4s-.7.1-1.1.3c-.3.2-.5.5-.7.8v5.8h-2.1v-8.4Zm9.1 6.3q.45.45 1.2.6c.75.15.9.2 1.3.2s.9 0 1.2-.3c.3-.2.4-.5.4-.8s-.1-.5-.4-.6c-.2-.2-.7-.4-1.4-.6-.9-.3-1.5-.7-1.9-1.1s-.5-.9-.5-1.4c0-.8.3-1.4.9-1.9.6-.4 1.4-.7 2.3-.7s.9 0 1.4.2c.4.1.8.3 1.1.4l-.5 1.5c-.6-.4-1.2-.7-1.9-.7s-.8 0-1 .2c-.3.2-.4.4-.4.7s.1.5.4.6c.3.2.7.4 1.4.6.6.2 1.1.5 1.5.7s.6.5.7.8.2.6.2 1c0 .8-.3 1.5-1 2-.6.5-1.5.7-2.6.7s-1 0-1.5-.2-.9-.3-1.2-.5l.2-1.7Zm8.5 1.1c-.7-.8-1.1-1.9-1.1-3.2s.2-1.7.5-2.3c.3-.7.8-1.2 1.4-1.5.6-.4 1.4-.5 2.2-.5s.9 0 1.3.2c.4.1.8.3 1.1.4l-.5 1.6c-.5-.4-1-.6-1.7-.6s-1.3.2-1.7.7-.6 1.2-.6 2 .2 1.6.6 2.1 1 .7 1.7.7.7 0 1-.2c.3-.1.6-.3.8-.5l.2 1.8c-.3.1-.6.3-1 .3s-.8.1-1.3.1c-1.3 0-2.4-.4-3.1-1.2Zm7.1-11h2.1V80c.3-.4.6-.7 1-1 .4-.2.9-.3 1.4-.3.8 0 1.5.3 2 .8s.8 1.3.8 2.3v5.5h-2.1V82c0-.5-.1-.9-.4-1.2-.2-.3-.6-.4-1-.4s-.8.1-1.1.3-.5.5-.7.8v5.8H76V75.4Zm16.1 9.9.2 1.7c-.3.2-.7.3-1.2.4s-1 .2-1.6.2c-.9 0-1.7-.2-2.4-.5-.7-.4-1.2-.9-1.5-1.6-.4-.7-.5-1.5-.5-2.4s.2-1.6.5-2.2.8-1.1 1.3-1.5c.6-.4 1.3-.5 2.1-.5s1.9.3 2.5 1c.6.6.9 1.6.9 2.8v1h-5.2c0 .8.4 1.5.8 1.9q.75.6 1.8.6c1.05 0 .8 0 1.3-.2.4-.1.8-.3 1-.5ZM89 80.2c-.5 0-.9.2-1.2.5q-.45.6-.6 1.5h3.4c0-.7-.1-1.2-.4-1.5-.3-.4-.7-.5-1.2-.5m5.3-1.2h2v1.1c.3-.4.6-.8 1-1s.9-.4 1.5-.4c.8 0 1.5.3 2 .8s.8 1.3.8 2.3v5.5h-2.1V82c0-.5-.1-.9-.4-1.2-.2-.3-.6-.4-1-.4s-.8.1-1.1.3-.5.5-.7.8v5.8h-2.1v-8.4Z" style="stroke-width:0;fill:#1a2d46"/></svg>