<?xml version="1.0" encoding="UTF-8"?>
<svg id="Logo_light" xmlns="http://www.w3.org/2000/svg" viewBox="0 0 589.06 249.39">
  <g>
    <path d="M589.06.52s-28.61,0-66.29.1c-37.69.1-66.77,33.59-66.77,33.59C424.82-8.65,361.03,1.38,324.62.68v248.72s69.14,0,69.14,0V42.16s27.66-2.2,27.66,59.38c0,61.58,0,147.86,0,147.86h70.83s0-86.44,0-148.01c0-61.58,27.66-59.38,27.66-59.38v207.39h69.14V.52Z" style="fill: #1b2e47; stroke-width: 0px;"/>
    <g>
      <path d="M97.37,213.95s.04-.01.07-.02c1.5-.23,3.05-.57,4.52-.38,2.18.27,3.56-.71,4.8-2.24,4.83-5.93,8.85-12.3,10.98-19.74.44-1.54.97-3.05,1.38-4.6,2.04-7.69,6.87-12.87,14.1-15.9,2.37-.99,4.57-2.3,6.69-3.75,3.71-2.54,6.37-5.8,7.77-10.22,3.24-10.21,6.39-20.47,10.76-30.27,1.34-3,1.62-5.7.93-8.95-1.98-9.42,1.37-17.35,7.61-24.28,1.86-2.07,3.8-4.1,6.06-5.69,3.59-2.52,5-6.17,5.75-10.23.8-4.34.44-8.73.34-13.1-.02-1.08-.53-1.11-1.32-.72-5.38,2.7-10.78,5.38-16.32,7.73-.64.27-1.15.73-1.55,1.34-4.53,6.89-10.15,12.86-15.69,18.9-4.09,4.46-8,9.03-9.72,15.1-.9,3.19-3.12,5.38-6.51,6.06-.48.1-1.03.67-1.5.05-.48-.62-.15-1.17.3-1.67.31-.35.59-.73,1.06-1.31-1.68.21-2.84.94-4.01,1.6-.45.25-1.1.6-1.21.05-.29-1.52-1.83-1.77-2.47-2.75-.77-1.2-.76-2.84.01-4.08,1.76-2.8,3.41-5.76,6.9-6.9,1.74-.57,2.69-2.16,3.63-3.6,4.35-6.64,8.64-13.31,12.97-19.96,2.19-3.36,4.41-6.69,6.63-10.03.21-.31.47-.59.77-.8,7.56-5.45,15.11-10.91,22.89-16.05,1.97-1.3,3.84-2.73,5.68-4.22,4.4-3.57,9.37-5.97,14.79-7.48,2.38-.66,6.85-6.17,7.06-8.53.05-.58-.28-.69-.59-.93-1.74-1.35-3.34-2.85-4.82-4.54-5.19,10.59-13.25,15.19-21.11,11.79,3.61-.8,7.03-1.42,9.67-3.93-4.08,1.21-8.06,2.88-12.44,2.52-.44-.04-1-.06-1.27-.73,4.98-1.34,8.07-4.83,10.4-9.21.91-1.72,1.89-3.43,3.06-4.97,2.18-2.9,5.15-4.16,8.76-3.54,1.22.21,1.7.07,1.95-1.35.86-5.04,4.85-9.95,9.7-12.54h-107.45v99.47h-27.98V-.13H0v249.52s69.39,0,69.39,0v-99.34h27.98v63.9Z" style="fill: #1b2e47; stroke-width: 0px;"/>
      <path d="M99.94,240.36c-.39-3.04-1.16-5.96-2.56-8.67v17.71s8.37,0,8.37,0c-3.25-1.96-5.27-4.83-5.81-9.04Z" style="fill: #1b2e47; stroke-width: 0px;"/>
      <path d="M248.35,99.34v-21.83c-1.17,1.55-2.4,3.06-3.71,4.53-1.06,1.19-1.81.57-2.68.15-7.98-3.83-15.54-8.31-21.86-14.84-1.53,2.55-3.57,4.45-6.18,5.77-.57.29-1.05.92-1.39,1.5-4.28,7.35-9.36,14.17-13.88,21.35-2.23,3.54-2.23,3.66,1.68,4.8,13.12,3.81,25.12,9.88,36.21,17.84,2.09,1.5,4.21,2.93,5.66,5.15,3.27,4.98,1.22,11.2-4.41,13.02-1.58.51-2.8,1.36-4.01,2.44-10.03,8.96-20.11,17.87-30.15,26.83-1.34,1.2-2.5,2.6-3.76,3.89-.69.71-.67,1.13.27,1.71,2.06,1.29,2.3,1.57.74,3.03-3.1,2.92-5.26,6.72-6.3,10.86-.95,3.78-1.77,7.19.42,10.72.71,1.14.58,2.4-.5,3.42-1.08,1.02-2.06,1.94-3.8,1.3-4.7-1.71-8.16-4.29-9.12-9.74-1.03-5.86-1.98-11.79-4.79-17.19-.44-.84-.58-1.86-.77-2.81-1.11-5.52,2.84-9.68,8.73-9.21.06,0,.13.02.18.04,5.54,2.09,8.42-2.14,11.28-6.03,3.89-5.29,7.22-10.96,10.16-16.83,2-4,4.37-6.32,8.63-8.24-2.98-.02-5.65.05-8.31-.08-6.64-.34-13.22-1.17-19.74-2.47-1.17-.23-1.63-.04-2.1,1.11-5.02,12.13-11.42,23.49-18.47,34.57-3.18,5-6.25,9.3-11.82,12.07-5.31,2.63-9.12,7.6-13.16,11.99-8.57,9.3-16.97,18.76-24.7,28.79-.54.7-1,1.45-1.52,2.22,4.17,1.39,4.39,1.58,1.64,4.87-2.98,3.58-4.25,7.69-5.12,12.1-.56,2.84-.19,5.22,2.1,7.14.47.4.86.9,1.28,1.37,1.3,1.47,1.55,3,.97,4.76h132.34v-99.34h55.96l-28.56-50.71h-27.4Z" style="fill: #1b2e47; stroke-width: 0px;"/>
      <path d="M220.53-.34c3.06,1.47,5.79,3.94,7.69,7.71,1.07,2.13.69,4.63-.16,6.71-1.02,2.5-.53,4.53.57,6.72,1.55,3.08,1.5,3.12-1.52,4.6-.36.18-.82.18-.75.78.31,2.76-1.88,4.73-2.35,7.32-.28,1.54-2.44,1.14-3.86,1.27-.21.02-.42.02-.62.02-1.43-.04-2.71-1.18-4.19-.67-.74.25-3.24,4.05-4.05,5.9.66.11,1.29.21,1.93.32,4.01.66,7.11,2.65,9.67,5.89,4.05,5.11,7.96,10.36,12.75,14.82,1.42,1.32,2.95,3.53,4.41,3.51,1.4-.02,2.8-2.37,4.16-3.73,1.49-1.49,2.86-3.08,4.15-4.74v-7.46h3.34c-.06-.12-.11-.24-.18-.36-1.45-2.48-1.82-5.26-.92-8.06.39-1.22.77-2.6,2.44-2.75.56-.05.8-.48,1.01-.94.36-.75.71-1.51,1.1-2.25,2.53-4.89,2-4.09,6.63-2.11,1.39.59,2.36,1.82,3.75,2.5,1.13.56,1.67,1.79.63,3.16-1.73,2.27-2.28,5.02-2.98,7.72-.27,1.04-.55,2.06-.85,3.09h48.87V-.34h-90.65Z" style="fill: #1b2e47; stroke-width: 0px;"/>
    </g>
  </g>
  <g>
    <path d="M548.42,249.39H220.19s93.1-42.61,190.29-85.51c1.15-.51,2.5-.14,3.22.89l35.45,49.9c2.04,2.88,5.86,3.87,9.05,2.35l47.77-22.77c.18-.08.39-.03.51.12l41.96,55.02Z" style="fill: #e81010; stroke-width: 0px;"/>
    <g>
      <path d="M293.33,229.43c5.45-2.21,10.23-4.06,14.95-6.08,24.52-10.53,48.01-22.94,70.83-36.58l-91.86,44.76,6.08-2.1Z" style="fill: #f8fafc; stroke-width: 0px;"/>
      <path d="M319.01,238.02c3.97-2.08,7.46-3.81,10.88-5.71,17.81-9.91,34.68-21.7,50.93-34.71l-66.27,42.37,4.46-1.95Z" style="fill: #f8fafc; stroke-width: 0px;"/>
      <path d="M461.83,228.5c2.09-1.06,3.93-1.96,5.74-2.91,9.4-4.96,18.35-10.48,27-16.35l-35.08,20.33,2.34-1.06Z" style="fill: #f8fafc; stroke-width: 0px;"/>
      <path d="M453.35,241.83c2.93-1.4,5.5-2.59,8.03-3.83,13.16-6.5,25.74-13.64,37.94-21.2l-49.23,26.45,3.27-1.41Z" style="fill: #f8fafc; stroke-width: 0px;"/>
    </g>
  </g>
</svg>