<svg xmlns="http://www.w3.org/2000/svg" viewBox="0 0 462.33 462.39"><path d="M259.61 428.42c0-5.28-3.05-7.8-7.46-7.8-3.26 0-5.77 1.43-6.85 4.21h-7.12v-27.94h26.72v6.85h-19.6v12.48c1.49-1.43 4.75-2.44 7.59-2.44 5.56 0 13.84 2.98 13.84 14.51v2.98c0 10.1-7.32 13.76-14.1 13.76-6.38 0-14.85-2.91-15.05-14.17v-.07h7.12v.07c.14 4.95 3.46 7.32 7.73 7.32s7.19-2.31 7.19-6.92v-2.85Z" style="fill:#1b2e47;stroke-width:0"/><path d="M394.43 68C352.57 26.14 294.8.19 231.15.19S109.73 26.14 67.87 68C26.01 109.87.06 167.64.06 231.29S26.01 352.7 67.88 394.56c41.86 41.86 99.64 67.82 163.27 67.82s121.42-25.96 163.29-67.82c41.86-41.86 67.81-99.62 67.81-163.27S436.3 109.87 394.44 68.01Zm14.61 32.75a221 221 0 0 1 26.19 46.39l-96.42 38.04c-3.64-8.47-8.25-16.41-13.68-23.72zm-78.36-66.43c14.48 7.36 28.07 16.21 40.5 26.45l-66.59 79.37c-7.3-5.9-15.31-10.93-23.89-14.95zm-83.24-23.18c9.55.7 18.97 1.95 28.15 3.84v107.96c-1.93-.79-3.89-1.52-5.86-2.22-3.81-6.78-20.14-35.87-22.01-39.21 2.42-3.14 17.36-22.57 17.36-22.57l-24.62-13.87c1.21-2.56 1.92-5.53 1.92-8.7 0-4.91-1.67-9.33-4.34-12.48zm12.27 106.54c-.7-.17-1.42-.32-2.12-.48-12.65-7.6-20.58-18.86-21.25-32.58h4.81zm-23.26-66.55c4.71 2.65 13.93 7.84 17.78 10.01-2.52 3.27-8.84 11.49-12.48 16.23h-5.47c.03-8.98.15-22.41.18-26.24Zm-7.98-24.75c3.61 0 6.65 4.57 6.65 9.98s-3.05 9.98-6.65 9.98-6.65-4.57-6.65-9.98 3.05-9.98 6.65-9.98m-7.01 46.49c-1.72-4.06-4.4-10.36-7.39-17.43 2.68-1.51 5.27-2.97 7.23-4.07.03 3.44.11 13.23.16 21.51Zm-.05 11.75c-.71 14.48-9.5 26.22-23.38 33.81l19.85-35.39.68 1.58zm-7.06-9.92-10.42-13.56c.96-.54 2.28-1.28 3.77-2.12zm-4.06-63.21 8.91 12.08c-2.83 3.16-4.63 7.71-4.63 12.79 0 3.4.81 6.55 2.19 9.23l-5.54 3.12c-6-14.15-12.47-29.39-15.01-35.4 4.65-.75 9.34-1.36 14.09-1.83Zm-29.6 4.88c2.7-.64 5.44-1.21 8.18-1.74l15.98 37.67-11.77 6.63s14.94 19.43 17.35 22.57l-22.8 40.64.46.27c-2.51 1-4.98 2.04-7.4 3.21zm-8.44 2.16v103.11L126.99 36.7c14.23-7.65 29.4-13.75 45.26-18.17M75.14 75.27c2.71-2.72 5.51-5.34 8.35-7.91l68.16 78.03c-1.1 1.02-2.21 2.06-3.27 3.12-4.92 4.93-9.4 10.31-13.39 16.05l-84.97-59.24c7.5-10.73 15.89-20.82 25.12-30.05m-50.96 79.21 97.35 35.59c-3.34 8.86-5.64 18.22-6.75 27.95L11.9 205.43c2.08-17.7 6.23-34.77 12.28-50.95M12.22 259.64l102.73-13.73c1.13 9 3.27 17.71 6.33 25.96l-96.25 38.39c-6.2-16.07-10.54-33.03-12.82-50.63Zm62.92 127.67c-9.17-9.18-17.5-19.19-24.96-29.84l84.28-60.19c4.12 6.02 8.79 11.64 13.92 16.78 1.22 1.21 2.47 2.4 3.74 3.56l-67.25 78.79c-3.33-2.95-6.59-5.96-9.73-9.1m53.93 39.63 47.13-92.26c8.28 4.43 17.15 7.89 26.46 10.22l-23.94 100.84a219.8 219.8 0 0 1-49.65-18.8m95.48 10.56v6.85h-29.16v-6.85l17.02-17.63c3.19-3.32 5.02-6.04 5.02-9.56 0-4.88-3.05-7.25-7.46-7.25s-7.46 2.51-7.46 7.8v.61h-7.12v-.75c0-11.53 8.48-14.51 14.58-14.51s14.58 2.91 14.58 13.97c0 5.7-2.17 9.43-6.79 14.18l-12.68 13.15h19.47Zm-71.36-128.24c-19.99-20-32.39-47.58-32.39-77.97s12.4-57.97 32.39-77.97c19.99-19.99 47.58-32.39 77.96-32.39s57.98 12.39 77.98 32.39 32.38 47.58 32.38 77.97-12.39 57.98-32.38 77.97c-20 19.98-47.58 32.38-77.98 32.38s-57.97-12.39-77.96-32.38m78.68 142.83-.42-103.65c9.07-.02 17.88-1.11 26.37-3.1l27.09 100.11a219.4 219.4 0 0 1-53.03 6.64Zm104.3-26.65-50.07-90.75c8.3-4.44 16.01-9.84 22.97-16.06l67.86 78.23c-12.45 10.97-26.09 20.6-40.76 28.59Zm77.95-70.77-84.92-59.43c5.01-7.64 9.15-15.91 12.28-24.64l96.71 37.34a220.4 220.4 0 0 1-24.07 46.73M347.87 241c.27-3.21.44-6.45.44-9.72 0-5.52-.41-10.95-1.16-16.26l102.93-12.18c1.2 9.32 1.9 18.8 1.9 28.44 0 7.83-.42 15.57-1.23 23.19l-102.88-13.48Z" style="fill:#1b2e47;stroke-width:0"/><path d="M359.05 295.56c-24.89 0-45.14 20.26-45.14 45.19s20.25 45.14 45.14 45.14 45.14-20.25 45.14-45.14-20.25-45.19-45.14-45.19" style="fill:#e81010;stroke-width:0"/><path d="M395.84 329.68h-25.75v-25.75h-22.07v25.75h-25.76v22.08h25.76v25.75h22.07v-25.75h25.75z" style="fill:#fff;stroke-width:0"/><path d="M237.78 129.22c2.17.1 6.22 2.04 4.14 4.13-9.25 9.3-17.31 34.28-19.42 41.32-.71 2.33-10.91-10.59-11.99-13.64-1.09-3.04-1.25-20.2 0-22.31 1.23-2.12 25.1-9.61 27.27-9.5" style="fill:#1b2e47;stroke-width:0"/><path d="M237.78 129.22c2.17.1 6.22 2.04 4.14 4.13-9.25 9.3-17.31 34.28-19.42 41.32-.71 2.33-10.91-10.59-11.99-13.64-1.09-3.04-1.25-20.2 0-22.31 1.23-2.12 25.1-9.61 27.27-9.5" style="fill:#1b2e47;stroke-width:0"/><path d="M237.78 129.22c2.17.1 6.22 2.04 4.14 4.13-9.25 9.3-17.31 34.28-19.42 41.32-.71 2.33-10.91-10.59-11.99-13.64-1.09-3.04-1.25-20.2 0-22.31 1.23-2.12 25.1-9.61 27.27-9.5" style="fill:#1b2e47;stroke-width:0"/><path d="M237.78 129.22c2.17.1 6.22 2.04 4.14 4.13-9.25 9.3-17.31 34.28-19.42 41.32-.71 2.33-10.91-10.59-11.99-13.64-1.09-3.04-1.25-20.2 0-22.31 1.23-2.12 25.1-9.61 27.27-9.5m12.4 6.61c2.17-.62 14.16 4.75 14.05 7.03-.1 2.27-16.88 17.88-18.18 19.84s-.47 10.07-1.66 11.98c-1.2 1.91-11.98 6.56-13.64 5.79s-3.61-9.05-3.06-12.41c.57-3.36 20.3-31.6 22.47-32.22" style="fill:#1b2e47;stroke-width:0"/><path d="M250.18 135.83c2.17-.62 14.16 4.75 14.05 7.03-.1 2.27-16.88 17.88-18.18 19.84s-.47 10.07-1.66 11.98c-1.2 1.91-11.98 6.56-13.64 5.79s-3.61-9.05-3.06-12.41c.57-3.36 20.3-31.6 22.47-32.22" style="fill:#1b2e47;stroke-width:0"/><path d="M250.18 135.83c2.17-.62 14.16 4.75 14.05 7.03-.1 2.27-16.88 17.88-18.18 19.84s-.47 10.07-1.66 11.98c-1.2 1.91-11.98 6.56-13.64 5.79s-3.61-9.05-3.06-12.41c.57-3.36 20.3-31.6 22.47-32.22" style="fill:#1b2e47;stroke-width:0"/><path d="M250.18 135.83c2.17-.62 14.16 4.75 14.05 7.03-.1 2.27-16.88 17.88-18.18 19.84s-.47 10.07-1.66 11.98c-1.2 1.91-11.98 6.56-13.64 5.79s-3.61-9.05-3.06-12.41c.57-3.36 20.3-31.6 22.47-32.22Zm22.73 11.16c2.53-.46 22.73 15.48 20.25 16.53-10.75 4.53-21.29 15.55-24.79 21.49-1.85 3.14-19.28-11.01-19.43-14.05-.15-3.05 21.45-23.5 23.98-23.96" style="fill:#1b2e47;stroke-width:0"/><path d="M272.91 146.99c2.53-.46 22.73 15.48 20.25 16.53-10.75 4.53-21.29 15.55-24.79 21.49-1.85 3.14-19.28-11.01-19.43-14.05-.15-3.05 21.45-23.5 23.98-23.96" style="fill:#1b2e47;stroke-width:0"/><path d="M272.91 146.99c2.53-.46 22.73 15.48 20.25 16.53-10.75 4.53-21.29 15.55-24.79 21.49-1.85 3.14-19.28-11.01-19.43-14.05-.15-3.05 21.45-23.5 23.98-23.96" style="fill:#1b2e47;stroke-width:0"/><path d="M272.91 146.99c2.53-.46 22.73 15.48 20.25 16.53-10.75 4.53-21.29 15.55-24.79 21.49-1.85 3.14-19.28-11.01-19.43-14.05-.15-3.05 21.45-23.5 23.98-23.96Zm-68.6-5.37c1.08 1.34 1.08 24.38 6.2 31 2.55 3.3-.62 3.97-3.11 4.13-2.48.16-16.42-18.58-20.45-24.8-2.38-3.68 16.27-11.67 17.36-10.33" style="fill:#1b2e47;stroke-width:0"/><path d="M204.31 141.62c1.08 1.34 1.08 24.38 6.2 31 2.55 3.3-.62 3.97-3.11 4.13-2.48.16-16.42-18.58-20.45-24.8-2.38-3.68 16.27-11.67 17.36-10.33" style="fill:#1b2e47;stroke-width:0"/><path d="M204.31 141.62c1.08 1.34 1.08 24.38 6.2 31 2.55 3.3-.62 3.97-3.11 4.13-2.48.16-16.42-18.58-20.45-24.8-2.38-3.68 16.27-11.67 17.36-10.33" style="fill:#1b2e47;stroke-width:0"/><path d="M204.31 141.62c1.08 1.34 1.08 24.38 6.2 31 2.55 3.3-.62 3.97-3.11 4.13-2.48.16-16.42-18.58-20.45-24.8-2.38-3.68 16.27-11.67 17.36-10.33m-24.38 10.33c2.22.31 24.17 26.66 23.97 28.52-.22 1.86-3.18 5.26-5.17 2.89-7.28-8.62-24.48-17.35-32.02-19.01-2.7-.59 11-12.71 13.22-12.4" style="fill:#1b2e47;stroke-width:0"/><path d="M179.93 151.95c2.22.31 24.17 26.66 23.97 28.52-.22 1.86-3.18 5.26-5.17 2.89-7.28-8.62-24.48-17.35-32.02-19.01-2.7-.59 11-12.71 13.22-12.4" style="fill:#1b2e47;stroke-width:0"/><path d="M179.93 151.95c2.22.31 24.17 26.66 23.97 28.52-.22 1.86-3.18 5.26-5.17 2.89-7.28-8.62-24.48-17.35-32.02-19.01-2.7-.59 11-12.71 13.22-12.4" style="fill:#1b2e47;stroke-width:0"/><path d="M179.93 151.95c2.22.31 24.17 26.66 23.97 28.52-.22 1.86-3.18 5.26-5.17 2.89-7.28-8.62-24.48-17.35-32.02-19.01-2.7-.59 11-12.71 13.22-12.4m14.46 33.06c.16-2.38-23.71-17.72-33.47-13.22-9.77 4.49-9.61 29.75-16.94 38.43-2.38 2.81 20.19-7.61 19.01-9.92-2.07-4.03-7.96-15.96.56-21.39 5-3.18 21.73 2.64 20 7.59-1.07 3.05-12.04-2.91-15.19-1.04-3.15 1.86-2.68 8.49-1.64 11.12 1.03 2.63 12.18 2.21 16.52.41s11.01-9.61 11.16-11.98" style="fill:#1b2e47;stroke-width:0"/><path d="M194.39 185.01c.16-2.38-23.71-17.72-33.47-13.22-9.77 4.49-9.61 29.75-16.94 38.43-2.38 2.81 20.19-7.61 19.01-9.92-2.07-4.03-7.96-15.96.56-21.39 5-3.18 21.73 2.64 20 7.59-1.07 3.05-12.04-2.91-15.19-1.04-3.15 1.86-2.68 8.49-1.64 11.12 1.03 2.63 12.18 2.21 16.52.41s11.01-9.61 11.16-11.98" style="fill:#1b2e47;stroke-width:0"/><path d="M194.39 185.01c.16-2.38-23.71-17.72-33.47-13.22-9.77 4.49-9.61 29.75-16.94 38.43-2.38 2.81 20.19-7.61 19.01-9.92-2.07-4.03-7.96-15.96.56-21.39 5-3.18 21.73 2.64 20 7.59-1.07 3.05-12.04-2.91-15.19-1.04-3.15 1.86-2.68 8.49-1.64 11.12 1.03 2.63 12.18 2.21 16.52.41s11.01-9.61 11.16-11.98" style="fill:#1b2e47;stroke-width:0"/><path d="M194.39 185.01c.16-2.38-23.71-17.72-33.47-13.22-9.77 4.49-9.61 29.75-16.94 38.43-2.38 2.81 20.19-7.61 19.01-9.92-2.07-4.03-7.96-15.96.56-21.39 5-3.18 21.73 2.64 20 7.59-1.07 3.05-12.04-2.91-15.19-1.04-3.15 1.86-2.68 8.49-1.64 11.12 1.03 2.63 12.18 2.21 16.52.41s11.01-9.61 11.16-11.98Zm-11.56 16.86c2.73 0 5.81 6.04 4.12 7.44-11.47 9.45-37.04 31.3-45.87 49.18-1.03 2.08-8.68-20.88-8.06-25.21 6.2-15.91 37.96-30.63 49.81-31.4" style="fill:#1b2e47;stroke-width:0"/><path d="M182.83 201.87c2.73 0 5.81 6.04 4.12 7.44-11.47 9.45-37.04 31.3-45.87 49.18-1.03 2.08-8.68-20.88-8.06-25.21 6.2-15.91 37.96-30.63 49.81-31.4" style="fill:#1b2e47;stroke-width:0"/><path d="M182.83 201.87c2.73 0 5.81 6.04 4.12 7.44-11.47 9.45-37.04 31.3-45.87 49.18-1.03 2.08-8.68-20.88-8.06-25.21 6.2-15.91 37.96-30.63 49.81-31.4" style="fill:#1b2e47;stroke-width:0"/><path d="M182.83 201.87c2.73 0 5.81 6.04 4.12 7.44-11.47 9.45-37.04 31.3-45.87 49.18-1.03 2.08-8.68-20.88-8.06-25.21 6.2-15.91 37.96-30.63 49.81-31.4Zm134.71 4.22c-7.23-8.11-12.5-37.93-17.77-38.44-5.27-.52-28.3 18.65-28.72 21.08-.41 2.43 10.54 10.07 14.46 10.8 3.92.72 12.76-2.48 12.19-8.52s-5-5.34-8.01-5.54-9.66 6.23-10.69 2.44c-2.02-7.35 12.86-9.58 15.29-9.51 7.34.21 9.5 8.82 8.37 12.61-.76 2.52-6.75 10.2-4.14 10.54 12.09 1.55 21.39 7.22 19.01 4.55" style="fill:#1b2e47;stroke-width:0"/><path d="M317.54 206.09c-7.23-8.11-12.5-37.93-17.77-38.44-5.27-.52-28.3 18.65-28.72 21.08-.41 2.43 10.54 10.07 14.46 10.8 3.92.72 12.76-2.48 12.19-8.52s-5-5.34-8.01-5.54-9.66 6.23-10.69 2.44c-2.02-7.35 12.86-9.58 15.29-9.51 7.34.21 9.5 8.82 8.37 12.61-.76 2.52-6.75 10.2-4.14 10.54 12.09 1.55 21.39 7.22 19.01 4.55" style="fill:#1b2e47;stroke-width:0"/><path d="M317.54 206.09c-7.23-8.11-12.5-37.93-17.77-38.44-5.27-.52-28.3 18.65-28.72 21.08-.41 2.43 10.54 10.07 14.46 10.8 3.92.72 12.76-2.48 12.19-8.52s-5-5.34-8.01-5.54-9.66 6.23-10.69 2.44c-2.02-7.35 12.86-9.58 15.29-9.51 7.34.21 9.5 8.82 8.37 12.61-.76 2.52-6.75 10.2-4.14 10.54 12.09 1.55 21.39 7.22 19.01 4.55" style="fill:#1b2e47;stroke-width:0"/><path d="M317.54 206.09c-7.23-8.11-12.5-37.93-17.77-38.44-5.27-.52-28.3 18.65-28.72 21.08-.41 2.43 10.54 10.07 14.46 10.8 3.92.72 12.76-2.48 12.19-8.52s-5-5.34-8.01-5.54-9.66 6.23-10.69 2.44c-2.02-7.35 12.86-9.58 15.29-9.51 7.34.21 9.5 8.82 8.37 12.61-.76 2.52-6.75 10.2-4.14 10.54 12.09 1.55 21.39 7.22 19.01 4.55Zm-38.01-4.55c32.64 7.75 44.26 15.65 49.18 31.41 1.68 5.37-7.15 22.7-7.86 19.83-2.93-11.88-19.98-28.92-47.27-44.63-2.2-1.27 2.98-7.31 5.95-6.61" style="fill:#1b2e47;stroke-width:0"/><path d="M279.53 201.54c32.64 7.75 44.26 15.65 49.18 31.41 1.68 5.37-7.15 22.7-7.86 19.83-2.93-11.88-19.98-28.92-47.27-44.63-2.2-1.27 2.98-7.31 5.95-6.61" style="fill:#1b2e47;stroke-width:0"/><path d="M279.53 201.54c32.64 7.75 44.26 15.65 49.18 31.41 1.68 5.37-7.15 22.7-7.86 19.83-2.93-11.88-19.98-28.92-47.27-44.63-2.2-1.27 2.98-7.31 5.95-6.61" style="fill:#1b2e47;stroke-width:0"/><path d="M279.53 201.54c32.64 7.75 44.26 15.65 49.18 31.41 1.68 5.37-7.15 22.7-7.86 19.83-2.93-11.88-19.98-28.92-47.27-44.63-2.2-1.27 2.98-7.31 5.95-6.61" style="fill:#1b2e47;stroke-width:0"/><path d="M274.15 214.27c14.28 5.7 42.05 33.94 45.05 44.22 1.03 3.52-11.79 19.96-12.61 16.22-3.88-17.51-24.6-38.17-42.36-51.35-1.66-1.24 6.81-10.33 9.92-9.09" style="fill:#1b2e47;stroke-width:0"/><path d="M274.15 214.27c14.28 5.7 42.05 33.94 45.05 44.22 1.03 3.52-11.79 19.96-12.61 16.22-3.88-17.51-24.6-38.17-42.36-51.35-1.66-1.24 6.81-10.33 9.92-9.09" style="fill:#1b2e47;stroke-width:0"/><path d="M274.15 214.27c14.28 5.7 42.05 33.94 45.05 44.22 1.03 3.52-11.79 19.96-12.61 16.22-3.88-17.51-24.6-38.17-42.36-51.35-1.66-1.24 6.81-10.33 9.92-9.09" style="fill:#1b2e47;stroke-width:0"/><path d="M274.15 214.27c14.28 5.7 42.05 33.94 45.05 44.22 1.03 3.52-11.79 19.96-12.61 16.22-3.88-17.51-24.6-38.17-42.36-51.35-1.66-1.24 6.81-10.33 9.92-9.09m-6.19 19s34.01 42 33.47 45.05c-1.34 7.54-23.97 23.63-23.97 20.66 0-10.02-9.5-65.71-9.5-65.71" style="fill:#1b2e47;stroke-width:0"/><path d="M267.96 233.27s34.01 42 33.47 45.05c-1.34 7.54-23.97 23.63-23.97 20.66 0-10.02-9.5-65.71-9.5-65.71m-2.07 19.84c2.42 1.91 6.51 47.47 5.16 51.66s-25.77 24.59-29.14 23.14c17.87-18.8 9.63-61.6 9.63-61.6s11.92-15.11 14.34-13.2" style="fill:#1b2e47;stroke-width:0"/><path d="M265.89 253.11c2.42 1.91 6.51 47.47 5.16 51.66s-25.77 24.59-29.14 23.14c17.87-18.8 9.63-61.6 9.63-61.6s11.92-15.11 14.34-13.2" style="fill:#1b2e47;stroke-width:0"/><path d="M265.89 253.11c2.42 1.91 6.51 47.47 5.16 51.66s-25.77 24.59-29.14 23.14c17.87-18.8 9.63-61.6 9.63-61.6s11.92-15.11 14.34-13.2" style="fill:#1b2e47;stroke-width:0"/><path d="M265.89 253.11c2.42 1.91 6.51 47.47 5.16 51.66s-25.77 24.59-29.14 23.14c17.87-18.8 9.63-61.6 9.63-61.6s11.92-15.11 14.34-13.2Z" style="fill:#1b2e47;stroke-width:0"/><path d="M245.22 271.3s2.53 32.73 1.24 37.19c-2.59 8.99-15.29 24.39-15.29 24.39s-15.11-11.8-16.18-16.33c-2.17-9.24 9.63-40.16 11.22-39.88.67.12 3.38 1.82 5.36 2.07 3.16.4 13.64-7.44 13.64-7.44" style="fill:#1b2e47;stroke-width:0"/><path d="M245.22 271.3s2.53 32.73 1.24 37.19c-2.59 8.99-15.29 24.39-15.29 24.39s-15.11-11.8-16.18-16.33c-2.17-9.24 9.63-40.16 11.22-39.88.67.12 3.38 1.82 5.36 2.07 3.16.4 13.64-7.44 13.64-7.44" style="fill:#1b2e47;stroke-width:0"/><path d="M245.22 271.3s2.53 32.73 1.24 37.19c-2.59 8.99-15.29 24.39-15.29 24.39s-15.11-11.8-16.18-16.33c-2.17-9.24 9.63-40.16 11.22-39.88.67.12 3.38 1.82 5.36 2.07 3.16.4 13.64-7.44 13.64-7.44" style="fill:#1b2e47;stroke-width:0"/><path d="M245.22 271.3s2.53 32.73 1.24 37.19c-2.59 8.99-15.29 24.39-15.29 24.39s-15.11-11.8-16.18-16.33c-2.17-9.24 9.63-40.16 11.22-39.88.67.12 3.38 1.82 5.36 2.07 3.16.4 13.64-7.44 13.64-7.44Zm-23.9 3.96c-4.71 6.77-11.84 26.15-11.89 43.31-2.74 1.91-17.1-7.95-17.93-12.96-.83-5.02 11.72-31.05 12.4-47.11 10.79 16.77 19.48 13.79 17.41 16.77" style="fill:#1b2e47;stroke-width:0"/><path d="M221.32 275.26c-4.71 6.77-11.84 26.15-11.89 43.31-2.74 1.91-17.1-7.95-17.93-12.96-.83-5.02 11.72-31.05 12.4-47.11 10.79 16.77 19.48 13.79 17.41 16.77" style="fill:#1b2e47;stroke-width:0"/><path d="M221.32 275.26c-4.71 6.77-11.84 26.15-11.89 43.31-2.74 1.91-17.1-7.95-17.93-12.96-.83-5.02 11.72-31.05 12.4-47.11 10.79 16.77 19.48 13.79 17.41 16.77" style="fill:#1b2e47;stroke-width:0"/><path d="M221.32 275.26c-4.71 6.77-11.84 26.15-11.89 43.31-2.74 1.91-17.1-7.95-17.93-12.96-.83-5.02 11.72-31.05 12.4-47.11 10.79 16.77 19.48 13.79 17.41 16.77Zm-29.82-36.61s6.61 11.86 7.23 19.97-10.7 23.83-13.43 43.47c-3 .98-18.17-15.18-18.59-18.8-1.92-15.87 24.79-44.64 24.79-44.64" style="fill:#1b2e47;stroke-width:0"/><path d="M191.5 238.65s6.61 11.86 7.23 19.97-10.7 23.83-13.43 43.47c-3 .98-18.17-15.18-18.59-18.8-1.92-15.87 24.79-44.64 24.79-44.64" style="fill:#1b2e47;stroke-width:0"/><path d="M191.5 238.65s6.61 11.86 7.23 19.97-10.7 23.83-13.43 43.47c-3 .98-18.17-15.18-18.59-18.8-1.92-15.87 24.79-44.64 24.79-44.64" style="fill:#1b2e47;stroke-width:0"/><path d="M191.5 238.65s6.61 11.86 7.23 19.97-10.7 23.83-13.43 43.47c-3 .98-18.17-15.18-18.59-18.8-1.92-15.87 24.79-44.64 24.79-44.64" style="fill:#1b2e47;stroke-width:0"/><path d="M188.34 214.15c1.71-.57 8.16 6.52 7.69 9.21-.46 2.68-36.38 38.02-33.88 57.85-3.25 0-15.51-12.18-14.46-18.19 2.37-13.43 34.7-46.93 40.64-48.88" style="fill:#1b2e47;stroke-width:0"/><path d="M188.34 214.15c1.71-.57 8.16 6.52 7.69 9.21-.46 2.68-36.38 38.02-33.88 57.85-3.25 0-15.51-12.18-14.46-18.19 2.37-13.43 34.7-46.93 40.64-48.88" style="fill:#1b2e47;stroke-width:0"/><path d="M188.34 214.15c1.71-.57 8.16 6.52 7.69 9.21-.46 2.68-36.38 38.02-33.88 57.85-3.25 0-15.51-12.18-14.46-18.19 2.37-13.43 34.7-46.93 40.64-48.88" style="fill:#1b2e47;stroke-width:0"/><path d="M188.34 214.15c1.71-.57 8.16 6.52 7.69 9.21-.46 2.68-36.38 38.02-33.88 57.85-3.25 0-15.51-12.18-14.46-18.19 2.37-13.43 34.7-46.93 40.64-48.88Zm28.37 9.21c1.7-1.34 25.88-2.27 28.51 0 1.52 1.31-4.59 10.23-7.02 11.57s-11.41 1.14-14.05 0-9.14-10.23-7.44-11.57" style="fill:#1b2e47;stroke-width:0"/><path d="M216.71 223.36c1.7-1.34 25.88-2.27 28.51 0 1.52 1.31-4.59 10.23-7.02 11.57s-11.41 1.14-14.05 0-9.14-10.23-7.44-11.57" style="fill:#1b2e47;stroke-width:0"/><path d="M216.71 223.36c1.7-1.34 25.88-2.27 28.51 0 1.52 1.31-4.59 10.23-7.02 11.57s-11.41 1.14-14.05 0-9.14-10.23-7.44-11.57" style="fill:#1b2e47;stroke-width:0"/><path d="M216.71 223.36c1.7-1.34 25.88-2.27 28.51 0 1.52 1.31-4.59 10.23-7.02 11.57s-11.41 1.14-14.05 0-9.14-10.23-7.44-11.57" style="fill:#1b2e47;stroke-width:0"/><path d="m218.51 222.85-2.06-.04c.15-8.09-.04-17.16-.59-18.3-.83-.82-11.08-6.48-20.27-11.34l.96-1.82c4.63 2.45 19.83 10.54 20.96 11.94 1.09 1.35 1.14 11.38 1 19.55" style="fill:#1b2e47;stroke-width:0"/><path d="m218.51 222.85-2.06-.04c.15-8.09-.04-17.16-.59-18.3-.83-.82-11.08-6.48-20.27-11.34l.96-1.82c4.63 2.45 19.83 10.54 20.96 11.94 1.09 1.35 1.14 11.38 1 19.55" style="fill:#1b2e47;stroke-width:0"/><path d="m218.51 222.85-2.06-.04c.15-8.09-.04-17.16-.59-18.3-.83-.82-11.08-6.48-20.27-11.34l.96-1.82c4.63 2.45 19.83 10.54 20.96 11.94 1.09 1.35 1.14 11.38 1 19.55" style="fill:#1b2e47;stroke-width:0"/><path d="m218.51 222.85-2.06-.04c.15-8.09-.04-17.16-.59-18.3-.83-.82-11.08-6.48-20.27-11.34l.96-1.82c4.63 2.45 19.83 10.54 20.96 11.94 1.09 1.35 1.14 11.38 1 19.55Zm26.67 0-2.06-.04c.03-1.47.32-14.42 1.13-16.73.8-2.29 14.91-9.38 23.26-13.41l.89 1.85c-10.25 4.94-21.37 10.9-22.24 12.3-.5 1.44-.87 10.6-.98 16.03" style="fill:#1b2e47;stroke-width:0"/><path d="m245.18 222.85-2.06-.04c.03-1.47.32-14.42 1.13-16.73.8-2.29 14.91-9.38 23.26-13.41l.89 1.85c-10.25 4.94-21.37 10.9-22.24 12.3-.5 1.44-.87 10.6-.98 16.03" style="fill:#1b2e47;stroke-width:0"/><path d="m245.18 222.85-2.06-.04c.03-1.47.32-14.42 1.13-16.73.8-2.29 14.91-9.38 23.26-13.41l.89 1.85c-10.25 4.94-21.37 10.9-22.24 12.3-.5 1.44-.87 10.6-.98 16.03" style="fill:#1b2e47;stroke-width:0"/><path d="m245.18 222.85-2.06-.04c.03-1.47.32-14.42 1.13-16.73.8-2.29 14.91-9.38 23.26-13.41l.89 1.85c-10.25 4.94-21.37 10.9-22.24 12.3-.5 1.44-.87 10.6-.98 16.03m-38.2 32.64s21.73-5.27 23.87-5.58c2.13-.31 22.89 5.58 22.89 5.58s-18.86-6.18-19.84-8.79c-.76-2-.31-10.84-.31-10.84h-4.8s.78 8.46.16 10.84c-.62 2.37-21.97 8.79-21.97 8.79" style="fill:#1b2e47;stroke-width:0"/><path d="M206.98 255.49s21.73-5.27 23.87-5.58c2.13-.31 22.89 5.58 22.89 5.58s-18.86-6.18-19.84-8.79c-.76-2-.31-10.84-.31-10.84h-4.8s.78 8.46.16 10.84c-.62 2.37-21.97 8.79-21.97 8.79" style="fill:#1b2e47;stroke-width:0"/><path d="M206.98 255.49s21.73-5.27 23.87-5.58c2.13-.31 22.89 5.58 22.89 5.58s-18.86-6.18-19.84-8.79c-.76-2-.31-10.84-.31-10.84h-4.8s.78 8.46.16 10.84c-.62 2.37-21.97 8.79-21.97 8.79" style="fill:#1b2e47;stroke-width:0"/><path d="M206.98 255.49s21.73-5.27 23.87-5.58c2.13-.31 22.89 5.58 22.89 5.58s-18.86-6.18-19.84-8.79c-.76-2-.31-10.84-.31-10.84h-4.8s.78 8.46.16 10.84c-.62 2.37-21.97 8.79-21.97 8.79m-6.02-60.7s3.66 8.78 4.59 9.56 10.22-1.14 10.22-1.14z" style="fill:#1b2e47;stroke-width:0"/><path d="M200.96 194.79s3.66 8.78 4.59 9.56 10.22-1.14 10.22-1.14z" style="fill:#1b2e47;stroke-width:0"/><path d="M200.96 194.79s3.66 8.78 4.59 9.56 10.22-1.14 10.22-1.14z" style="fill:#1b2e47;stroke-width:0"/><path d="M200.96 194.79s3.66 8.78 4.59 9.56 10.22-1.14 10.22-1.14zm62.47 1.04s-3.8 8.36-5.19 9.29-11 0-11 0z" style="fill:#1b2e47;stroke-width:0"/><path d="M263.43 195.83s-3.8 8.36-5.19 9.29-11 0-11 0z" style="fill:#1b2e47;stroke-width:0"/><path d="M263.43 195.83s-3.8 8.36-5.19 9.29-11 0-11 0z" style="fill:#1b2e47;stroke-width:0"/><path d="M263.43 195.83s-3.8 8.36-5.19 9.29-11 0-11 0z" style="fill:#1b2e47;stroke-width:0"/></svg>