<svg xmlns="http://www.w3.org/2000/svg" id="a" version="1.1" viewBox="0 0 462.3 462.4"><defs><style>.cls-2{stroke-width:0;fill:#f8fafc}</style></defs><path d="M259.6 428.4c0-5.3-3-7.8-7.5-7.8s-5.8 1.4-6.9 4.2h-7.1v-27.9h26.7v6.9h-19.6v12.5c1.5-1.4 4.8-2.4 7.6-2.4 5.6 0 13.8 3 13.8 14.5v3c0 10.1-7.3 13.8-14.1 13.8s-14.9-2.9-15.1-14.2h7.1c.1 5 3.5 7.4 7.7 7.4s7.2-2.3 7.2-6.9v-2.9Z" class="cls-2"/><path d="M394.4 68C352.6 26.1 294.8.2 231.1.2S109.7 26.1 67.9 68C26 109.9 0 167.6 0 231.3s26 121.4 67.8 163.3c41.9 41.9 99.6 67.8 163.3 67.8s121.4-26 163.3-67.8c41.9-41.9 67.8-99.6 67.8-163.3s-26-121.4-67.8-163.3m14.6 32.8c10.5 14.3 19.3 29.8 26.2 46.4l-96.4 38c-3.6-8.5-8.2-16.4-13.7-23.7zm-78.3-66.5c14.5 7.4 28.1 16.2 40.5 26.5l-66.6 79.4c-7.3-5.9-15.3-10.9-23.9-14.9l50-90.9Zm-83.3-23.2c9.5.7 19 1.9 28.1 3.8v108c-1.9-.8-3.9-1.5-5.9-2.2-3.8-6.8-20.1-35.9-22-39.2C250 78.4 265 58.9 265 58.9L240.4 45c1.2-2.6 1.9-5.5 1.9-8.7 0-4.9-1.7-9.3-4.3-12.5l9.4-12.8Zm12.3 106.6c-.7-.2-1.4-.3-2.1-.5-12.6-7.6-20.6-18.9-21.2-32.6h4.8l18.6 33.1Zm-23.3-66.6c4.7 2.7 13.9 7.8 17.8 10-2.5 3.3-8.8 11.5-12.5 16.2h-5.5c0-9 .1-22.4.2-26.2m-7.9-24.7c3.6 0 6.6 4.6 6.6 10s-3.1 10-6.6 10-6.6-4.6-6.6-10 3.1-10 6.6-10m-7 46.5c-1.7-4.1-4.4-10.4-7.4-17.4 2.7-1.5 5.3-3 7.2-4.1 0 3.4.1 13.2.2 21.5m-.1 11.7c-.7 14.5-9.5 26.2-23.4 33.8L217.9 83l.7 1.6h2.9Zm-7-9.9c-3.6-4.7-8.3-10.8-10.4-13.6 1-.5 2.3-1.3 3.8-2.1zm-4.1-63.2 8.9 12.1c-2.8 3.2-4.6 7.7-4.6 12.8s.8 6.5 2.2 9.2l-5.5 3.1c-6-14.2-12.5-29.4-15-35.4q6.9-1.2 14.1-1.8Zm-29.6 4.9c2.7-.6 5.4-1.2 8.2-1.7l16 37.7-11.8 6.6s14.9 19.4 17.4 22.6c-2.1 3.8-22.8 40.6-22.8 40.6l.5.3c-2.5 1-5 2-7.4 3.2V16.4Zm-8.5 2.1v103.1l-45.3-84.9c14.2-7.6 29.4-13.8 45.3-18.2M75.1 75.3c2.7-2.7 5.5-5.3 8.3-7.9l68.2 78c-1.1 1-2.2 2.1-3.3 3.1-4.9 4.9-9.4 10.3-13.4 16.1l-85-59.2c7.5-10.7 15.9-20.8 25.1-30Zm-50.9 79.2 97.3 35.6c-3.3 8.9-5.6 18.2-6.8 27.9L11.8 205.4c2.1-17.7 6.2-34.8 12.3-50.9Zm-12 105.1 102.7-13.7c1.1 9 3.3 17.7 6.3 26L25 310.3c-6.2-16.1-10.5-33-12.8-50.6Zm62.9 127.7c-9.2-9.2-17.5-19.2-25-29.8l84.3-60.2c4.1 6 8.8 11.6 13.9 16.8 1.2 1.2 2.5 2.4 3.7 3.6l-67.2 78.8c-3.3-3-6.6-6-9.7-9.1Zm54 39.6 47.1-92.3c8.3 4.4 17.1 7.9 26.5 10.2l-23.9 100.8c-17.4-4.3-34.1-10.6-49.6-18.8Zm95.5 10.6v6.9h-29.2v-6.9l17-17.6c3.2-3.3 5-6 5-9.6s-3.1-7.2-7.5-7.2-7.5 2.5-7.5 7.8v.6h-7.1v-.8c0-11.5 8.5-14.5 14.6-14.5s14.6 2.9 14.6 14-2.2 9.4-6.8 14.2L205 437.5h19.5Zm-71.4-128.2c-20-20-32.4-47.6-32.4-78s12.4-58 32.4-78 47.6-32.4 78-32.4 58 12.4 78 32.4 32.4 47.6 32.4 78-12.4 58-32.4 78-47.6 32.4-78 32.4-58-12.4-78-32.4m78.7 142.8-.4-103.6c9.1 0 17.9-1.1 26.4-3.1L285 445.5c-17 4.3-34.8 6.6-53 6.6Zm104.3-26.7-50.1-90.8c8.3-4.4 16-9.8 23-16.1l67.9 78.2c-12.5 11-26.1 20.6-40.8 28.6Zm77.9-70.7-84.9-59.4c5-7.6 9.1-15.9 12.3-24.6l96.7 37.3c-6.2 16.6-14.3 32.3-24.1 46.7M347.9 241c.3-3.2.4-6.4.4-9.7 0-5.5-.4-10.9-1.2-16.3L450 202.8c1.2 9.3 1.9 18.8 1.9 28.4s-.4 15.6-1.2 23.2l-102.9-13.5Z" class="cls-2"/><path d="M359 295.6c-24.9 0-45.1 20.3-45.1 45.2s20.2 45.1 45.1 45.1 45.1-20.2 45.1-45.1-20.2-45.2-45.1-45.2" style="fill:#e81010;stroke-width:0"/><path d="M395.8 329.7h-25.7v-25.8H348v25.8h-25.7v22.1H348v25.7h22.1v-25.7h25.7z" style="stroke-width:0;fill:#fff"/><path d="M237.8 129.2c2.2.1 6.2 2 4.1 4.1-9.2 9.3-17.3 34.3-19.4 41.3-.7 2.3-10.9-10.6-12-13.6s-1.2-20.2 0-22.3 25.1-9.6 27.3-9.5" class="cls-2"/><path d="M237.8 129.2c2.2.1 6.2 2 4.1 4.1-9.2 9.3-17.3 34.3-19.4 41.3-.7 2.3-10.9-10.6-12-13.6s-1.2-20.2 0-22.3 25.1-9.6 27.3-9.5" class="cls-2"/><path d="M237.8 129.2c2.2.1 6.2 2 4.1 4.1-9.2 9.3-17.3 34.3-19.4 41.3-.7 2.3-10.9-10.6-12-13.6s-1.2-20.2 0-22.3 25.1-9.6 27.3-9.5" class="cls-2"/><path d="M237.8 129.2c2.2.1 6.2 2 4.1 4.1-9.2 9.3-17.3 34.3-19.4 41.3-.7 2.3-10.9-10.6-12-13.6s-1.2-20.2 0-22.3 25.1-9.6 27.3-9.5m12.4 6.6c2.2-.6 14.2 4.8 14 7-.1 2.3-16.9 17.9-18.2 19.8-1.3 2-.5 10.1-1.7 12s-12 6.6-13.6 5.8-3.6-9.1-3.1-12.4c.6-3.4 20.3-31.6 22.5-32.2" class="cls-2"/><path d="M250.2 135.8c2.2-.6 14.2 4.8 14 7-.1 2.3-16.9 17.9-18.2 19.8-1.3 2-.5 10.1-1.7 12s-12 6.6-13.6 5.8-3.6-9.1-3.1-12.4c.6-3.4 20.3-31.6 22.5-32.2" class="cls-2"/><path d="M250.2 135.8c2.2-.6 14.2 4.8 14 7-.1 2.3-16.9 17.9-18.2 19.8-1.3 2-.5 10.1-1.7 12s-12 6.6-13.6 5.8-3.6-9.1-3.1-12.4c.6-3.4 20.3-31.6 22.5-32.2" class="cls-2"/><path d="M250.2 135.8c2.2-.6 14.2 4.8 14 7-.1 2.3-16.9 17.9-18.2 19.8-1.3 2-.5 10.1-1.7 12s-12 6.6-13.6 5.8-3.6-9.1-3.1-12.4c.6-3.4 20.3-31.6 22.5-32.2Zm22.7 11.2c2.5-.5 22.7 15.5 20.2 16.5-10.8 4.5-21.3 15.6-24.8 21.5-1.9 3.1-19.3-11-19.4-14.1s21.5-23.5 24-24" class="cls-2"/><path d="M272.9 147c2.5-.5 22.7 15.5 20.2 16.5-10.8 4.5-21.3 15.6-24.8 21.5-1.9 3.1-19.3-11-19.4-14.1s21.5-23.5 24-24" class="cls-2"/><path d="M272.9 147c2.5-.5 22.7 15.5 20.2 16.5-10.8 4.5-21.3 15.6-24.8 21.5-1.9 3.1-19.3-11-19.4-14.1s21.5-23.5 24-24" class="cls-2"/><path d="M272.9 147c2.5-.5 22.7 15.5 20.2 16.5-10.8 4.5-21.3 15.6-24.8 21.5-1.9 3.1-19.3-11-19.4-14.1s21.5-23.5 24-24Zm-68.6-5.4c1.1 1.3 1.1 24.4 6.2 31 2.6 3.3-.6 4-3.1 4.1-2.5.2-16.4-18.6-20.4-24.8-2.4-3.7 16.3-11.7 17.4-10.3" class="cls-2"/><path d="M204.3 141.6c1.1 1.3 1.1 24.4 6.2 31 2.6 3.3-.6 4-3.1 4.1-2.5.2-16.4-18.6-20.4-24.8-2.4-3.7 16.3-11.7 17.4-10.3" class="cls-2"/><path d="M204.3 141.6c1.1 1.3 1.1 24.4 6.2 31 2.6 3.3-.6 4-3.1 4.1-2.5.2-16.4-18.6-20.4-24.8-2.4-3.7 16.3-11.7 17.4-10.3" class="cls-2"/><path d="M204.3 141.6c1.1 1.3 1.1 24.4 6.2 31 2.6 3.3-.6 4-3.1 4.1-2.5.2-16.4-18.6-20.4-24.8-2.4-3.7 16.3-11.7 17.4-10.3Zm-24.4 10.3c2.2.3 24.2 26.7 24 28.5-.2 1.9-3.2 5.3-5.2 2.9-7.3-8.6-24.5-17.4-32-19-2.7-.6 11-12.7 13.2-12.4" class="cls-2"/><path d="M179.9 151.9c2.2.3 24.2 26.7 24 28.5-.2 1.9-3.2 5.3-5.2 2.9-7.3-8.6-24.5-17.4-32-19-2.7-.6 11-12.7 13.2-12.4" class="cls-2"/><path d="M179.9 151.9c2.2.3 24.2 26.7 24 28.5-.2 1.9-3.2 5.3-5.2 2.9-7.3-8.6-24.5-17.4-32-19-2.7-.6 11-12.7 13.2-12.4" class="cls-2"/><path d="M179.9 151.9c2.2.3 24.2 26.7 24 28.5-.2 1.9-3.2 5.3-5.2 2.9-7.3-8.6-24.5-17.4-32-19-2.7-.6 11-12.7 13.2-12.4m14.5 33.1c.2-2.4-23.7-17.7-33.5-13.2s-9.6 29.8-16.9 38.4c-2.4 2.8 20.2-7.6 19-9.9-2.1-4-8-16 .6-21.4 5-3.2 21.7 2.6 20 7.6-1.1 3.1-12-2.9-15.2-1-3.1 1.9-2.7 8.5-1.6 11.1 1 2.6 12.2 2.2 16.5.4s11-9.6 11.2-12" class="cls-2"/><path d="M194.4 185c.2-2.4-23.7-17.7-33.5-13.2s-9.6 29.8-16.9 38.4c-2.4 2.8 20.2-7.6 19-9.9-2.1-4-8-16 .6-21.4 5-3.2 21.7 2.6 20 7.6-1.1 3.1-12-2.9-15.2-1-3.1 1.9-2.7 8.5-1.6 11.1 1 2.6 12.2 2.2 16.5.4s11-9.6 11.2-12" class="cls-2"/><path d="M194.4 185c.2-2.4-23.7-17.7-33.5-13.2s-9.6 29.8-16.9 38.4c-2.4 2.8 20.2-7.6 19-9.9-2.1-4-8-16 .6-21.4 5-3.2 21.7 2.6 20 7.6-1.1 3.1-12-2.9-15.2-1-3.1 1.9-2.7 8.5-1.6 11.1 1 2.6 12.2 2.2 16.5.4s11-9.6 11.2-12" class="cls-2"/><path d="M194.4 185c.2-2.4-23.7-17.7-33.5-13.2s-9.6 29.8-16.9 38.4c-2.4 2.8 20.2-7.6 19-9.9-2.1-4-8-16 .6-21.4 5-3.2 21.7 2.6 20 7.6-1.1 3.1-12-2.9-15.2-1-3.1 1.9-2.7 8.5-1.6 11.1 1 2.6 12.2 2.2 16.5.4s11-9.6 11.2-12Zm-11.6 16.9c2.7 0 5.8 6 4.1 7.4-11.5 9.4-37 31.3-45.9 49.2-1 2.1-8.7-20.9-8.1-25.2 6.2-15.9 38-30.6 49.8-31.4" class="cls-2"/><path d="M182.8 201.9c2.7 0 5.8 6 4.1 7.4-11.5 9.4-37 31.3-45.9 49.2-1 2.1-8.7-20.9-8.1-25.2 6.2-15.9 38-30.6 49.8-31.4" class="cls-2"/><path d="M182.8 201.9c2.7 0 5.8 6 4.1 7.4-11.5 9.4-37 31.3-45.9 49.2-1 2.1-8.7-20.9-8.1-25.2 6.2-15.9 38-30.6 49.8-31.4" class="cls-2"/><path d="M182.8 201.9c2.7 0 5.8 6 4.1 7.4-11.5 9.4-37 31.3-45.9 49.2-1 2.1-8.7-20.9-8.1-25.2 6.2-15.9 38-30.6 49.8-31.4Zm134.7 4.2c-7.2-8.1-12.5-37.9-17.8-38.4s-28.3 18.6-28.7 21.1c-.4 2.4 10.5 10.1 14.5 10.8 3.9.7 12.8-2.5 12.2-8.5s-5-5.3-8-5.5-9.7 6.2-10.7 2.4c-2-7.4 12.9-9.6 15.3-9.5 7.3.2 9.5 8.8 8.4 12.6-.8 2.5-6.8 10.2-4.1 10.5 12.1 1.6 21.4 7.2 19 4.6" class="cls-2"/><path d="M317.5 206.1c-7.2-8.1-12.5-37.9-17.8-38.4s-28.3 18.6-28.7 21.1c-.4 2.4 10.5 10.1 14.5 10.8 3.9.7 12.8-2.5 12.2-8.5s-5-5.3-8-5.5-9.7 6.2-10.7 2.4c-2-7.4 12.9-9.6 15.3-9.5 7.3.2 9.5 8.8 8.4 12.6-.8 2.5-6.8 10.2-4.1 10.5 12.1 1.6 21.4 7.2 19 4.6" class="cls-2"/><path d="M317.5 206.1c-7.2-8.1-12.5-37.9-17.8-38.4s-28.3 18.6-28.7 21.1c-.4 2.4 10.5 10.1 14.5 10.8 3.9.7 12.8-2.5 12.2-8.5s-5-5.3-8-5.5-9.7 6.2-10.7 2.4c-2-7.4 12.9-9.6 15.3-9.5 7.3.2 9.5 8.8 8.4 12.6-.8 2.5-6.8 10.2-4.1 10.5 12.1 1.6 21.4 7.2 19 4.6" class="cls-2"/><path d="M317.5 206.1c-7.2-8.1-12.5-37.9-17.8-38.4s-28.3 18.6-28.7 21.1c-.4 2.4 10.5 10.1 14.5 10.8 3.9.7 12.8-2.5 12.2-8.5s-5-5.3-8-5.5-9.7 6.2-10.7 2.4c-2-7.4 12.9-9.6 15.3-9.5 7.3.2 9.5 8.8 8.4 12.6-.8 2.5-6.8 10.2-4.1 10.5 12.1 1.6 21.4 7.2 19 4.6Zm-38-4.6c32.6 7.8 44.3 15.6 49.2 31.4 1.7 5.4-7.1 22.7-7.9 19.8-2.9-11.9-20-28.9-47.3-44.6-2.2-1.3 3-7.3 6-6.6" class="cls-2"/><path d="M279.5 201.5c32.6 7.8 44.3 15.6 49.2 31.4 1.7 5.4-7.1 22.7-7.9 19.8-2.9-11.9-20-28.9-47.3-44.6-2.2-1.3 3-7.3 6-6.6" class="cls-2"/><path d="M279.5 201.5c32.6 7.8 44.3 15.6 49.2 31.4 1.7 5.4-7.1 22.7-7.9 19.8-2.9-11.9-20-28.9-47.3-44.6-2.2-1.3 3-7.3 6-6.6" class="cls-2"/><path d="M279.5 201.5c32.6 7.8 44.3 15.6 49.2 31.4 1.7 5.4-7.1 22.7-7.9 19.8-2.9-11.9-20-28.9-47.3-44.6-2.2-1.3 3-7.3 6-6.6" class="cls-2"/><path d="M274.1 214.3c14.3 5.7 42 33.9 45 44.2 1 3.5-11.8 20-12.6 16.2-3.9-17.5-24.6-38.2-42.4-51.4-1.7-1.2 6.8-10.3 9.9-9.1" class="cls-2"/><path d="M274.1 214.3c14.3 5.7 42 33.9 45 44.2 1 3.5-11.8 20-12.6 16.2-3.9-17.5-24.6-38.2-42.4-51.4-1.7-1.2 6.8-10.3 9.9-9.1" class="cls-2"/><path d="M274.1 214.3c14.3 5.7 42 33.9 45 44.2 1 3.5-11.8 20-12.6 16.2-3.9-17.5-24.6-38.2-42.4-51.4-1.7-1.2 6.8-10.3 9.9-9.1" class="cls-2"/><path d="M274.1 214.3c14.3 5.7 42 33.9 45 44.2 1 3.5-11.8 20-12.6 16.2-3.9-17.5-24.6-38.2-42.4-51.4-1.7-1.2 6.8-10.3 9.9-9.1Zm-6.1 19s34 42 33.5 45.1c-1.3 7.5-24 23.6-24 20.7 0-10-9.5-65.7-9.5-65.7" class="cls-2"/><path d="M268 233.3s34 42 33.5 45.1c-1.3 7.5-24 23.6-24 20.7 0-10-9.5-65.7-9.5-65.7m-2.1 19.7c2.4 1.9 6.5 47.5 5.2 51.7-1.4 4.2-25.8 24.6-29.1 23.1 17.9-18.8 9.6-61.6 9.6-61.6s11.9-15.1 14.3-13.2" class="cls-2"/><path d="M265.9 253.1c2.4 1.9 6.5 47.5 5.2 51.7-1.4 4.2-25.8 24.6-29.1 23.1 17.9-18.8 9.6-61.6 9.6-61.6s11.9-15.1 14.3-13.2" class="cls-2"/><path d="M265.9 253.1c2.4 1.9 6.5 47.5 5.2 51.7-1.4 4.2-25.8 24.6-29.1 23.1 17.9-18.8 9.6-61.6 9.6-61.6s11.9-15.1 14.3-13.2" class="cls-2"/><path d="M265.9 253.1c2.4 1.9 6.5 47.5 5.2 51.7-1.4 4.2-25.8 24.6-29.1 23.1 17.9-18.8 9.6-61.6 9.6-61.6s11.9-15.1 14.3-13.2" class="cls-2"/><path d="M245.2 271.3s2.5 32.7 1.2 37.2c-2.6 9-15.3 24.4-15.3 24.4s-15.1-11.8-16.2-16.3c-2.2-9.2 9.6-40.2 11.2-39.9.7.1 3.4 1.8 5.4 2.1 3.2.4 13.6-7.4 13.6-7.4" class="cls-2"/><path d="M245.2 271.3s2.5 32.7 1.2 37.2c-2.6 9-15.3 24.4-15.3 24.4s-15.1-11.8-16.2-16.3c-2.2-9.2 9.6-40.2 11.2-39.9.7.1 3.4 1.8 5.4 2.1 3.2.4 13.6-7.4 13.6-7.4" class="cls-2"/><path d="M245.2 271.3s2.5 32.7 1.2 37.2c-2.6 9-15.3 24.4-15.3 24.4s-15.1-11.8-16.2-16.3c-2.2-9.2 9.6-40.2 11.2-39.9.7.1 3.4 1.8 5.4 2.1 3.2.4 13.6-7.4 13.6-7.4" class="cls-2"/><path d="M245.2 271.3s2.5 32.7 1.2 37.2c-2.6 9-15.3 24.4-15.3 24.4s-15.1-11.8-16.2-16.3c-2.2-9.2 9.6-40.2 11.2-39.9.7.1 3.4 1.8 5.4 2.1 3.2.4 13.6-7.4 13.6-7.4Zm-23.9 4c-4.7 6.8-11.8 26.1-11.9 43.3-2.7 1.9-17.1-8-17.9-13s11.7-31 12.4-47.1c10.8 16.8 19.5 13.8 17.4 16.8" class="cls-2"/><path d="M221.3 275.3c-4.7 6.8-11.8 26.1-11.9 43.3-2.7 1.9-17.1-8-17.9-13s11.7-31 12.4-47.1c10.8 16.8 19.5 13.8 17.4 16.8" class="cls-2"/><path d="M221.3 275.3c-4.7 6.8-11.8 26.1-11.9 43.3-2.7 1.9-17.1-8-17.9-13s11.7-31 12.4-47.1c10.8 16.8 19.5 13.8 17.4 16.8" class="cls-2"/><path d="M221.3 275.3c-4.7 6.8-11.8 26.1-11.9 43.3-2.7 1.9-17.1-8-17.9-13s11.7-31 12.4-47.1c10.8 16.8 19.5 13.8 17.4 16.8m-29.8-36.7s6.6 11.9 7.2 20-10.7 23.8-13.4 43.5c-3 1-18.2-15.2-18.6-18.8-1.9-15.9 24.8-44.6 24.8-44.6" class="cls-2"/><path d="M191.5 238.6s6.6 11.9 7.2 20-10.7 23.8-13.4 43.5c-3 1-18.2-15.2-18.6-18.8-1.9-15.9 24.8-44.6 24.8-44.6" class="cls-2"/><path d="M191.5 238.6s6.6 11.9 7.2 20-10.7 23.8-13.4 43.5c-3 1-18.2-15.2-18.6-18.8-1.9-15.9 24.8-44.6 24.8-44.6" class="cls-2"/><path d="M191.5 238.6s6.6 11.9 7.2 20-10.7 23.8-13.4 43.5c-3 1-18.2-15.2-18.6-18.8-1.9-15.9 24.8-44.6 24.8-44.6Z" class="cls-2"/><path d="M188.3 214.1c1.7-.6 8.2 6.5 7.7 9.2s-36.4 38-33.9 57.8c-3.2 0-15.5-12.2-14.5-18.2 2.4-13.4 34.7-46.9 40.6-48.9" class="cls-2"/><path d="M188.3 214.1c1.7-.6 8.2 6.5 7.7 9.2s-36.4 38-33.9 57.8c-3.2 0-15.5-12.2-14.5-18.2 2.4-13.4 34.7-46.9 40.6-48.9" class="cls-2"/><path d="M188.3 214.1c1.7-.6 8.2 6.5 7.7 9.2s-36.4 38-33.9 57.8c-3.2 0-15.5-12.2-14.5-18.2 2.4-13.4 34.7-46.9 40.6-48.9" class="cls-2"/><path d="M188.3 214.1c1.7-.6 8.2 6.5 7.7 9.2s-36.4 38-33.9 57.8c-3.2 0-15.5-12.2-14.5-18.2 2.4-13.4 34.7-46.9 40.6-48.9Zm28.4 9.3c1.7-1.3 25.9-2.3 28.5 0 1.5 1.3-4.6 10.2-7 11.6-2.4 1.3-11.4 1.1-14.1 0s-9.1-10.2-7.4-11.6" class="cls-2"/><path d="M216.7 223.4c1.7-1.3 25.9-2.3 28.5 0 1.5 1.3-4.6 10.2-7 11.6-2.4 1.3-11.4 1.1-14.1 0s-9.1-10.2-7.4-11.6" class="cls-2"/><path d="M216.7 223.4c1.7-1.3 25.9-2.3 28.5 0 1.5 1.3-4.6 10.2-7 11.6-2.4 1.3-11.4 1.1-14.1 0s-9.1-10.2-7.4-11.6" class="cls-2"/><path d="M216.7 223.4c1.7-1.3 25.9-2.3 28.5 0 1.5 1.3-4.6 10.2-7 11.6-2.4 1.3-11.4 1.1-14.1 0s-9.1-10.2-7.4-11.6" class="cls-2"/><path d="M218.5 222.9h-2.1c.1-8.1 0-17.2-.6-18.3-.8-.8-11.1-6.5-20.3-11.3l1-1.8c4.6 2.4 19.8 10.5 21 11.9 1.1 1.4 1.1 11.4 1 19.6" class="cls-2"/><path d="M218.5 222.9h-2.1c.1-8.1 0-17.2-.6-18.3-.8-.8-11.1-6.5-20.3-11.3l1-1.8c4.6 2.4 19.8 10.5 21 11.9 1.1 1.4 1.1 11.4 1 19.6" class="cls-2"/><path d="M218.5 222.9h-2.1c.1-8.1 0-17.2-.6-18.3-.8-.8-11.1-6.5-20.3-11.3l1-1.8c4.6 2.4 19.8 10.5 21 11.9 1.1 1.4 1.1 11.4 1 19.6" class="cls-2"/><path d="M218.5 222.9h-2.1c.1-8.1 0-17.2-.6-18.3-.8-.8-11.1-6.5-20.3-11.3l1-1.8c4.6 2.4 19.8 10.5 21 11.9 1.1 1.4 1.1 11.4 1 19.6Zm26.7 0h-2.1c0-1.5.3-14.5 1.1-16.8s14.9-9.4 23.3-13.4l.9 1.9c-10.2 4.9-21.4 10.9-22.2 12.3-.5 1.4-.9 10.6-1 16" class="cls-2"/><path d="M245.2 222.9h-2.1c0-1.5.3-14.5 1.1-16.8s14.9-9.4 23.3-13.4l.9 1.9c-10.2 4.9-21.4 10.9-22.2 12.3-.5 1.4-.9 10.6-1 16" class="cls-2"/><path d="M245.2 222.9h-2.1c0-1.5.3-14.5 1.1-16.8s14.9-9.4 23.3-13.4l.9 1.9c-10.2 4.9-21.4 10.9-22.2 12.3-.5 1.4-.9 10.6-1 16" class="cls-2"/><path d="M245.2 222.9h-2.1c0-1.5.3-14.5 1.1-16.8s14.9-9.4 23.3-13.4l.9 1.9c-10.2 4.9-21.4 10.9-22.2 12.3-.5 1.4-.9 10.6-1 16M207 255.5s21.7-5.3 23.9-5.6c2.1-.3 22.9 5.6 22.9 5.6s-18.9-6.2-19.8-8.8c-.8-2-.3-10.8-.3-10.8h-4.8s.8 8.5.2 10.8c-.6 2.4-22 8.8-22 8.8" class="cls-2"/><path d="M207 255.5s21.7-5.3 23.9-5.6c2.1-.3 22.9 5.6 22.9 5.6s-18.9-6.2-19.8-8.8c-.8-2-.3-10.8-.3-10.8h-4.8s.8 8.5.2 10.8c-.6 2.4-22 8.8-22 8.8" class="cls-2"/><path d="M207 255.5s21.7-5.3 23.9-5.6c2.1-.3 22.9 5.6 22.9 5.6s-18.9-6.2-19.8-8.8c-.8-2-.3-10.8-.3-10.8h-4.8s.8 8.5.2 10.8c-.6 2.4-22 8.8-22 8.8" class="cls-2"/><path d="M207 255.5s21.7-5.3 23.9-5.6c2.1-.3 22.9 5.6 22.9 5.6s-18.9-6.2-19.8-8.8c-.8-2-.3-10.8-.3-10.8h-4.8s.8 8.5.2 10.8c-.6 2.4-22 8.8-22 8.8Zm-6-60.7s3.7 8.8 4.6 9.6 10.2-1.1 10.2-1.1l-14.8-8.4Z" class="cls-2"/><path d="M201 194.8s3.7 8.8 4.6 9.6 10.2-1.1 10.2-1.1l-14.8-8.4Z" class="cls-2"/><path d="M201 194.8s3.7 8.8 4.6 9.6 10.2-1.1 10.2-1.1l-14.8-8.4Z" class="cls-2"/><path d="M201 194.8s3.7 8.8 4.6 9.6 10.2-1.1 10.2-1.1l-14.8-8.4Zm62.4 1s-3.8 8.4-5.2 9.3-11 0-11 0z" class="cls-2"/><path d="M263.4 195.8s-3.8 8.4-5.2 9.3-11 0-11 0z" class="cls-2"/><path d="M263.4 195.8s-3.8 8.4-5.2 9.3-11 0-11 0z" class="cls-2"/><path d="M263.4 195.8s-3.8 8.4-5.2 9.3-11 0-11 0z" class="cls-2"/></svg>